<svg width="396" height="443" viewBox="0 0 396 443" fill="none" xmlns="http://www.w3.org/2000/svg">
<path d="M172.408 390.725C225.236 363.652 251.113 290.704 229.746 230.541C220.665 200.386 201.429 174.307 175.307 156.734C157.268 145.347 145.994 145.991 133.324 157.379C134.459 158.629 135.851 159.619 137.404 160.28C149.352 160.951 160.732 165.598 169.739 173.481C178.747 181.364 184.864 192.032 187.118 203.79C190.427 216.789 190.006 230.457 185.904 243.227C181.802 255.997 174.184 267.351 163.925 275.986C152.328 287.886 137.278 295.828 120.914 298.682C104.549 301.536 87.7013 299.158 72.7641 291.886C22.9423 270.399 -2.39825 225.277 0.178746 165.759C6.08435 48.7637 126.774 -29.6628 240.591 10.7323C262.756 20.0345 284.279 30.8016 305.016 42.9623L303.727 24.4837C328.733 56.4756 342.877 95.6196 344.1 136.215C355.247 131.32 366.686 127.122 378.353 123.645C384.394 123.688 390.358 125.006 395.855 127.513C393.6 132.777 391.56 138.256 389.09 143.305C379.749 162.751 366.541 181.122 361.387 201.642C345.174 266.102 320.907 325.298 276.668 375.577C248.214 407.807 216.754 435.954 172.193 441.004C152.865 443.658 133.192 442.082 114.533 436.384C60.0941 417.368 65.892 357.635 88.7628 330.992C96.2762 323.283 106.1 318.24 116.741 316.631C127.382 315.021 138.256 316.933 147.711 322.075C157.313 326.283 165.279 333.513 170.396 342.667C175.512 351.82 177.501 362.395 176.058 372.783C174.77 378.692 173.589 384.171 172.408 390.725ZM82.3206 137.504L83.6091 138.793C73.9453 162.321 66.1069 185.849 80.8172 212.6C88.0113 151.47 123.767 106.133 164.892 105.918C138.907 123.86 111.204 139.008 98.8561 170.379C106.462 168.858 113.448 165.12 118.935 159.635C134.612 138.793 158.342 132.347 180.354 123C219.438 106.456 251.006 119.24 267.756 157.809C269.045 160.71 270.763 163.395 273.34 168.552C273.324 154.318 269.974 140.285 263.559 127.58C257.145 114.875 247.844 103.85 236.403 95.39C191.091 59.722 142.235 56.4989 90.803 82.1755C152.651 41.1359 208.056 58.003 261.958 99.4724C252.521 85.9472 240.695 74.2601 227.061 64.9863C212.13 56.497 195.863 50.6114 178.958 47.5819C163.262 45.9361 147.448 45.7203 131.713 46.9373C176.488 32.1115 215.68 46.9374 253.046 70.6802C234.685 43.1772 205.801 35.8717 177.884 27.7068C237.262 32.219 277.42 59.9369 288.373 124.397C299.11 112.042 300.506 102.91 293.419 92.1669C286.332 81.4236 282.681 73.0437 275.809 64.4491C255.408 37.8055 231.249 16.104 196.567 9.76539C116.144 -4.84558 30.3514 56.3915 14.0305 140.297C1.89716 201.964 21.9757 251.706 69.2206 277.275C78.8389 282.564 89.4832 285.72 100.429 286.526C111.375 287.333 122.365 285.772 132.654 281.95C142.944 278.127 152.29 272.133 160.057 264.375C167.825 256.617 173.832 247.276 177.669 236.987C181.164 227.126 181.49 216.419 178.602 206.364C175.714 196.308 169.757 187.407 161.563 180.907C154.599 175.154 145.959 171.814 136.938 171.388C127.917 170.961 119.001 173.472 111.526 178.543C105.297 184.701 99.9822 191.72 95.7425 199.386L99.9302 202.609C101.412 201.826 102.784 200.851 104.01 199.708C106.7 196.286 110.114 193.502 114.005 191.554C117.897 189.606 122.171 188.543 126.521 188.44C130.871 188.337 135.19 189.198 139.169 190.96C143.148 192.722 146.688 195.343 149.537 198.634C159.416 211.741 152.759 233.55 135.471 244.615C128.769 248.63 121.32 251.238 113.578 252.28C105.835 253.321 97.9622 252.775 90.438 250.675C82.9137 248.574 75.8961 244.963 69.8117 240.061C63.7273 235.159 58.7033 229.069 55.047 222.162C38.1892 190.576 41.3031 157.701 54.4028 126.008C54.3467 134.38 53.7733 142.74 52.6851 151.041C52.1482 158.991 52.6851 166.941 52.6851 174.891C71.2609 116.984 73.6233 112.257 89.0853 102.158L65.3552 155.016L69.8648 156.842L82.3206 137.504ZM120.009 385.461L139.229 406.947C141.484 398.353 142.343 396.204 142.88 392.874C145.457 380.626 144.705 367.842 132.143 363.222C127.768 362.035 123.192 361.785 118.714 362.489C114.237 363.192 109.958 364.833 106.157 367.304C101.367 371.226 98.2302 376.811 97.3743 382.945C96.5184 389.078 98.0062 395.31 101.54 400.394C105.457 407.859 111.075 414.297 117.94 419.187C124.804 424.077 132.722 427.282 141.054 428.542C185.293 436.384 221.693 420.484 252.08 389.651C288.169 352.89 315.703 308.613 332.718 259.978C348.073 217.005 348.18 168.015 387.157 129.769C376.489 131.033 366.247 134.707 357.206 140.514C348.166 146.321 340.563 154.109 334.973 163.288C325.037 179.87 316.074 197.017 308.129 214.641C297.164 210.351 287.293 203.671 279.232 195.085C271.171 186.499 265.124 176.224 261.529 165.007C258.795 156.775 254.613 149.099 249.181 142.338C243.659 134.16 235.377 128.247 225.852 125.681C216.327 123.116 206.197 124.072 197.318 128.372C265.501 170.379 266.79 233.872 252.187 302.522H256.375L273.447 232.26L277.205 233.012L261.851 314.447L262.71 316.918L267.434 306.175L271.837 309.398L239.624 365.048C244.885 360.106 246.818 357.958 249.073 356.239C250.824 355.01 252.653 353.897 254.549 352.908C235.285 380.112 206.833 399.421 174.448 407.27C160.457 411 145.937 412.344 131.498 411.245C116.788 410.708 113.459 400.824 120.009 385.461ZM134.397 340.661C106.05 341.198 91.4476 351.941 87.1526 376.114C85.4867 386.745 87.521 397.626 92.9159 406.936C98.3108 416.245 106.738 423.418 116.787 427.252C92.9503 402.435 86.8302 384.279 97.5676 367.197C100.481 361.485 105.283 356.96 111.157 354.394C117.031 351.828 123.612 351.378 129.78 353.123C151.255 358.817 152.758 376.329 151.899 395.022C158.477 390.285 163.258 383.458 165.461 375.654C167.665 367.85 167.161 359.53 164.033 352.049C160.058 343.34 153.539 336.039 145.335 331.111C137.131 326.182 127.628 323.856 118.077 324.438C99.6081 326.05 87.3671 338.297 83.5016 360.321C97.3529 342.595 112.385 331.422 134.505 340.768L134.397 340.661ZM327.671 151.041C341.63 127.405 334.866 86.5804 314.357 60.4741C311.565 76.3742 309.74 92.7041 305.66 108.389C301.58 124.075 294.278 137.396 290.198 152.33C289.112 160.854 289.112 169.482 290.198 178.006L295.889 178.543L303.19 145.561L310.062 156.305L318.115 109.893L327.671 151.041ZM243.919 277.597C262.817 229.145 236.081 154.263 196.782 145.454C233.933 182.733 245.208 227.856 244.349 277.597H243.919ZM111.097 238.491C127.847 238.491 143.309 225.385 140.303 216.468C138.72 213.173 136.392 210.292 133.503 208.054C130.614 205.817 127.244 204.283 123.66 203.576C120.729 203.312 117.776 203.679 114.999 204.652C112.222 205.625 109.685 207.181 107.559 209.217C105.433 211.252 103.768 213.72 102.674 216.453C101.581 219.186 101.084 222.121 101.219 225.062C103.243 230.465 106.832 235.14 111.526 238.491H111.097ZM167.898 141.801L211.707 179.403C196.352 148.14 183.253 136.967 168.328 142.016L167.898 141.801Z" fill="#E9E9E9"/>
</svg>
