<svg width="1679" height="846" viewBox="0 0 1679 846" fill="none" xmlns="http://www.w3.org/2000/svg">
<path d="M297.862 119.143C314.447 119.143 331.549 118.625 348.133 118.107C386.484 116.553 409.287 129.503 407.732 171.98C407.214 187.003 400.995 205.133 388.039 214.457C412.397 217.047 422.762 241.394 421.725 264.705C420.17 306.146 390.63 327.902 352.279 329.974C331.031 331.01 309.264 331.528 288.016 332.046C291.125 261.078 294.753 190.111 297.862 119.143ZM334.658 207.205C336.213 207.205 337.768 207.205 339.841 207.205C359.535 206.169 369.381 199.953 370.418 177.678C371.454 155.922 359.535 151.26 342.432 151.778C340.878 151.778 338.805 151.778 337.25 151.778C336.213 170.426 335.177 188.557 334.658 207.205ZM330.512 297.857C333.622 297.857 336.213 297.857 339.323 297.339C361.089 296.303 380.265 292.159 381.301 264.705C382.338 237.25 360.571 237.768 339.841 238.286C337.768 238.286 335.177 238.286 333.104 238.286C332.067 258.488 331.031 278.173 330.512 297.857Z" fill="#0090C9"/>
<path d="M498.945 270.921C492.726 286.461 486.507 302.519 480.288 318.06C465.776 320.132 451.265 321.686 437.272 323.24C467.331 247.61 496.872 171.462 525.894 94.7963C536.259 93.2423 546.624 91.6883 556.989 89.6162C580.829 157.994 605.705 225.853 630.581 292.677C616.07 295.785 601.559 298.375 587.048 300.965C581.865 286.979 577.201 272.993 572.019 259.006C547.661 263.668 523.303 267.812 498.945 270.921ZM537.814 154.886H537.295C529.003 181.822 520.711 208.759 511.901 235.696C528.485 233.106 545.069 230.516 561.653 227.926C553.361 203.579 545.588 179.232 537.814 154.886Z" fill="#0090C9"/>
<path d="M736.305 198.399C735.787 218.083 735.269 235.178 723.349 254.862C712.466 273.511 694.845 285.425 675.67 289.051C660.122 292.159 645.093 286.461 634.728 277.655C643.538 265.741 652.348 253.826 661.677 241.912C663.231 247.61 670.487 253.826 677.224 252.272C697.436 248.128 695.363 213.939 695.882 200.471C696.918 155.922 697.436 111.891 698.473 67.3418C711.947 64.2337 725.422 61.1257 738.897 58.0176C737.86 105.157 736.824 151.778 736.305 198.399Z" fill="#0090C9"/>
<path d="M870.533 241.912C806.269 258.488 767.4 218.601 768.437 156.44C769.473 93.7601 810.415 35.7427 872.088 19.6843C933.76 3.62591 974.184 40.9228 974.184 103.602C974.702 165.246 934.796 225.335 870.533 241.912ZM872.088 60.0893C833.737 69.9315 810.934 110.336 810.415 144.525C809.897 177.16 825.445 213.421 871.051 201.507C916.139 189.592 932.723 145.561 932.723 112.927C932.723 78.7377 909.92 50.247 872.088 60.0893Z" fill="#0090C9"/>
<path d="M312.892 129.503C329.476 128.985 346.578 128.467 363.162 127.949C401.513 125.877 424.834 138.827 423.28 181.304C422.761 196.327 417.061 214.457 403.586 224.299C427.944 226.889 438.309 250.718 437.272 274.029C435.718 315.47 406.177 337.744 367.826 339.816C346.578 341.37 324.811 341.888 303.563 342.406C306.154 271.439 309.264 200.471 312.892 129.503ZM349.169 217.047C350.724 217.047 352.279 217.047 354.352 217.047C374.046 216.011 384.411 209.277 384.929 187.521C385.965 165.764 374.046 161.102 356.943 162.138C355.388 162.138 353.315 162.138 351.761 162.138C350.724 179.75 350.206 198.399 349.169 217.047ZM345.542 307.699C348.651 307.699 351.242 307.181 354.352 307.181C376.119 306.145 395.294 301.483 396.33 274.029C397.367 246.574 375.082 247.092 354.87 248.128C352.797 248.128 350.206 248.128 348.133 248.646C347.096 268.33 346.06 288.015 345.542 307.699Z" fill="#E52522"/>
<path d="M513.974 279.209C507.755 294.749 501.536 310.807 495.317 326.348C480.806 328.42 466.295 329.974 452.302 332.046C482.36 256.416 511.901 179.75 540.923 102.566C551.288 101.012 561.653 98.9403 572.018 97.3862C596.376 165.246 620.734 233.105 645.61 299.929C631.099 303.037 616.588 305.627 602.077 308.735C596.895 294.749 592.23 280.763 587.048 266.776C562.69 271.438 538.332 275.583 513.974 279.209ZM552.843 162.656H552.325C544.033 189.592 535.741 216.529 526.93 243.466C543.514 240.876 560.099 238.286 576.683 235.178C568.391 211.349 560.617 187.002 552.843 162.656Z" fill="#E52522"/>
<path d="M751.335 205.133C750.816 224.817 750.298 241.912 738.378 261.596C727.495 280.245 709.874 292.159 690.699 296.303C675.151 299.929 660.122 294.231 649.757 285.425C658.567 273.511 667.377 261.596 676.706 249.682C678.779 255.38 685.516 261.596 692.254 260.042C712.466 255.38 710.393 221.709 710.393 208.241C711.429 163.692 711.947 119.661 712.984 75.1118C726.458 72.0037 739.933 68.8957 753.408 65.7876C752.889 111.891 752.371 158.512 751.335 205.133Z" fill="#E52522"/>
<path d="M886.08 248.128C821.817 264.704 782.948 225.335 783.466 162.656C784.503 99.9763 825.445 41.4409 887.117 25.3825C948.789 9.32415 989.731 46.621 989.731 109.301C990.249 171.462 950.344 231.551 886.08 248.128ZM887.117 66.3055C848.766 76.1478 825.963 116.553 825.445 150.742C824.926 183.376 840.992 219.637 886.08 207.723C931.168 195.809 947.753 151.26 947.753 119.143C947.753 84.954 925.468 56.4633 887.117 66.3055Z" fill="#E52522"/>
<path d="M1056.07 98.4223C1056.07 106.711 1056.07 114.999 1056.07 123.287C1067.47 120.179 1079.39 117.071 1090.79 114.481C1090.79 120.697 1090.79 127.431 1090.79 133.647C1079.39 136.755 1067.47 139.863 1056.07 142.453C1056.07 152.814 1056.07 162.656 1056.07 173.016C1067.99 169.908 1080.43 166.8 1092.35 163.692C1092.35 169.908 1092.35 176.642 1092.35 182.858C1072.65 188.038 1053.48 192.701 1033.78 197.881C1033.78 160.066 1033.26 122.251 1033.26 84.954C1052.44 79.7739 1071.62 74.5938 1091.31 69.9316C1091.31 76.1478 1091.31 82.882 1091.31 89.0981C1080.43 92.2062 1067.99 95.3142 1056.07 98.4223Z" fill="#E52522"/>
<path d="M1113.59 61.6433C1118.78 60.0893 1123.96 59.0533 1129.14 57.4993C1148.84 78.7378 1169.05 100.494 1189.26 121.733C1189.26 121.733 1189.26 121.733 1189.78 121.733C1189.26 96.3502 1189.26 70.9676 1188.74 46.103C1196 44.5489 1203.25 42.4769 1210.51 40.9229C1211.03 79.2558 1211.54 117.589 1212.58 155.922C1207.4 156.958 1202.22 158.512 1196.51 159.548C1176.3 137.791 1156.09 116.553 1136.4 95.3142C1136.4 95.3142 1136.4 95.3142 1135.88 95.3142C1136.4 120.697 1136.4 146.597 1136.92 171.98C1129.66 174.052 1122.4 175.606 1115.15 177.678C1114.11 138.827 1113.59 100.494 1113.59 61.6433Z" fill="#E52522"/>
<path d="M1306.38 113.963C1316.75 111.891 1327.11 109.819 1337.48 107.747C1337.48 113.963 1338 120.697 1338 126.913C1320.38 130.539 1302.76 133.647 1285.14 137.791C1284.1 99.9766 1283.58 62.6797 1282.54 24.8648C1289.8 23.3107 1297.06 21.7567 1304.31 20.2026C1305.35 51.8014 1305.87 82.8821 1306.38 113.963Z" fill="#E52522"/>
<path d="M1374.28 96.3503C1371.17 104.639 1368.57 113.445 1365.47 121.733C1357.69 123.287 1349.92 124.323 1342.14 125.877C1355.62 84.436 1369.61 43.513 1382.57 2.59006C1388.27 1.55404 1393.97 0.518012 1399.67 0C1415.22 36.2609 1430.25 72.5217 1445.79 109.301C1438.02 110.337 1430.25 111.373 1422.47 112.927C1419.36 105.675 1416.25 97.9043 1413.14 90.6522C1400.71 92.2062 1387.75 94.2783 1374.28 96.3503ZM1391.9 34.1888C1391.38 34.1888 1391.38 34.1888 1391.9 34.1888C1387.75 48.6932 1384.12 62.6795 1380.49 77.1839C1389.31 75.6298 1398.12 74.0758 1407.44 72.5217C1401.74 60.0894 1396.56 47.1391 1391.9 34.1888Z" fill="#E52522"/>
<path d="M1066.43 101.013C1066.43 109.301 1066.43 117.589 1066.43 125.877C1077.83 122.769 1089.75 119.661 1101.16 117.071C1101.16 123.287 1101.16 130.021 1101.16 136.238C1089.75 139.346 1077.83 142.454 1066.43 145.044C1066.43 155.404 1066.43 165.246 1066.43 175.606C1078.35 172.498 1090.79 169.39 1102.71 166.282C1102.71 172.498 1102.71 179.233 1102.71 185.449C1083.02 190.629 1063.84 195.291 1044.15 200.471C1044.15 162.656 1043.63 124.841 1043.63 87.5443C1062.81 82.3642 1081.98 77.7021 1101.67 72.522C1101.67 78.7381 1101.67 85.4723 1101.67 91.6884C1090.79 94.7965 1078.35 97.9046 1066.43 101.013Z" fill="#FAB60D"/>
<path d="M1123.96 64.2337C1129.14 62.6797 1134.32 61.6437 1139.51 60.0896C1159.72 81.3282 1179.41 103.085 1199.62 124.841C1199.62 124.841 1199.62 124.841 1200.14 124.841C1199.62 99.4586 1199.11 74.076 1199.11 49.2114C1206.36 47.6573 1213.62 45.5853 1220.87 44.0312C1221.39 82.3642 1222.43 120.697 1222.95 159.03C1217.76 160.066 1212.58 161.62 1206.88 162.656C1186.67 140.9 1166.46 119.661 1146.24 97.9045C1146.24 97.9045 1146.24 97.9045 1145.73 97.9045C1146.24 123.287 1146.24 149.188 1146.76 174.57C1139.51 176.642 1132.25 178.196 1125 180.269C1124.48 141.418 1123.96 103.085 1123.96 64.2337Z" fill="#FAB60D"/>
<path d="M1317.27 117.071C1327.63 114.999 1338 112.927 1348.36 110.855C1348.36 117.071 1348.88 123.805 1348.88 130.021C1331.26 133.129 1313.64 136.755 1295.5 140.381C1294.46 102.566 1293.95 65.2695 1292.91 27.4546C1300.17 25.9006 1307.42 24.3465 1314.68 22.7925C1315.71 54.9092 1316.23 85.99 1317.27 117.071Z" fill="#FAB60D"/>
<path d="M1385.16 99.9763C1382.05 108.264 1379.46 117.071 1376.35 125.359C1368.57 126.913 1360.8 127.949 1353.03 129.503C1366.5 88.062 1379.98 47.139 1393.45 6.21604C1399.15 5.18001 1404.85 4.14399 1410.55 3.62598C1426.1 39.8868 1441.13 76.1477 1456.68 112.927C1448.9 113.963 1441.13 114.999 1433.36 116.035C1430.25 108.783 1427.14 101.012 1424.03 93.7601C1411.07 95.3142 1398.12 97.3862 1385.16 99.9763ZM1402.26 37.8148C1398.12 52.3192 1394.49 66.3055 1390.86 80.8098C1399.67 79.2558 1408.48 77.7018 1417.81 76.6657C1412.11 63.7154 1407.44 50.7651 1402.26 37.8148Z" fill="#FAB60D"/>
<path d="M265.73 646.998C265.73 645.962 266.249 644.408 266.767 642.854C267.803 643.372 268.84 643.89 269.877 643.89C272.986 643.89 276.096 641.818 278.687 637.674C281.278 633.529 282.833 627.831 282.833 621.097C285.942 555.828 289.052 490.558 291.643 425.288C292.161 418.554 291.125 412.856 289.052 408.712C286.979 404.568 284.388 402.496 281.278 402.496C280.242 402.496 278.687 403.014 277.65 403.532C277.132 400.942 277.132 399.388 277.132 398.87C277.132 395.244 278.687 392.654 281.796 390.582C284.388 388.51 288.015 387.474 292.161 387.474C295.789 387.474 299.935 388.51 304.6 390.064C305.118 390.064 306.673 390.582 308.746 391.618C310.819 392.136 313.41 392.654 316.519 392.654C319.111 392.654 323.775 391.618 330.512 390.064C341.396 387.474 349.169 385.919 355.388 385.919C369.381 385.401 382.338 387.474 394.257 392.654C406.177 397.834 416.024 407.158 423.28 420.626C430.535 434.095 434.163 451.707 433.127 474.5C432.09 496.774 427.426 515.941 419.134 530.963C410.842 545.985 399.958 557.382 387.52 564.634C374.564 571.886 361.607 576.03 347.615 576.548C345.023 576.548 341.914 576.548 338.804 575.512C335.695 574.476 333.104 573.44 332.067 571.886C331.549 588.462 330.512 604.521 329.994 621.097C329.476 627.831 330.512 633.529 333.103 637.674C335.177 641.818 338.286 643.89 341.396 643.89C342.432 643.89 343.469 643.372 344.505 642.854C345.023 644.926 345.023 645.962 345.023 646.998C345.023 650.624 343.469 653.214 340.359 655.804C337.768 657.876 334.14 659.43 329.476 659.43C325.848 659.43 321.702 658.912 317.038 657.358C316.519 657.358 314.965 656.84 312.892 656.322C310.3 655.804 307.709 655.286 305.118 655.286C302.008 655.286 299.417 655.804 297.344 656.322C294.753 656.84 293.716 657.358 293.198 657.876C288.534 659.948 283.869 660.984 280.76 660.984C276.614 660.984 272.986 659.948 270.395 657.876C266.767 653.732 265.212 650.624 265.73 646.998ZM382.856 514.387C383.374 509.724 382.856 505.062 381.301 500.918C379.746 496.774 377.673 493.666 374.564 491.594C371.454 489.522 368.863 489.004 366.79 490.04C366.79 487.45 368.345 484.86 370.418 482.27C373.009 480.198 375.6 478.644 378.71 478.644C381.819 478.644 384.411 479.162 386.484 481.234C386.484 479.162 386.484 478.126 387.002 477.09C389.075 423.734 377.155 398.352 351.242 399.906C342.432 400.424 337.768 408.194 337.25 423.734C335.695 455.851 334.658 487.968 333.103 520.085C337.25 513.869 343.469 510.242 351.242 509.724C357.461 509.206 362.644 511.278 366.79 514.905C370.936 518.531 372.491 523.711 371.454 529.927C370.418 534.589 368.863 537.697 366.272 539.769C363.68 541.841 361.089 543.395 357.98 543.395C355.388 543.395 353.315 543.395 351.242 542.359C349.169 541.323 348.133 540.805 348.133 539.769C350.206 538.215 351.242 536.143 351.761 533.553C351.761 530.963 351.761 528.891 350.724 527.855C349.688 526.819 348.651 525.783 347.615 526.301C345.023 526.301 341.914 528.373 338.804 532.517C335.695 536.661 334.14 540.805 333.622 545.467C333.622 546.503 333.622 548.057 334.14 550.647C335.695 557.382 339.323 560.49 345.542 559.972C364.199 558.936 377.155 543.395 382.856 514.387Z" fill="#0090C9"/>
<path d="M546.624 552.201C544.033 552.719 540.923 552.719 537.814 552.201C534.704 551.683 532.113 550.647 530.558 549.093C530.04 565.151 529.522 581.728 529.004 597.786C529.004 604.52 530.04 610.219 532.113 613.845C534.704 617.471 537.296 619.543 540.405 619.025C541.96 619.025 542.996 617.989 544.033 617.471C544.551 619.543 544.551 620.579 544.551 621.097C544.551 624.723 542.996 627.831 540.405 630.421C537.814 633.011 533.668 634.565 529.522 635.601C525.894 636.119 521.748 636.119 517.084 634.565C511.901 633.529 508.273 633.529 505.164 634.047C502.054 634.565 497.908 636.119 492.726 638.709C492.208 639.227 490.653 639.745 488.58 640.781C485.988 641.817 483.397 642.335 480.288 642.853C475.623 643.371 471.996 642.853 469.404 641.299C466.813 639.745 465.258 636.637 465.777 633.011C465.777 632.493 466.295 630.939 466.813 628.867C467.85 629.385 469.404 629.385 470.441 629.385C473.55 628.867 476.66 626.277 479.251 621.615C481.842 616.953 483.397 611.255 483.397 604.52C485.47 539.251 487.543 473.981 489.616 409.23C489.616 402.496 489.098 396.797 486.507 393.171C484.434 389.027 481.324 387.473 478.215 387.991C477.178 387.991 475.623 388.509 474.587 389.545C474.069 387.473 474.069 386.437 474.069 385.401C474.069 381.775 475.623 378.667 478.215 376.077C480.806 373.487 484.434 371.933 489.098 371.415C492.207 370.897 494.799 370.897 497.39 371.415C499.463 371.933 501.018 371.933 501.536 372.451C506.2 373.487 510.346 374.005 513.456 373.487C516.047 372.969 520.711 371.933 527.449 369.343C537.814 365.717 545.588 363.127 552.325 362.091C566.318 360.018 579.274 360.537 591.194 364.681C603.114 368.825 612.961 377.113 620.734 389.545C628.508 401.978 631.618 419.59 631.1 441.864C630.581 462.585 626.953 480.197 620.216 494.702C613.479 509.206 604.15 521.638 592.749 531.481C592.231 547.021 593.785 562.043 597.931 576.548C601.559 591.052 606.742 602.966 613.997 612.291C620.734 621.615 627.99 626.277 635.764 626.795C636.282 626.795 637.837 626.795 639.392 626.277C642.501 625.759 645.092 624.205 646.647 621.615C648.202 619.543 649.238 616.953 649.238 613.845C649.238 609.701 648.202 607.628 645.611 607.628C647.165 606.074 649.238 604.52 652.348 604.002C655.458 603.484 658.049 603.484 660.64 604.52C663.231 605.556 664.268 607.11 665.304 609.701C665.823 611.773 665.823 613.327 665.823 614.363C665.823 622.133 662.195 629.903 655.457 636.637C648.72 643.889 640.946 648.551 632.136 650.105C615.034 653.732 600.004 650.105 588.084 640.263C575.646 630.421 566.318 616.953 560.099 600.376C552.325 585.354 548.697 568.777 546.624 552.201ZM585.493 450.671C587.048 397.315 574.61 373.487 549.215 377.631C540.405 379.185 535.741 387.473 535.223 403.014C534.186 435.13 533.15 467.247 532.631 499.364C537.296 492.63 543.515 488.486 550.77 486.932C556.989 485.896 562.172 486.932 566.318 490.558C570.464 494.184 572.019 498.846 570.982 505.062C569.946 509.724 568.391 513.35 565.8 515.422C563.208 518.012 560.617 519.566 557.508 520.084C554.916 520.602 552.843 520.602 550.77 520.084C548.697 519.566 547.661 518.53 547.661 518.012C549.734 515.94 550.77 513.868 551.288 511.278C551.288 506.098 549.734 504.026 546.624 504.544C544.033 505.062 540.923 507.134 537.814 511.796C534.704 515.94 533.15 520.602 533.15 525.783C533.15 527.855 533.15 529.409 533.15 530.445C534.704 536.661 538.85 539.251 545.069 538.215C570.464 533.035 583.938 503.508 585.493 450.671Z" fill="#0090C9"/>
<path d="M818.189 537.697C831.664 510.76 838.919 476.571 838.919 434.094C839.438 391.617 833.218 360.536 820.262 340.334C823.89 339.816 826.481 337.744 828.036 335.154C829.591 332.046 830.109 329.974 829.591 328.42C828.554 329.456 826.999 330.492 824.926 331.01C822.335 331.528 819.226 331.528 816.116 330.492C813.007 329.456 810.415 328.42 807.824 326.866C794.868 317.023 779.32 314.433 759.626 319.095C740.451 323.758 724.385 334.118 711.947 349.658C709.356 352.248 706.764 354.838 703.137 357.428C700.027 360.018 696.918 361.572 694.845 362.091C692.772 362.609 691.217 362.609 690.18 361.573C689.144 363.645 689.662 365.717 691.217 367.789C692.772 369.861 695.363 370.379 698.991 369.343C684.998 396.279 677.742 430.986 676.706 472.945C675.669 514.904 681.888 546.503 695.363 567.223C692.772 567.741 690.699 568.777 689.144 570.331C687.589 571.886 686.553 573.44 686.034 575.512C685.516 577.066 685.516 578.62 686.034 579.656C687.071 578.102 688.626 577.066 690.699 577.066C693.29 576.548 696.399 576.548 699.509 577.584C702.618 578.62 705.21 580.174 707.801 581.728C720.239 592.088 736.305 594.678 755.999 590.016C775.174 585.354 791.758 574.476 805.233 558.417C807.306 555.309 809.897 552.719 813.525 550.129C816.634 547.539 819.744 545.985 822.335 545.467C823.89 544.949 825.445 545.467 827.518 545.985C828.036 543.913 828.036 542.359 826.481 539.769C823.89 537.179 821.299 536.661 818.189 537.697ZM790.203 493.148C790.203 502.472 789.685 512.314 786.576 521.638C786.576 523.71 786.057 525.264 785.539 526.818C785.021 528.373 783.984 530.445 783.466 531.999C782.948 534.071 781.911 536.661 780.875 538.733C774.656 556.345 766.364 566.705 755.48 569.295C746.152 571.368 737.86 565.151 731.122 550.647C724.385 535.625 721.276 506.098 722.312 462.067C722.312 455.851 722.83 448.081 723.349 439.792C721.794 434.612 722.312 428.914 723.867 423.216C723.867 422.698 723.867 422.698 724.385 422.18C724.385 421.662 724.385 421.662 724.385 421.144V420.626C724.903 418.036 724.903 415.446 725.422 412.856C725.422 411.302 725.422 409.748 725.422 408.194C726.458 398.351 728.013 386.437 731.641 376.077C732.159 372.969 733.714 369.861 735.268 366.753C735.268 366.235 735.787 366.235 735.787 365.717C735.787 365.717 735.268 365.717 735.268 366.235C740.969 350.694 748.743 341.888 759.108 339.298C768.955 337.226 776.729 342.924 783.984 357.428C790.722 371.933 793.831 401.459 793.313 445.491C793.313 462.067 792.276 478.125 790.203 493.148Z" fill="#0090C9"/>
<path d="M861.204 557.382C861.204 555.31 861.722 553.755 863.277 552.201C865.35 553.237 867.941 551.683 871.569 548.057C875.197 544.431 878.307 539.251 881.416 533.035C898.518 495.738 915.621 458.441 932.723 421.144C933.76 419.072 934.796 417 935.833 414.928C933.241 410.266 930.65 405.086 928.577 400.424C916.139 375.041 903.183 349.659 890.745 324.276C887.635 318.06 884.007 313.398 879.861 310.29C875.715 307.182 872.087 306.146 868.978 307.182C867.941 307.7 866.905 308.218 866.387 308.736C865.868 306.664 865.35 305.109 865.35 303.037C865.35 296.303 870.014 291.641 879.343 289.051C882.453 288.015 886.599 288.015 891.263 288.533C891.781 288.533 892.818 288.533 894.891 289.051C896.964 289.051 899.555 289.051 902.146 288.015C905.774 286.979 909.92 284.907 914.584 281.799C919.767 278.691 923.395 277.137 925.986 276.101C931.168 274.547 934.796 274.547 937.387 276.101C939.979 277.137 941.534 280.245 942.57 284.389C940.497 284.389 938.942 284.389 937.387 284.389C935.314 284.907 933.76 285.943 932.723 287.497C931.687 289.051 931.168 291.123 931.168 293.713C931.168 298.375 932.723 304.073 936.351 310.808C944.125 326.866 952.417 342.924 960.191 358.983C971.592 333.6 982.994 308.218 994.395 282.835C996.468 278.691 997.505 274.547 997.505 270.403C997.505 267.813 996.987 266.259 995.95 265.741C994.914 264.705 993.359 265.223 991.804 266.259C992.322 263.15 994.395 260.56 996.468 258.488C999.06 256.416 1002.17 255.38 1006.32 254.344C1008.91 253.826 1011.5 253.826 1013.57 254.344C1016.68 254.862 1019.27 254.862 1020.83 254.344C1023.42 253.826 1026.01 252.272 1028.6 250.718C1029.12 250.2 1030.15 249.682 1031.71 248.646C1033.26 247.61 1035.34 247.092 1036.89 246.574C1038.97 246.056 1040.52 246.056 1042.07 246.574C1043.63 247.092 1044.15 248.646 1044.15 250.2C1044.15 251.754 1043.63 253.308 1042.07 255.898C1040.52 254.862 1037.93 256.416 1034.3 260.042C1030.67 263.668 1027.05 268.849 1024.45 275.065C1007.87 312.362 991.286 349.659 974.183 386.955C974.183 387.473 974.184 387.473 973.665 387.991C976.775 394.208 979.884 400.942 982.994 407.158C995.95 432.541 1008.91 457.405 1021.86 482.788C1024.97 489.004 1028.6 493.666 1033.26 496.774C1037.41 499.882 1041.56 500.918 1044.67 499.882C1045.7 499.364 1046.74 498.846 1047.78 497.81C1048.29 499.882 1048.29 501.436 1048.29 502.472C1048.29 506.098 1047.26 509.206 1044.67 511.796C1042.07 514.387 1038.45 515.941 1034.3 517.495C1031.19 518.531 1027.05 518.531 1022.9 517.495C1018.24 516.977 1014.09 516.977 1010.46 518.013C1007.35 519.049 1003.21 520.603 999.06 523.711C994.395 526.819 990.249 528.891 986.622 529.927C981.439 531.481 977.293 531.481 975.22 529.927C972.629 528.373 971.074 525.783 970.037 521.121C972.11 521.121 973.665 521.121 975.22 520.603C979.366 519.567 981.439 516.459 981.439 511.278C981.439 506.616 979.884 501.436 976.257 494.184C967.446 476.572 958.636 459.477 950.344 441.865C937.906 468.801 925.986 496.256 913.548 523.193C910.957 528.373 909.92 532.517 909.92 536.143C909.92 538.733 910.438 540.287 911.475 540.805C912.511 541.323 914.066 541.323 916.139 540.287C915.103 545.985 909.92 550.129 901.11 552.201C899.037 552.719 896.445 552.719 893.336 552.201C891.263 551.683 889.19 551.683 886.08 552.201C882.971 552.719 880.38 554.273 878.306 555.827C877.788 556.346 876.752 556.864 875.197 557.9C873.642 558.936 871.569 559.454 870.014 559.972C867.941 560.49 865.868 560.49 864.832 559.972C862.241 560.49 861.204 559.454 861.204 557.382Z" fill="#0090C9"/>
<path d="M1080.94 493.148C1080.94 492.63 1080.94 491.076 1081.46 489.004C1082.5 489.522 1084.05 489.522 1085.09 489.004C1088.2 487.968 1090.79 485.378 1093.38 480.716C1095.97 476.054 1097.01 469.837 1097.01 463.103C1097.01 443.937 1096.49 424.252 1096.49 405.086C1096.49 398.352 1094.94 392.136 1091.83 386.955C1088.72 381.775 1085.09 377.631 1080.94 375.041C1076.8 372.451 1072.65 371.933 1069.02 372.969C1067.47 373.487 1066.43 373.487 1065.91 374.005C1065.91 369.861 1067.47 365.717 1071.1 361.573C1074.72 357.429 1078.87 354.839 1083.54 353.803C1088.2 352.767 1092.35 353.285 1095.46 355.875C1095.46 328.938 1094.94 301.483 1094.94 274.547C1094.94 267.813 1093.38 262.632 1091.31 259.006C1088.72 255.38 1086.13 253.826 1083.02 254.862C1081.98 255.38 1080.43 255.898 1079.39 256.934C1078.87 255.38 1078.87 253.826 1078.87 252.79C1078.87 248.128 1080.43 243.984 1084.05 239.84C1087.68 235.696 1091.83 233.106 1097.01 231.552C1103.75 229.998 1109.45 232.07 1114.11 238.804C1115.67 231.552 1119.29 225.336 1123.44 219.119C1128.11 213.421 1134.32 208.759 1141.58 205.651C1142.1 205.651 1143.13 205.133 1143.65 205.133C1148.32 203.579 1152.46 204.097 1156.61 206.169C1160.76 208.241 1162.83 211.349 1163.35 216.011C1161.79 216.011 1160.76 216.011 1160.24 216.011C1156.09 217.047 1151.94 220.673 1147.28 226.372C1143.13 232.588 1140.54 238.804 1140.54 245.538C1141.06 278.173 1141.06 310.808 1141.58 342.924C1144.69 338.78 1148.84 336.19 1153.5 335.154C1158.16 334.118 1162.31 334.636 1165.94 336.708C1169.57 338.78 1171.64 342.406 1171.64 346.55C1171.12 346.55 1170.08 346.55 1169.05 347.068C1165.42 348.105 1161.27 350.695 1157.13 355.357C1152.98 360.019 1149.35 365.717 1146.24 372.451C1143.13 379.185 1142.1 385.919 1142.1 392.654C1142.1 411.82 1142.62 431.505 1142.62 450.671C1142.62 457.405 1144.17 462.585 1146.76 466.211C1149.35 469.837 1151.94 471.391 1155.05 470.355C1156.61 469.837 1157.65 469.319 1158.68 468.283C1159.2 469.837 1159.2 471.391 1159.2 471.909C1159.2 475.536 1158.16 479.162 1155.05 481.752C1152.46 484.86 1148.84 486.414 1144.17 487.968C1140.54 489.004 1136.4 489.004 1131.73 488.486C1127.59 487.45 1123.44 487.968 1119.81 488.486C1116.7 489.522 1112.56 491.076 1107.89 494.184C1103.23 497.292 1099.08 499.364 1095.46 500.4C1090.79 501.436 1087.16 501.436 1084.57 499.882C1082.5 499.882 1080.94 497.292 1080.94 493.148Z" fill="#0090C9"/>
<path d="M1426.1 326.348C1426.62 348.622 1427.66 370.897 1428.17 393.171C1428.17 399.906 1429.73 405.086 1432.32 409.23C1434.91 412.856 1437.5 414.928 1440.61 414.41C1442.17 414.41 1443.2 413.892 1444.24 412.856C1444.76 414.928 1445.28 416.482 1445.28 417.518C1445.28 421.144 1444.24 424.252 1441.65 426.324C1439.06 428.914 1435.43 430.468 1431.28 430.986C1427.66 431.504 1423.51 431.504 1418.85 429.95C1418.33 429.95 1416.77 429.432 1414.7 429.432C1412.11 428.914 1409.52 429.432 1406.93 429.432C1403.82 429.95 1401.23 430.468 1399.15 432.022C1396.56 433.058 1395.52 433.576 1395.01 434.094C1390.34 436.684 1386.2 438.239 1382.57 439.275C1377.9 440.311 1374.28 439.793 1371.68 438.238C1369.09 436.684 1367.54 434.094 1367.54 430.468C1367.54 429.432 1367.54 427.878 1368.06 426.324C1369.09 426.842 1370.65 426.842 1371.68 426.842C1374.79 426.324 1377.9 423.734 1379.98 419.072C1382.05 414.41 1383.09 408.712 1383.09 401.978C1382.57 388.509 1382.57 375.041 1382.05 361.573C1382.05 356.911 1380.49 352.248 1378.42 348.622C1375.83 344.996 1373.24 341.888 1370.13 340.334C1367.02 338.78 1364.43 338.78 1361.84 339.816C1361.84 337.226 1362.87 334.118 1365.47 331.528C1368.06 328.938 1370.65 327.384 1373.76 326.866C1376.35 326.348 1378.94 326.866 1381.53 328.938C1380.49 293.713 1379.46 258.488 1378.42 223.263C1368.06 231.034 1359.25 242.43 1351.99 256.934C1344.22 271.956 1338.52 288.533 1334.89 307.181C1330.74 325.83 1329.19 344.478 1329.71 363.127C1329.71 363.127 1329.71 363.127 1329.71 363.645C1330.22 367.789 1330.74 370.379 1330.74 372.451C1331.26 391.099 1323.49 406.64 1306.9 419.59C1301.2 424.252 1296.02 426.842 1290.84 427.878C1284.62 428.914 1279.95 428.396 1275.29 425.806C1271.14 423.216 1267.52 419.59 1264.92 415.446C1262.33 411.302 1261.3 407.676 1261.3 404.568C1262.33 405.086 1264.41 405.086 1267.52 404.05C1272.7 403.014 1277.36 400.424 1281.51 395.761C1285.65 391.617 1287.21 385.401 1287.21 378.149C1287.21 366.753 1281.51 353.284 1270.63 337.744C1259.74 321.686 1250.41 305.109 1243.16 286.979C1243.68 310.289 1244.19 333.6 1244.19 356.911C1246.27 354.32 1248.86 352.766 1251.45 352.248C1254.56 351.73 1257.15 352.248 1259.74 353.802C1262.33 355.357 1263.37 357.429 1263.37 360.537C1260.78 360.019 1258.19 361.573 1255.08 364.163C1251.97 367.271 1249.38 370.897 1247.3 375.559C1245.23 380.221 1244.19 384.883 1244.19 390.063C1244.71 407.676 1244.71 425.806 1245.23 443.419C1245.23 449.117 1246.79 452.743 1248.86 455.333C1250.93 457.405 1253.52 457.923 1256.11 455.851C1257.15 458.441 1256.63 461.549 1255.08 463.621C1253 466.211 1250.41 467.765 1246.79 468.283C1244.71 468.801 1243.16 468.801 1241.6 468.801C1240.05 468.801 1239.01 468.801 1238.49 468.283C1235.38 467.765 1232.79 467.765 1230.72 468.283C1229.16 468.801 1227.61 469.319 1225.54 470.355C1223.98 471.391 1222.95 471.909 1222.43 471.909C1219.84 473.981 1216.73 475.017 1214.14 475.535C1210.51 476.571 1207.92 476.053 1205.84 474.499C1203.77 472.945 1203.25 470.355 1204.29 467.247C1206.88 468.283 1208.95 466.729 1211.03 463.621C1213.1 460.513 1214.14 455.851 1214.14 450.153C1213.62 423.734 1213.1 397.316 1212.58 370.379C1212.58 365.717 1211.54 361.055 1208.95 357.429C1206.88 353.802 1203.77 351.212 1200.66 349.658C1197.55 348.104 1194.96 348.104 1192.37 349.658C1192.37 347.068 1193.41 343.96 1196 341.37C1198.07 338.78 1201.18 337.226 1204.29 336.708C1206.88 336.19 1209.47 336.708 1212.06 338.262C1211.54 303.037 1211.03 267.812 1210.51 232.07C1210.51 226.371 1209.47 222.745 1206.88 220.155C1204.81 218.083 1202.22 217.565 1200.14 219.637C1199.11 217.047 1199.62 213.939 1201.18 211.867C1203.25 209.277 1205.84 207.723 1209.47 207.205C1211.03 206.687 1212.58 206.687 1214.14 206.687C1215.69 206.687 1216.73 206.687 1217.76 206.687C1226.06 206.169 1233.31 205.651 1240.05 204.097C1241.08 203.579 1244.19 202.543 1248.86 199.953C1255.6 196.845 1259.74 194.773 1261.81 194.255C1262.33 194.255 1262.85 194.255 1263.37 193.737C1265.96 193.219 1267.52 193.219 1268.55 193.737C1267.52 197.881 1267 203.061 1267 209.795C1267 221.191 1269.59 233.106 1274.25 246.574C1278.92 260.042 1285.14 273.511 1293.43 287.497C1297.06 293.195 1300.17 298.893 1303.79 304.591C1306.38 282.317 1314.68 259.524 1328.67 235.696C1342.66 212.385 1358.21 190.629 1375.83 171.98C1378.42 171.462 1381.01 171.462 1383.09 171.98C1385.16 172.498 1386.71 172.498 1387.23 172.498C1391.9 173.534 1396.04 174.052 1399.15 173.534C1401.74 173.016 1404.33 172.498 1406.93 171.462C1409 170.426 1410.55 169.908 1411.07 169.39C1415.74 166.8 1419.88 165.246 1423.51 164.728C1427.66 164.21 1431.28 164.728 1433.88 166.282C1436.47 167.836 1438.02 170.426 1438.02 174.052C1438.02 174.57 1438.02 176.124 1437.5 178.714C1436.47 178.196 1434.91 178.196 1433.88 178.196C1430.77 178.714 1428.17 181.304 1426.1 185.966C1424.03 190.629 1422.99 196.327 1422.99 203.061C1424.03 234.142 1425.06 265.222 1426.1 296.303C1428.69 293.713 1431.28 292.159 1433.88 292.159C1436.98 291.641 1439.58 292.159 1442.17 293.713C1444.76 295.267 1445.79 297.339 1445.79 300.447C1443.2 299.929 1440.61 300.965 1437.5 303.555C1434.39 306.145 1431.8 309.771 1429.73 314.434C1427.14 317.024 1426.1 321.686 1426.1 326.348Z" fill="#0090C9"/>
<path d="M1460.31 423.734C1461.86 424.252 1462.9 424.252 1463.42 423.734C1468.08 423.216 1472.23 420.108 1476.37 414.41C1480.52 408.712 1482.59 402.496 1482.59 395.761C1480.52 337.226 1478.44 279.209 1476.37 220.673C1476.37 217.047 1475.34 213.939 1473.78 211.867C1472.23 209.795 1470.15 207.205 1467.04 204.615C1469.63 204.097 1472.23 203.061 1474.82 200.471C1477.41 198.399 1480 194.773 1482.59 189.592C1488.81 178.196 1498.66 167.836 1512.65 159.548C1526.12 151.26 1539.08 146.597 1550.48 145.561C1561.88 144.525 1574.84 147.115 1589.35 153.332C1603.86 159.548 1614.23 167.836 1621.48 178.196C1624.59 182.858 1627.18 185.966 1629.77 188.038C1632.37 190.11 1634.96 190.628 1638.07 190.628C1635.48 193.737 1633.4 196.327 1631.85 198.917C1630.29 201.507 1629.77 204.097 1630.29 208.241C1632.88 266.776 1635.48 324.794 1638.07 383.329C1638.07 387.991 1639.62 392.135 1641.69 395.761C1643.77 399.387 1646.88 402.496 1649.99 404.568C1653.1 406.64 1656.21 407.676 1658.8 407.676C1659.32 407.676 1660.35 407.158 1661.91 407.158C1661.91 411.82 1659.83 415.446 1656.21 418.554C1652.58 421.662 1647.91 423.216 1642.73 423.216C1641.69 423.216 1641.18 423.216 1641.18 422.698C1633.4 422.18 1626.67 419.59 1622 415.446C1616.82 410.784 1613.19 405.604 1611.12 398.869C1606.97 406.64 1601.79 410.784 1594.53 411.302C1589.35 411.82 1584.69 410.266 1581.06 407.158C1577.43 404.05 1575.36 400.423 1575.36 396.279C1575.36 395.243 1575.36 393.689 1575.88 392.135C1576.91 392.653 1578.47 393.171 1579.5 393.171C1582.61 393.171 1585.72 390.581 1587.8 386.437C1589.87 382.293 1590.91 376.595 1590.91 369.861C1590.39 352.248 1589.35 334.636 1588.83 317.023C1586.76 320.132 1583.65 321.686 1579.5 321.686C1576.91 321.686 1574.84 321.168 1572.77 320.132C1570.69 318.578 1569.66 317.023 1569.66 315.469C1571.21 316.505 1573.29 315.987 1575.36 314.951C1577.43 313.915 1578.99 311.843 1580.02 308.735C1581.06 305.627 1581.06 302.519 1580.54 298.893C1578.99 292.159 1576.39 287.497 1571.73 284.389C1567.58 281.281 1561.88 280.245 1555.66 280.763C1549.45 281.281 1544.26 283.353 1540.12 286.979C1535.97 290.605 1533.38 295.785 1532.34 302.519C1532.34 303.555 1532.34 304.591 1532.34 305.627C1532.34 310.289 1533.9 313.915 1537.01 316.505C1539.6 318.577 1542.71 319.096 1545.3 317.541C1545.3 319.614 1544.26 321.168 1542.71 322.722C1540.64 324.276 1538.56 325.312 1535.97 325.83C1532.86 326.348 1529.75 324.794 1527.16 322.722C1527.68 340.334 1528.72 357.946 1529.23 375.559C1529.23 382.293 1530.79 387.473 1533.38 391.617C1535.97 395.761 1539.08 397.315 1542.19 397.315C1543.23 397.315 1544.26 396.797 1545.3 395.761C1545.82 397.833 1546.34 398.869 1546.34 399.905C1546.34 404.568 1544.78 408.194 1541.67 411.82C1538.56 415.446 1533.9 417.518 1529.23 417.518C1521.98 418.036 1516.28 414.928 1511.61 407.676C1510.06 414.41 1506.95 420.626 1502.28 425.806C1497.62 430.986 1491.4 434.612 1483.63 436.166C1483.63 436.166 1482.59 436.684 1482.07 436.684C1476.89 437.202 1472.74 436.166 1468.6 434.094C1463.42 431.504 1461.34 427.878 1460.31 423.734ZM1525.09 278.173C1530.79 266.258 1540.63 260.042 1555.15 258.488C1569.14 257.452 1580.02 262.114 1586.76 272.992C1586.24 255.898 1585.2 238.286 1584.69 221.191C1583.65 202.543 1580.54 188.038 1574.32 177.16C1568.1 166.8 1560.85 161.62 1551.52 162.138C1542.19 162.656 1534.93 168.872 1529.75 180.268C1524.57 191.664 1522.5 206.687 1523.01 225.335C1524.05 243.466 1524.57 260.56 1525.09 278.173Z" fill="#0090C9"/>
<path d="M280.76 657.358C280.76 656.322 281.278 654.768 281.796 653.214C282.833 653.732 283.869 654.25 284.906 654.25C288.015 654.25 291.125 652.178 293.716 647.516C296.307 643.372 297.862 637.673 297.862 630.939C300.972 565.67 303.563 500.4 306.672 435.131C307.191 428.396 306.154 422.698 304.081 418.554C302.008 414.41 299.417 412.338 296.307 412.338C295.271 412.338 293.716 412.856 292.68 413.374C292.161 410.784 292.161 409.23 292.161 408.712C292.161 405.086 293.716 402.496 296.826 399.906C299.417 397.834 303.045 396.798 307.191 396.28C310.818 396.28 314.965 396.798 319.629 398.87C320.147 398.87 321.702 399.388 323.775 399.906C325.848 400.424 328.439 400.942 331.549 400.942C334.14 400.942 338.804 399.906 345.542 398.352C356.425 395.762 364.199 394.208 370.418 393.69C384.411 392.654 397.367 394.726 409.287 399.906C421.207 405.086 431.053 414.41 438.309 427.36C445.565 440.829 449.192 458.441 448.156 481.234C447.119 503.508 442.973 522.675 434.163 537.697C425.871 552.719 414.988 564.116 402.549 571.886C389.593 579.138 376.637 583.282 362.644 584.318C360.053 584.318 356.943 584.318 353.834 583.282C350.724 582.246 348.133 581.21 347.096 579.656C346.578 596.233 345.542 612.291 345.023 628.867C344.505 635.601 345.542 641.3 348.133 645.444C350.206 649.588 353.315 651.66 356.425 651.142C357.461 651.142 358.498 650.624 359.534 650.106C360.053 652.178 360.053 653.214 360.053 654.25C360.053 657.876 358.498 660.984 355.388 663.056C352.797 665.128 349.169 666.682 344.505 666.682C340.877 666.682 336.731 666.164 332.067 664.61C331.549 664.61 329.994 664.092 327.921 663.574C325.33 663.056 322.738 662.538 320.147 663.056C317.038 663.056 314.446 663.574 312.373 664.61C309.782 665.646 308.745 666.164 308.227 666.164C303.563 668.236 298.899 669.272 295.789 669.272C291.643 669.272 288.015 668.236 285.424 666.164C281.796 664.092 280.76 660.984 280.76 657.358ZM398.403 523.711C398.922 519.049 398.403 514.387 396.849 510.243C395.294 506.098 393.221 502.99 390.111 500.918C387.002 498.846 384.411 498.328 382.338 499.364C382.338 496.774 383.892 494.184 385.965 491.594C388.557 489.522 391.148 487.968 394.257 487.968C397.367 487.968 399.958 488.486 402.031 490.558C402.031 488.486 402.031 487.45 402.549 486.414C404.622 433.059 392.703 407.676 366.79 409.748C357.98 410.266 353.315 418.036 352.797 433.577C351.242 465.693 350.206 497.81 348.651 529.927C352.797 523.711 359.016 520.085 366.79 519.567C373.009 519.049 378.191 520.603 382.338 524.747C386.484 528.373 388.038 533.553 387.002 539.769C385.965 544.431 384.411 547.539 381.819 550.129C379.228 552.201 376.637 553.756 373.527 553.756C370.936 553.756 368.863 553.756 366.79 552.72C364.717 551.683 363.68 551.165 363.68 550.129C365.753 548.575 366.79 546.503 367.308 543.913C367.308 541.323 367.308 539.251 366.272 538.215C365.235 537.179 364.199 536.143 363.162 536.661C360.571 536.661 357.461 538.733 354.352 542.877C351.242 547.021 349.688 551.165 349.169 555.828C349.169 556.864 349.169 558.418 349.688 561.008C351.242 567.742 354.87 570.85 361.089 570.332C379.746 568.26 392.184 552.719 398.403 523.711Z" fill="#E52522"/>
<path d="M562.172 559.971C559.58 560.489 556.471 560.489 553.361 559.971C550.252 559.453 547.66 558.417 546.106 557.381C545.587 573.44 545.069 590.016 544.551 606.074C544.551 612.809 545.587 618.507 547.66 622.133C550.252 625.759 552.843 627.831 555.952 627.313C557.507 627.313 558.544 626.277 559.58 625.759C560.099 627.313 560.099 628.867 560.099 629.385C560.099 633.011 558.544 636.119 555.952 639.227C553.361 641.817 549.215 643.371 545.069 644.407C541.441 644.925 537.295 644.925 532.631 643.889C527.449 642.853 523.821 642.853 520.711 643.371C517.602 643.889 513.456 645.443 508.273 648.033C507.755 648.551 506.2 649.07 504.127 650.106C501.536 651.142 498.945 652.178 495.835 652.178C491.171 652.696 487.543 652.178 484.952 650.624C482.36 649.069 480.806 645.961 481.324 642.335C481.324 641.817 481.842 640.263 482.36 638.191C483.397 638.709 484.952 638.709 485.988 638.709C489.098 638.191 492.207 635.601 494.799 630.939C497.39 626.277 498.945 620.579 498.945 613.845C501.018 548.575 503.091 483.306 505.164 418.554C505.164 411.82 504.127 406.122 502.054 402.496C499.981 398.351 496.872 396.797 493.762 397.315C492.726 397.315 491.171 397.833 490.134 398.869C489.616 396.797 489.616 395.761 489.616 394.725C489.616 391.099 491.171 387.991 493.762 385.401C496.353 382.811 499.981 381.257 504.645 380.739C507.755 380.221 510.346 380.221 512.937 380.739C515.01 381.257 516.565 381.257 517.083 381.775C521.748 382.811 525.894 383.329 529.003 382.811C531.595 382.293 536.259 380.739 542.996 378.667C553.361 375.041 561.653 372.451 567.872 371.415C581.865 368.825 594.822 369.861 606.741 373.487C618.661 377.631 628.508 385.401 636.282 398.351C644.056 410.784 647.165 428.396 646.647 450.671C646.129 471.391 642.501 489.004 635.764 503.508C629.026 518.53 619.698 530.445 608.296 540.287C607.778 555.827 609.851 570.85 613.479 585.354C617.106 599.858 622.807 611.773 629.545 621.097C636.282 630.421 643.537 635.083 651.311 635.601C651.829 635.601 653.384 635.601 654.939 635.083C658.049 634.565 660.64 633.011 662.195 630.421C663.749 627.831 664.786 625.241 664.786 622.651C664.786 618.507 663.749 616.435 661.158 616.435C662.713 614.881 664.786 613.327 667.895 612.809C671.005 612.291 673.596 612.291 676.187 613.327C678.779 614.363 679.815 615.917 680.852 618.507C681.37 620.579 681.37 622.133 681.37 623.169C681.37 630.939 677.742 638.709 671.005 645.961C664.268 653.214 656.494 657.876 647.683 659.43C630.581 663.056 615.552 659.948 603.632 650.106C591.194 640.263 581.865 626.795 575.646 610.737C567.872 593.124 563.726 576.548 562.172 559.971ZM600.522 457.923C602.077 404.568 589.639 380.739 564.245 385.401C555.434 386.955 550.77 395.243 550.252 410.784C549.215 442.901 548.179 475.017 547.66 507.134C552.325 500.4 558.544 496.256 565.799 494.702C572.018 493.666 577.201 494.702 581.347 498.328C585.493 501.436 587.048 506.616 586.011 512.832C584.975 517.494 583.42 521.12 580.829 523.71C578.237 526.301 575.646 527.855 572.537 528.373C569.945 528.891 567.872 528.891 565.799 528.373C563.726 527.855 562.69 526.819 562.69 526.301C564.763 524.228 565.799 522.156 566.318 519.566C566.318 514.386 564.763 512.314 561.653 512.832C559.062 513.35 555.952 515.94 552.843 520.084C549.733 524.229 548.179 528.891 548.179 534.071C548.179 536.143 548.179 537.697 548.179 538.733C549.733 544.949 553.879 547.539 560.099 546.503C585.493 540.287 599.486 511.278 600.522 457.923Z" fill="#E52522"/>
<path d="M833.737 543.913C847.211 516.976 854.467 482.787 854.467 440.31C854.985 397.833 848.248 366.753 835.291 346.55C838.919 346.032 841.51 343.96 843.065 341.37C844.62 338.262 845.138 336.19 844.102 334.636C843.065 335.672 841.51 336.708 839.437 337.226C836.846 337.744 833.737 337.744 830.627 336.708C827.518 335.672 824.926 334.636 822.335 333.082C809.379 323.24 793.313 321.167 774.137 325.83C754.962 330.492 738.896 340.852 726.458 356.392C723.867 358.982 721.276 361.572 717.648 364.162C714.538 366.753 711.429 368.307 709.356 368.825C707.283 369.343 705.728 369.343 704.691 368.307C703.655 370.379 704.173 372.451 705.728 374.523C707.283 376.595 709.874 377.113 713.502 376.077C699.509 403.013 692.253 437.72 691.735 479.679C690.699 521.638 696.918 553.237 710.392 573.957C707.801 574.476 705.728 575.512 704.173 577.066C702.618 578.62 701.582 580.174 701.064 582.246C700.545 583.8 700.545 585.354 701.064 586.39C702.1 584.836 703.655 583.8 705.728 583.8C708.319 583.282 711.429 583.282 714.538 584.318C717.648 585.354 720.757 586.908 722.83 588.462C735.268 598.822 751.334 601.412 771.028 596.75C790.203 592.088 806.787 581.21 820.262 564.633C822.335 561.525 824.926 558.935 828.554 556.345C831.664 553.755 834.773 552.201 837.364 551.683C838.919 551.165 840.474 551.165 842.547 552.201C843.065 550.129 843.065 548.575 841.511 545.985C839.956 543.395 837.364 542.877 833.737 543.913ZM796.941 546.503C796.422 547.021 795.904 548.057 795.904 548.575C789.685 564.633 781.911 573.957 771.546 576.548C762.218 578.62 753.926 572.404 747.188 557.899C740.451 542.877 737.341 513.35 737.86 469.319C737.86 459.477 738.896 447.044 739.933 432.022C739.933 432.54 740.451 433.058 740.451 434.094C740.451 418.036 744.079 401.459 748.225 384.365C748.743 380.221 749.78 376.077 751.853 371.933C751.334 371.933 751.334 372.451 750.816 372.451C756.517 356.91 764.291 348.104 774.656 345.514C784.503 342.924 792.276 349.14 799.532 363.644C806.269 378.149 809.379 407.676 809.379 451.707C809.379 465.175 808.342 478.125 807.306 491.076C807.306 509.206 805.751 527.854 796.941 546.503Z" fill="#E52522"/>
<path d="M877.27 563.597C877.27 561.525 877.788 559.971 879.343 558.417C881.416 559.453 884.007 557.899 887.635 554.273C891.263 550.647 894.372 545.467 897.482 539.251C914.584 501.954 931.687 464.657 948.271 427.36C949.307 425.288 950.344 423.216 951.38 421.144C948.789 416.482 946.198 411.302 944.125 406.64C931.168 381.257 918.73 355.874 906.292 330.492C903.183 324.276 899.555 319.613 895.409 316.505C891.263 313.397 887.635 312.361 884.526 313.397C883.489 313.915 882.453 314.433 881.934 314.951C881.416 312.879 880.898 311.325 880.898 309.253C880.898 302.519 885.562 297.857 894.891 295.267C898 294.231 902.146 294.231 906.81 294.749C907.329 294.749 908.365 294.749 910.438 295.267C912.511 295.267 915.103 295.267 917.694 294.231C921.322 293.195 925.468 291.123 930.132 288.015C935.314 284.907 938.942 283.353 941.533 282.317C946.716 280.763 950.344 280.763 952.935 282.317C955.526 283.353 957.081 286.461 958.118 290.605C956.045 290.605 954.49 290.605 952.935 290.605C950.862 291.123 949.307 292.159 948.271 293.713C947.234 295.267 946.716 297.339 946.716 299.929C946.716 304.591 948.271 310.289 951.899 317.023C959.672 333.082 967.964 349.14 975.738 365.199C987.14 339.816 998.541 314.433 1009.94 289.051C1012.02 284.907 1013.05 280.763 1013.05 276.618C1013.05 274.028 1012.53 272.474 1011.5 271.956C1010.46 270.92 1008.91 271.438 1007.35 272.474C1007.87 269.366 1009.94 266.776 1012.02 264.704C1014.61 262.632 1017.72 261.596 1021.86 260.56C1024.45 260.042 1027.05 260.042 1029.12 260.56C1032.23 261.078 1034.82 261.078 1036.37 260.56C1038.97 260.042 1041.56 258.488 1044.15 256.934C1044.67 256.416 1045.7 255.898 1047.26 254.862C1048.81 253.826 1050.89 253.308 1052.44 252.79C1054.51 252.272 1056.07 252.272 1057.62 252.79C1059.18 253.308 1059.7 254.862 1059.7 256.416C1059.7 257.97 1059.18 259.524 1057.62 262.114C1056.07 261.078 1053.48 262.632 1049.85 266.258C1046.22 269.884 1042.59 275.064 1040 281.281C1023.42 318.577 1006.83 355.874 990.249 393.171C990.249 393.689 990.249 393.689 989.731 394.207C992.841 400.423 995.95 406.64 999.06 413.374C1012.02 438.756 1024.97 463.621 1037.93 489.004C1041.04 495.22 1044.67 499.882 1049.33 502.99C1053.48 506.098 1057.62 507.134 1060.73 506.098C1061.77 505.58 1062.8 505.062 1063.84 504.026C1064.36 506.098 1064.36 507.652 1064.36 508.688C1064.36 512.314 1063.32 515.422 1060.73 518.012C1058.14 520.602 1054.51 522.156 1050.37 523.71C1047.26 524.746 1043.11 524.746 1038.97 523.71C1034.3 523.192 1030.15 523.192 1026.53 524.228C1023.42 525.264 1019.27 526.818 1015.13 529.926C1010.46 533.035 1006.32 535.107 1002.69 536.143C997.505 537.697 993.359 537.697 991.286 536.143C988.695 534.589 987.14 531.999 986.103 527.336C988.176 527.336 989.731 527.336 991.286 526.818C995.432 525.782 997.505 522.674 997.505 517.494C997.505 512.832 995.95 507.652 992.322 500.4C983.512 482.787 974.702 465.693 966.41 448.081C953.972 475.017 942.052 502.472 929.614 529.409C927.022 534.589 925.986 538.733 925.986 542.359C925.986 544.949 926.504 546.503 927.541 547.021C928.577 547.539 930.132 547.539 932.205 546.503C931.168 552.201 925.986 556.345 917.176 558.417C915.103 558.935 912.511 558.935 909.402 558.417C907.329 557.899 905.256 557.899 902.146 558.417C899.037 558.935 896.445 560.489 894.372 562.043C893.854 562.561 892.818 563.079 891.263 564.115C889.708 565.151 887.635 565.669 886.08 566.187C884.007 566.705 881.934 566.705 880.898 566.187C877.788 566.705 877.27 565.669 877.27 563.597Z" fill="#E52522"/>
<path d="M1097.01 499.364C1097.01 498.846 1097.01 497.292 1097.53 495.22C1098.56 495.738 1100.12 495.738 1101.16 495.22C1104.27 494.184 1106.86 491.594 1109.45 486.932C1112.04 482.269 1113.08 476.053 1113.08 469.319C1113.08 450.153 1112.56 430.468 1112.56 411.302C1112.56 404.568 1111 398.351 1107.89 393.171C1104.78 387.991 1101.16 383.847 1097.01 381.257C1092.86 378.667 1088.72 378.149 1085.09 378.667C1083.54 379.185 1082.5 379.185 1081.98 379.703C1081.98 375.559 1083.54 371.415 1087.16 367.271C1090.79 363.127 1094.94 360.537 1099.6 359.501C1104.27 358.464 1108.41 358.983 1111.52 361.573C1111 334.636 1111 307.181 1110.48 280.245C1110.48 273.51 1108.93 268.33 1106.86 264.704C1104.27 261.078 1101.67 259.524 1098.56 260.56C1097.53 261.078 1095.97 261.596 1094.94 262.632C1094.42 261.078 1094.42 259.524 1094.42 258.488C1094.42 253.826 1095.97 249.682 1099.6 245.538C1103.23 241.394 1107.37 238.804 1112.56 237.768C1119.29 236.214 1125 238.286 1129.66 245.02C1131.21 237.768 1134.84 231.551 1138.99 225.335C1143.65 219.637 1149.87 214.975 1157.13 212.385C1157.65 212.385 1158.68 211.867 1159.2 211.867C1163.86 210.313 1168.01 210.831 1172.16 212.903C1176.3 214.975 1178.38 218.083 1178.89 222.745C1177.34 222.745 1176.3 222.745 1175.78 222.745C1171.64 223.781 1167.49 227.407 1162.83 233.105C1158.68 239.322 1156.09 245.538 1156.61 252.272C1157.13 284.907 1157.65 317.542 1157.65 349.658C1160.76 345.514 1164.9 342.924 1169.57 341.888C1174.23 340.852 1178.38 341.37 1182 343.442C1185.63 345.514 1187.7 349.14 1187.7 353.284C1187.19 353.284 1186.15 353.284 1185.11 353.802C1181.49 354.838 1177.34 357.428 1173.19 362.091C1169.05 366.753 1165.42 372.451 1162.31 379.185C1159.2 385.919 1158.16 392.653 1158.16 399.387C1158.16 418.554 1158.68 438.238 1158.68 457.405C1158.68 464.139 1160.24 469.319 1162.83 472.945C1165.42 476.571 1168.01 478.125 1171.12 477.089C1172.67 476.571 1173.71 476.053 1174.75 475.017C1175.27 476.571 1175.27 478.125 1175.27 478.643C1175.27 482.269 1174.23 485.896 1171.12 488.486C1168.53 491.594 1164.9 493.148 1160.24 494.702C1156.61 495.738 1152.46 495.738 1147.8 495.22C1143.65 494.184 1139.51 494.702 1135.88 495.22C1132.77 496.256 1128.62 497.81 1123.96 500.918C1119.29 504.026 1115.15 506.098 1111.52 507.134C1106.86 508.17 1103.23 508.17 1100.64 506.616C1098.05 506.098 1097.01 503.508 1097.01 499.364Z" fill="#E52522"/>
<path d="M1442.17 334.636C1442.69 356.91 1443.72 379.185 1444.24 401.46C1444.24 408.194 1445.8 413.374 1448.39 417.518C1450.98 421.144 1453.57 423.216 1456.68 422.698C1458.23 422.698 1459.27 422.18 1460.31 421.144C1460.82 423.216 1461.34 424.77 1461.34 425.806C1461.34 429.432 1460.31 432.54 1457.71 434.612C1455.12 437.202 1451.5 438.756 1447.35 439.274C1443.72 439.792 1439.58 439.274 1434.91 438.238C1434.39 438.238 1432.84 437.72 1430.77 437.72C1428.17 437.202 1425.58 437.202 1422.99 437.72C1419.88 438.238 1417.29 438.756 1415.22 439.792C1412.63 440.829 1411.59 441.347 1411.07 441.865C1406.41 444.455 1402.26 446.009 1398.63 446.527C1393.97 447.045 1390.34 447.045 1387.75 445.491C1385.16 443.937 1383.6 441.347 1383.6 437.202C1383.6 436.166 1383.6 434.612 1384.12 433.058C1385.16 433.576 1386.71 433.576 1387.75 433.576C1390.86 433.058 1393.97 430.468 1396.04 425.806C1398.12 421.144 1399.15 415.446 1399.15 408.712C1398.63 395.243 1398.12 381.775 1398.12 368.307C1398.12 363.645 1396.56 358.983 1394.49 355.356C1391.9 351.73 1389.31 348.622 1386.2 347.068C1383.09 345.514 1380.5 344.996 1377.9 346.55C1377.9 343.96 1378.94 340.852 1381.53 338.78C1384.12 336.19 1386.71 334.636 1389.82 334.118C1392.41 333.6 1395.01 334.118 1397.6 336.19C1396.56 300.965 1395.52 265.74 1394.49 230.515C1384.12 238.286 1375.31 249.164 1368.06 264.186C1360.28 279.209 1354.58 295.785 1350.95 314.434C1346.81 333.082 1345.25 351.73 1345.77 370.379C1345.77 370.379 1345.77 370.379 1345.77 370.897C1346.29 375.041 1346.81 377.631 1346.81 379.703C1347.33 398.352 1339.55 413.892 1322.97 426.324C1317.27 430.986 1312.09 433.576 1306.9 434.612C1300.68 435.648 1296.02 435.13 1291.36 432.022C1287.21 429.432 1283.58 425.806 1280.99 421.144C1278.4 417 1277.36 413.374 1277.36 410.266C1278.4 410.784 1280.47 410.784 1283.58 410.266C1288.76 409.23 1293.43 406.64 1297.57 402.496C1301.72 398.352 1303.28 392.653 1303.28 384.883C1303.28 373.487 1297.57 360.019 1286.69 344.478C1275.81 328.42 1266.48 311.325 1259.22 293.195C1259.74 316.506 1260.26 339.816 1260.78 363.127C1262.85 360.537 1265.44 358.983 1268.03 358.465C1271.14 357.947 1273.73 358.465 1276.33 360.019C1278.92 361.573 1279.95 363.645 1280.47 366.753C1277.88 366.235 1275.29 367.789 1272.18 370.379C1269.07 373.487 1266.48 377.113 1264.41 381.775C1262.33 386.437 1261.3 391.099 1261.3 396.279C1261.81 413.892 1261.81 432.022 1262.33 449.635C1262.33 455.333 1263.89 458.959 1265.96 461.549C1268.03 463.621 1270.63 464.139 1273.22 462.067C1274.25 464.657 1273.73 467.765 1272.18 469.837C1270.11 472.427 1267.52 473.981 1263.89 474.499C1261.81 475.017 1260.26 475.017 1258.71 475.017C1257.15 475.017 1256.11 475.017 1255.6 474.499C1252.49 473.981 1249.89 473.981 1247.82 474.499C1246.27 475.017 1244.71 475.535 1242.64 476.571C1241.08 477.607 1240.05 478.125 1239.53 478.125C1236.94 480.197 1233.83 481.233 1231.24 481.751C1227.61 482.788 1225.02 482.27 1222.95 480.715C1220.87 479.161 1220.35 476.571 1221.39 473.463C1223.98 474.499 1226.06 472.945 1228.13 469.837C1230.2 466.729 1231.24 462.067 1231.24 456.369C1230.72 429.95 1230.2 403.532 1229.68 376.595C1229.68 371.933 1228.65 367.271 1226.06 363.645C1223.98 360.019 1220.87 357.429 1217.76 355.874C1214.65 354.32 1212.06 354.32 1209.47 355.874C1209.47 353.284 1210.51 350.176 1213.1 348.104C1215.17 345.514 1218.28 343.96 1221.39 343.442C1223.98 342.924 1226.57 343.442 1229.16 344.996C1228.65 309.771 1228.13 274.547 1227.09 239.322C1227.09 233.624 1226.06 229.997 1223.46 227.407C1221.39 225.335 1218.8 224.817 1216.73 226.889C1215.69 224.299 1216.21 221.191 1217.76 219.119C1219.84 216.529 1222.43 214.975 1226.06 214.457C1227.61 213.939 1229.16 213.939 1230.72 213.939C1232.27 213.939 1233.31 213.939 1234.35 213.939C1242.64 213.939 1249.9 212.903 1256.63 211.349C1257.67 210.831 1260.78 209.795 1265.44 207.205C1272.18 204.097 1276.33 202.025 1278.4 201.507C1278.92 201.507 1279.44 201.507 1279.95 200.989C1282.55 200.471 1284.1 200.471 1285.14 201.507C1284.1 205.651 1283.58 210.831 1283.58 217.565C1283.58 228.961 1286.17 240.876 1290.84 254.344C1295.5 267.812 1301.72 281.281 1310.01 295.267C1313.64 300.965 1316.75 306.663 1320.38 312.361C1322.97 290.087 1331.26 267.294 1345.25 243.984C1358.73 220.673 1374.79 199.435 1392.41 180.786C1395.01 180.268 1397.6 180.268 1399.67 180.786C1401.74 181.304 1403.3 181.304 1403.82 181.304C1408.48 182.34 1412.63 182.858 1415.74 182.34C1418.33 181.822 1420.92 181.304 1423.51 180.268C1425.58 179.232 1427.14 178.714 1427.66 178.196C1432.32 175.606 1436.47 174.052 1440.09 173.534C1444.24 173.016 1447.87 173.534 1450.46 175.088C1453.05 176.642 1454.61 179.232 1454.61 182.858C1454.61 183.376 1454.61 184.93 1454.09 187.52C1453.05 187.002 1451.5 187.002 1450.46 187.002C1447.35 187.52 1444.76 190.11 1442.69 194.255C1440.61 198.917 1439.58 204.615 1439.58 211.349C1440.61 242.43 1441.65 273.511 1442.69 304.591C1445.28 302.001 1447.87 300.447 1450.46 300.447C1453.57 299.929 1456.16 300.447 1458.75 302.519C1461.34 304.073 1462.38 306.663 1462.38 309.253C1459.79 308.735 1457.2 309.771 1454.09 312.361C1450.98 314.952 1448.39 318.578 1446.31 323.24C1443.2 324.794 1442.17 329.456 1442.17 334.636Z" fill="#E52522"/>
<path d="M1476.89 432.023C1478.44 432.541 1479.48 432.541 1480 432.541C1484.66 432.023 1488.81 428.914 1492.96 423.734C1497.1 418.554 1499.17 412.338 1499.17 405.086C1497.1 346.55 1495.03 288.533 1492.96 229.998C1492.96 226.372 1491.92 223.264 1490.36 221.191C1488.81 219.119 1486.74 216.529 1483.63 213.939C1486.22 213.421 1488.81 212.385 1491.4 209.795C1493.99 207.723 1496.58 204.097 1499.17 198.917C1505.39 187.521 1515.24 177.678 1529.23 169.39C1542.71 161.102 1555.66 156.958 1567.07 155.922C1578.47 154.886 1591.42 157.994 1605.94 164.21C1620.45 170.426 1630.81 179.232 1638.07 189.593C1641.18 194.255 1643.77 197.363 1646.36 199.435C1648.95 201.507 1651.54 202.543 1654.65 202.543C1652.06 205.651 1649.99 208.241 1648.43 210.831C1646.88 213.421 1646.36 216.011 1646.88 220.155C1649.47 278.691 1652.06 336.708 1655.17 395.244C1655.17 399.906 1656.72 404.05 1658.8 408.194C1661.39 411.82 1663.98 414.928 1667.09 417C1670.2 419.072 1673.31 420.108 1675.9 420.108C1676.42 420.108 1677.45 420.108 1679.01 419.59C1679.01 424.252 1676.94 427.878 1673.31 430.987C1669.68 434.095 1665.02 435.649 1659.83 435.649C1658.8 435.649 1658.28 435.649 1658.28 435.131C1650.51 434.613 1643.77 432.023 1639.1 427.36C1633.92 422.698 1630.29 417 1628.22 410.784C1624.07 418.554 1618.89 422.698 1611.64 423.216C1606.45 423.216 1601.79 422.18 1598.16 419.072C1594.53 415.964 1592.46 412.338 1592.46 408.194C1592.46 407.158 1592.46 405.604 1592.98 404.05C1594.02 404.568 1595.57 405.086 1596.61 405.086C1599.72 405.086 1602.83 402.496 1604.9 398.352C1606.97 394.208 1608.01 388.51 1608.01 381.775C1607.49 364.163 1606.45 346.55 1605.94 328.938C1603.86 332.046 1600.75 333.6 1596.61 333.6C1594.02 333.6 1591.94 333.082 1589.87 331.528C1587.8 329.974 1586.76 328.42 1586.76 326.866C1588.31 327.902 1590.39 327.384 1592.46 326.348C1594.53 325.312 1596.09 323.24 1597.12 320.132C1598.16 317.024 1598.16 313.916 1597.64 310.29C1596.09 303.555 1592.98 298.893 1588.83 295.785C1584.17 292.677 1578.99 291.641 1572.77 292.159C1566.55 292.677 1561.37 294.749 1557.22 298.375C1553.07 302.001 1550.48 307.182 1549.45 313.916C1549.45 314.952 1549.45 315.988 1549.45 317.024C1549.45 321.686 1551 325.312 1554.11 327.902C1556.7 330.492 1559.81 330.492 1562.4 328.938C1562.4 331.01 1561.37 332.564 1559.81 334.118C1557.74 335.672 1555.66 336.708 1553.07 336.708C1549.96 337.226 1546.85 335.672 1543.74 333.082C1544.26 350.695 1545.3 368.307 1545.82 385.919C1546.34 392.654 1547.37 397.834 1549.96 401.978C1552.56 406.122 1555.66 407.676 1558.77 407.676C1559.81 407.676 1560.85 407.158 1561.88 406.122C1562.4 408.194 1562.92 409.23 1562.92 410.266C1562.92 414.928 1561.37 418.554 1558.26 422.18C1555.15 425.806 1550.48 427.36 1545.82 427.878C1538.56 428.396 1532.86 425.288 1528.2 418.036C1526.64 424.77 1523.53 430.987 1518.87 436.167C1514.2 441.347 1507.99 444.973 1500.21 446.527C1500.21 446.527 1499.17 447.045 1498.66 447.045C1493.47 447.563 1489.33 446.527 1485.18 443.937C1479.48 439.793 1477.41 436.167 1476.89 432.023ZM1541.15 286.979C1546.85 275.065 1556.7 268.849 1571.21 267.813C1585.21 266.777 1596.09 271.957 1602.83 282.835C1602.31 265.741 1601.27 248.128 1600.75 231.034C1599.72 212.385 1596.61 197.881 1590.39 187.003C1584.17 176.124 1576.39 171.462 1567.58 171.98C1558.26 172.498 1551 178.714 1545.82 190.111C1540.64 201.507 1538.56 216.529 1539.08 235.178C1540.12 252.272 1540.64 269.367 1541.15 286.979Z" fill="#E52522"/>
<path d="M37.6984 611.255C41.3261 601.93 64.1293 605.038 53.246 585.354C32.5158 549.093 29.4063 508.17 28.3698 467.765C26.815 410.784 71.3849 353.284 123.21 343.96C135.648 341.888 149.123 340.852 156.897 351.212C165.189 363.127 176.59 366.235 187.992 372.451C215.978 386.955 233.08 421.662 225.306 447.563C215.459 479.679 186.956 500.918 155.86 498.328C126.32 495.738 112.327 474.499 124.765 448.599C128.393 440.31 133.057 432.54 124.247 425.288C115.955 418.554 108.181 422.698 100.407 427.878C90.042 435.13 83.823 443.936 80.1952 456.369C70.3484 488.486 78.6404 517.494 92.6333 545.985C125.283 613.327 178.663 659.43 242.409 694.654C311.336 732.987 383.374 748.528 463.703 741.794C544.032 735.059 619.698 716.929 693.29 685.33C712.983 677.042 726.458 660.466 745.115 651.659C751.334 649.069 757.553 644.925 764.29 650.105C769.991 654.768 766.882 660.984 766.364 666.682C763.254 692.064 753.407 713.303 730.604 726.771C715.056 736.095 724.385 749.564 726.976 758.888C729.567 768.73 740.451 759.924 746.67 757.334C773.619 745.938 800.05 733.505 827.517 722.627C862.759 708.641 896.445 689.992 934.278 683.776C946.716 681.704 962.263 677.56 970.037 690.51C977.811 704.497 986.621 699.317 995.95 696.727C1041.04 682.74 1087.68 679.114 1134.32 682.74C1172.67 685.848 1208.95 698.281 1235.9 728.325C1260.26 755.262 1243.68 804.991 1207.92 812.761C1200.14 814.315 1190.81 814.833 1186.67 807.063C1181.48 797.739 1192.37 796.703 1197.03 792.559C1220.35 771.32 1216.73 745.938 1188.22 733.505C1151.94 717.447 1114.11 712.785 1074.21 717.447C1004.76 725.735 939.979 748.528 874.679 770.802C787.094 800.847 698.99 827.784 606.223 836.072C469.404 849.022 337.249 837.108 217.532 760.442C210.795 755.78 204.576 755.262 196.284 758.37C151.714 774.946 151.714 774.428 129.429 730.915C128.393 728.843 126.32 727.807 123.21 725.217C119.064 750.6 107.663 767.694 80.7134 766.14C53.7642 765.104 21.6325 733.505 18.0047 705.015C14.3769 677.042 34.5888 668.754 57.9103 661.502C41.3261 648.551 34.5888 631.457 37.6984 611.255ZM46.5087 435.13C39.7714 450.671 37.6984 465.693 48.0634 481.751C55.319 493.148 58.9468 507.134 61.538 520.602C73.9761 578.102 111.809 617.989 149.641 659.948C216.496 733.505 303.044 771.838 395.812 782.717C470.44 791.005 549.733 790.487 624.88 767.176C577.201 763.032 530.558 784.271 482.36 771.838C576.164 766.658 660.121 735.059 734.232 678.596C716.611 686.884 698.472 694.136 681.37 702.943C623.325 732.987 560.617 748.528 496.353 758.37C425.871 768.73 356.425 756.816 291.125 730.397C207.167 696.727 135.13 645.961 90.042 563.597C71.3849 529.408 62.0563 493.666 58.4285 455.851C56.8738 440.31 63.0928 427.36 71.3849 414.928C75.5309 408.194 83.823 402.495 77.0857 388.509C63.0928 403.531 53.246 418.554 46.5087 435.13ZM800.568 746.974C697.954 797.221 589.639 814.315 476.659 804.473C466.294 803.437 455.929 803.955 445.564 803.955C436.236 803.955 426.389 803.955 413.432 803.955C513.974 841.77 796.422 791.523 926.504 713.303C879.861 714.339 839.437 728.325 800.568 746.974ZM177.627 416.482C184.364 450.671 155.342 448.599 135.648 457.405C157.415 454.297 182.291 471.909 199.912 447.563C209.759 433.576 217.014 415.964 204.576 399.387C178.663 363.645 143.422 378.149 110.254 382.293C145.495 381.257 173.481 393.689 177.627 416.482ZM75.5309 753.19C85.896 755.78 95.7428 753.19 100.925 744.902C108.181 733.505 93.6698 734.541 89.5238 729.361C79.1587 716.929 64.1293 709.159 56.8738 693.1C54.2825 687.402 54.8007 674.97 42.8809 679.632C35.1071 682.74 34.0706 691.546 34.0706 699.835C35.1071 717.965 59.465 749.046 75.5309 753.19Z" fill="#E52522"/>
<path d="M42.8811 618.507C41.8446 614.363 41.8446 609.701 39.2533 606.592C6.60329 565.151 11.2676 520.084 23.7057 475.535C37.1803 426.324 58.4287 379.703 92.1152 337.226C99.889 327.384 106.626 316.506 108.699 304.073C110.254 295.267 110.254 284.389 99.889 281.281C81.2319 275.583 87.4509 266.776 90.0422 256.934C109.218 195.291 111.291 134.165 75.0128 75.6298C67.239 62.6795 57.3922 51.2832 40.8081 44.549C33.5525 41.441 25.7787 40.4049 19.0414 45.5851C14.8954 48.6931 13.8589 52.8372 14.8954 56.9813C16.9684 64.7515 23.7057 66.8236 32.516 66.3056C54.8009 64.7515 57.3922 80.2919 60.5017 91.1702C76.0493 149.706 79.6771 208.241 62.5747 267.294C39.7715 342.924 10.7493 416.482 1.93901 494.184C-1.68876 526.819 -1.17051 558.935 11.7858 590.016C16.9684 602.966 23.1874 615.917 42.8811 618.507Z" fill="#E52522"/>
<path d="M918.212 672.38C922.358 672.898 927.022 671.862 930.65 673.934C977.293 698.799 1020.83 686.884 1063.32 667.2C1109.97 645.443 1152.46 616.953 1189.26 576.548C1198.07 567.223 1207.4 558.935 1219.32 554.791C1227.61 551.683 1238.49 549.611 1243.16 559.453C1251.97 577.066 1259.74 569.295 1269.07 564.633C1327.11 535.625 1387.23 522.674 1451.5 548.575C1465.49 554.273 1478.44 562.043 1487.77 576.548C1491.92 583.282 1494.51 590.534 1490.36 597.786C1487.77 602.448 1484.15 604.002 1479.48 603.484C1471.71 602.966 1468.6 596.75 1467.56 587.944C1464.97 565.669 1449.94 565.669 1438.02 564.633C1377.39 559.453 1318.3 565.669 1263.37 592.606C1192.37 627.313 1123.96 668.236 1048.81 690.51C1016.68 699.835 985.067 704.497 951.898 697.244C937.906 695.172 923.913 691.028 918.212 672.38Z" fill="#E52522"/>
<path d="M48.0636 616.435C51.6914 607.11 74.4945 610.219 63.6112 590.534C42.8811 554.273 39.7715 513.35 38.735 472.945C37.1803 415.964 81.7501 358.464 133.576 349.14C146.014 347.068 159.488 346.032 167.262 356.392C175.554 368.307 186.956 371.415 198.357 377.631C226.343 392.135 243.445 426.842 235.672 452.743C225.825 484.859 197.321 506.098 166.225 503.508C136.685 500.918 122.692 479.679 135.13 453.779C138.758 445.491 143.422 437.72 134.612 430.468C126.32 423.734 118.546 427.878 110.772 433.058C100.407 440.31 94.1882 449.117 90.5604 461.549C80.7136 493.666 89.0057 522.674 102.999 551.165C135.649 618.507 189.029 664.61 252.774 699.835C321.702 738.168 393.739 753.708 474.068 746.974C554.398 740.24 630.063 722.109 703.655 690.51C723.349 682.222 736.823 665.646 755.48 656.84C761.699 654.25 767.918 650.105 774.656 655.286C780.356 659.948 777.247 666.164 776.729 671.862C773.619 697.245 763.772 718.483 740.969 731.951C725.422 741.276 734.75 754.744 737.341 764.068C739.933 773.91 750.816 765.104 757.035 762.514C783.984 751.118 810.415 738.686 837.883 727.807C873.124 713.821 906.81 695.173 944.643 688.956C957.081 686.884 972.629 682.74 980.402 695.69C988.176 709.677 996.987 704.497 1006.32 701.907C1051.4 687.92 1098.05 684.294 1144.69 687.92C1183.04 691.028 1219.32 703.461 1246.27 733.505C1270.62 760.442 1254.04 810.171 1218.28 817.941C1210.51 819.495 1201.18 820.013 1197.03 812.243C1191.85 802.919 1202.73 801.883 1207.4 797.739C1230.72 776.5 1227.09 751.118 1198.59 738.686C1162.31 722.627 1124.48 717.965 1084.57 722.627C1015.13 730.915 950.344 753.708 885.044 775.982C797.459 806.027 709.356 832.964 616.588 841.252C479.769 854.202 347.614 842.288 227.898 765.622C221.16 760.96 214.941 760.442 206.649 763.55C162.079 780.127 162.079 779.609 139.795 736.095C138.758 734.023 136.685 732.987 133.576 730.397C129.429 755.78 118.028 772.874 91.0787 771.32C64.1295 770.284 31.9977 738.686 28.3699 710.195C24.7422 682.222 44.9541 673.934 68.2755 666.682C51.6914 653.732 44.9541 636.637 48.0636 616.435ZM56.8739 440.31C50.1366 455.851 48.0636 470.873 58.4287 486.932C65.6842 498.328 69.312 512.314 71.9033 525.783C84.3414 583.282 122.174 623.169 160.006 665.128C226.861 738.686 313.41 777.018 406.177 787.897C480.806 796.185 560.099 795.667 635.245 772.356C587.566 768.212 540.923 789.451 492.726 777.018C586.529 771.838 670.487 740.24 744.597 683.776C726.976 692.064 708.837 699.317 691.735 708.123C633.691 738.168 570.982 753.708 506.718 763.55C436.236 773.91 366.79 761.996 301.49 735.578C217.533 701.907 145.495 651.141 100.407 568.777C81.7501 534.589 72.4215 498.846 68.7938 461.031C67.239 445.491 73.458 432.54 81.7501 420.108C85.8961 413.374 94.1882 407.676 87.4509 393.689C73.458 408.712 63.6112 423.734 56.8739 440.31ZM810.933 752.154C708.319 802.401 600.004 819.495 487.025 809.653C476.66 808.617 466.295 809.135 455.929 809.135C446.601 809.135 436.754 809.135 423.798 809.135C524.339 846.95 806.787 796.703 936.869 718.483C890.226 719.519 849.802 733.505 810.933 752.154ZM187.992 421.662C194.729 455.851 165.707 453.779 146.014 462.585C167.78 459.477 192.656 477.089 210.277 452.743C220.124 438.756 227.379 421.144 214.941 404.568C189.029 368.825 153.787 383.329 120.619 387.473C155.86 386.437 183.846 398.869 187.992 421.662ZM85.8961 758.37C96.2612 760.96 106.108 758.37 111.291 750.082C118.546 738.686 104.035 739.722 99.889 734.541C89.5239 722.109 74.4946 714.339 67.239 698.281C64.6477 692.582 65.166 680.15 53.2461 684.812C45.4723 687.92 44.4358 696.727 44.4358 705.015C45.4723 723.145 69.8303 754.226 85.8961 758.37Z" fill="#FAB60D"/>
<path d="M53.2463 623.687C52.2098 619.543 52.2098 614.881 49.6185 611.773C16.9685 570.332 21.6328 525.265 34.0709 480.716C47.5455 431.504 68.7939 384.883 102.48 342.406C110.254 332.564 116.992 321.686 119.065 309.253C120.619 300.447 120.619 289.569 110.254 286.461C91.5971 280.763 97.8161 271.957 100.407 262.114C119.583 200.471 121.656 139.345 85.3781 80.81C77.6043 67.8597 67.7574 56.4634 51.1733 49.7292C43.9177 46.6211 36.1439 45.5851 29.4066 50.7652C25.2606 53.8733 24.2241 58.0174 25.2606 62.1615C27.3336 69.9317 34.0709 72.0038 42.8812 71.4857C65.1662 69.9317 67.7574 85.4721 70.867 96.3503C86.4146 154.886 90.0423 213.421 72.94 272.475C50.1368 348.104 21.1146 421.662 12.3042 499.364C8.67647 531.999 9.19472 564.116 22.1511 595.196C27.3336 608.147 33.5527 621.097 53.2463 623.687Z" fill="#FAB60D"/>
<path d="M928.577 677.56C932.723 678.078 937.388 677.042 941.015 679.114C987.658 703.979 1031.19 692.064 1073.69 672.38C1120.33 650.623 1162.83 622.133 1199.62 581.728C1208.43 572.404 1217.76 564.115 1229.68 559.971C1237.97 556.863 1248.86 554.791 1253.52 564.633C1262.33 582.246 1270.11 574.476 1279.44 569.814C1337.48 540.805 1397.6 527.854 1461.86 553.755C1475.85 559.453 1488.81 567.223 1498.14 581.728C1502.28 588.462 1504.88 595.714 1500.73 602.966C1498.14 607.628 1494.51 609.182 1489.85 608.664C1482.07 608.146 1478.96 601.93 1477.93 593.124C1475.34 570.85 1460.31 570.85 1448.39 569.814C1387.75 564.633 1328.67 570.85 1273.73 597.786C1202.73 632.493 1134.32 673.416 1059.18 695.69C1027.05 705.015 995.432 709.677 962.264 702.425C948.271 700.353 934.278 696.208 928.577 677.56Z" fill="#FAB60D"/>
</svg>
