<?xml version="1.0" encoding="utf-8"?>
<!-- Generator: Adobe Illustrator 24.3.0, SVG Export Plug-In . SVG Version: 6.00 Build 0)  -->
<svg version="1.1" id="Capa_1" xmlns="http://www.w3.org/2000/svg" xmlns:xlink="http://www.w3.org/1999/xlink" x="0px" y="0px"
	 viewBox="0 0 279 140" style="enable-background:new 0 0 279 140;" xml:space="preserve">
<style type="text/css">
	.st0{fill:#0090C9;}
	.st1{fill:#E52522;}
	.st2{fill:#FAB60D;}
</style>
<g>
	<path class="st0" d="M50.08,19.72c2.75,0,5.58-0.09,8.32-0.17c6.35-0.26,10.12,1.89,9.87,8.92c-0.09,2.49-1.12,5.49-3.26,7.03
		c4.03,0.43,5.75,4.46,5.58,8.32c-0.26,6.86-5.15,10.46-11.5,10.8c-3.52,0.17-7.12,0.26-10.64,0.34
		C48.97,43.22,49.57,31.47,50.08,19.72z M56.23,34c0.25,0,0.5,0,0.84,0c3.2-0.17,4.8-1.18,4.96-4.79c0.17-3.53-1.77-4.29-4.54-4.21
		c-0.25,0-0.59,0-0.84,0C56.48,28.03,56.32,30.97,56.23,34z M55.49,48.86c0.51,0,0.94,0,1.46-0.09c3.6-0.17,6.78-0.86,6.95-5.4
		c0.17-4.54-3.43-4.46-6.86-4.37c-0.34,0-0.77,0-1.12,0C55.74,42.34,55.57,45.6,55.49,48.86z"/>
	<path class="st0" d="M83.37,44.85c-1.03,2.57-2.06,5.23-3.09,7.8c-2.4,0.34-4.8,0.6-7.12,0.86c4.98-12.52,9.87-25.12,14.67-37.81
		c1.72-0.26,3.43-0.51,5.15-0.86c3.95,11.32,8.06,22.55,12.18,33.61c-2.4,0.51-4.8,0.94-7.21,1.37c-0.86-2.32-1.63-4.63-2.49-6.95
		C91.43,43.65,87.4,44.33,83.37,44.85z M89.8,26h-0.09c-1.37,4.46-2.75,8.92-4.2,13.38c2.75-0.43,5.49-0.86,8.24-1.29
		C92.37,34.06,91.09,30.03,89.8,26z"/>
	<path class="st0" d="M122.66,32.84c-0.09,3.26-0.17,6.09-2.14,9.35c-1.8,3.09-4.72,5.06-7.89,5.66c-2.57,0.51-5.06-0.43-6.78-1.89
		c1.46-1.97,2.92-3.94,4.46-5.92c0.26,0.94,1.46,1.97,2.57,1.71c3.35-0.69,3-6.35,3.09-8.57c0.17-7.37,0.26-14.66,0.43-22.04
		c2.23-0.51,4.46-1.03,6.69-1.54C122.92,17.41,122.74,25.12,122.66,32.84z"/>
	<path class="st0" d="M144.88,40.04c-10.64,2.74-17.07-3.86-16.9-14.15c0.17-10.38,6.95-19.98,17.16-22.64
		c10.21-2.66,16.9,3.52,16.9,13.89C162.12,27.35,155.51,37.3,144.88,40.04z M145.13,9.95c-6.35,1.63-10.12,8.32-10.21,13.98
		c-0.09,5.4,2.49,11.4,10.04,9.43c7.46-1.97,10.21-9.26,10.21-14.66C155.17,13.03,151.4,8.32,145.13,9.95z"/>
	<path class="st1" d="M52.57,21.44c2.75-0.09,5.58-0.17,8.32-0.26c6.35-0.34,10.21,1.8,9.95,8.83c-0.09,2.49-1.03,5.49-3.26,7.12
		c4.03,0.43,5.75,4.37,5.58,8.23c-0.26,6.86-5.15,10.55-11.5,10.89c-3.52,0.26-7.12,0.34-10.64,0.43
		C51.45,44.93,51.97,33.18,52.57,21.44z M58.6,36c0.25,0,0.51,0,0.85,0c3.23-0.17,4.93-1.27,5.01-4.84
		c0.17-3.57-1.78-4.33-4.59-4.16c-0.25,0-0.59,0-0.85,0C58.86,29.89,58.77,32.94,58.6,36z M57.97,50.93c0.51,0,0.94-0.09,1.46-0.09
		c3.6-0.17,6.78-0.94,6.95-5.49c0.17-4.54-3.52-4.46-6.86-4.29c-0.34,0-0.77,0-1.12,0.09C58.23,44.42,58.06,47.68,57.97,50.93z"/>
	<path class="st1" d="M85.86,46.22c-1.03,2.57-2.06,5.23-3.09,7.8c-2.4,0.34-4.8,0.6-7.12,0.94c4.98-12.52,9.87-25.21,14.67-37.99
		c1.72-0.26,3.43-0.6,5.15-0.86c4.03,11.23,8.06,22.47,12.18,33.53c-2.4,0.51-4.8,0.94-7.21,1.46c-0.86-2.31-1.63-4.63-2.49-6.95
		C93.92,44.93,89.89,45.62,85.86,46.22z M92.29,27H92.2c-1.37,4.46-2.75,8.92-4.2,13.38c2.75-0.43,5.49-0.86,8.24-1.37
		C94.86,35.06,93.58,31.03,92.29,27z"/>
	<path class="st1" d="M125.15,33.96c-0.09,3.26-0.17,6.09-2.14,9.35c-1.8,3.09-4.72,5.06-7.89,5.74c-2.57,0.6-5.06-0.34-6.78-1.8
		c1.46-1.97,2.92-3.94,4.46-5.92c0.34,0.94,1.46,1.97,2.57,1.71c3.35-0.77,3-6.35,3-8.57c0.17-7.37,0.26-14.66,0.43-22.04
		c2.23-0.51,4.46-1.03,6.69-1.54C125.4,18.52,125.32,26.24,125.15,33.96z"/>
	<path class="st1" d="M147.45,41.07c-10.64,2.74-17.07-3.77-16.99-14.15c0.17-10.38,6.95-20.06,17.16-22.72
		c10.21-2.66,16.99,3.52,16.99,13.89C164.69,28.38,158.09,38.33,147.45,41.07z M147.62,10.98c-6.35,1.63-10.12,8.32-10.21,13.98
		c-0.09,5.4,2.57,11.4,10.04,9.43c7.46-1.97,10.21-9.35,10.21-14.66C157.66,14.06,153.97,9.35,147.62,10.98z"/>
	<path class="st1" d="M175.78,16.31c0,1.41,0,2.59,0,4.02c2.84-0.78,5.87-1.55,8.55-2.06c0.44,1.88,0.25,1.07,0.68,2.95
		c-2.84,0.8-6.15,1.72-9.24,2.42c0,1.79,0,3.28,0,4.99c1.97-0.51,4.03-1.03,6-1.54c0,1.03,0,2.13,0,3.19
		c-3.36,0.88-6.64,1.68-10,2.57c0-6.46-0.09-12.4-0.09-18.88c3.33-0.9,6.67-1.8,10.09-2.61c0,1.08,0,2.3,0,3.36
		C179.92,15.25,177.81,15.78,175.78,16.31z"/>
	<path class="st1" d="M185.81,10.9c0.78-0.24,1.57-0.39,2.35-0.63c2.98,3.22,6.04,6.51,9.1,9.73c0,0,0,0,0.08,0
		c-0.08-3.84-0.08-7.69-0.16-11.45c1.1-0.24,2.2-0.55,3.3-0.78c0.08,5.8,0.16,11.61,0.31,17.41c-0.78,0.16-1.57,0.39-2.43,0.55
		c-3.06-3.29-6.12-6.51-9.1-9.73c0,0,0,0-0.08,0c0.08,3.84,0.08,7.76,0.16,11.61c-1.1,0.31-2.2,0.55-3.3,0.86
		C185.89,22.59,185.81,16.78,185.81,10.9z"/>
	<path class="st1" d="M217.02,18.86c1.72-0.34,3.43-0.69,5.15-1.03c0,1.03,0.09,2.14,0.09,3.17c-2.92,0.6-5.83,1.11-8.75,1.8
		c-0.17-6.26-0.26-12.43-0.43-18.69c1.2-0.26,2.4-0.51,3.6-0.77C216.85,8.57,216.94,13.72,217.02,18.86z"/>
	<path class="st1" d="M228.26,15.95c-0.51,1.37-0.94,2.83-1.46,4.2c-1.29,0.26-2.57,0.43-3.86,0.69c2.23-6.86,4.55-13.63,6.69-20.41
		c0.94-0.17,1.89-0.34,2.83-0.43c2.57,6,5.06,12,7.63,18.09c-1.29,0.17-2.57,0.34-3.86,0.6c-0.51-1.2-1.03-2.49-1.54-3.69
		C232.64,15.26,230.49,15.61,228.26,15.95z M231.18,6C231.09,6,231.09,6,231.18,6c-0.69,2.4-1.29,4.72-1.89,7.12
		c1.46-0.26,2.92-0.51,4.46-0.77C232.81,10.29,231.95,8.14,231.18,6z"/>
	<path class="st2" d="M176.78,16.72c0,0,0,2.61,0,4.04c2.85-0.78,5.89-1.55,8.57-2.06c0.44,1.88,0.25,1.07,0.68,2.95
		c-2.84,0.8-6.16,1.72-9.25,2.42c0,1.79,0,4.99,0,4.99l7-1.54c0,0,0,2.13,0,3.19c-3.36,0.88-6.64,1.68-10,2.57
		c0-6.46-0.09-12.4-0.09-18.88c3.33-0.9,6.67-1.71,10.09-2.61c0,1.08,0,3.39,0,3.39L176.78,16.72z"/>
	<path class="st2" d="M186.83,10.63c0.86-0.26,1.72-0.43,2.57-0.69c3.35,3.52,6.61,7.12,9.95,10.05h0.09
		c-0.09-3.54-0.17-7.74-0.17-11.85c1.2-0.26,2.4-0.6,3.6-0.86c0.09,6.35,0.26,12.69,0.34,19.04c-0.86,0.17-1.72,0.43-2.66,0.6
		c-3.35-3.6-6.69-7.12-10.04-10.92h-0.09c0.09,4.41,0.09,8.7,0.17,12.9c-1.2,0.34-2.4,0.6-3.6,0.94
		C186.91,23.41,186.83,17.06,186.83,10.63z"/>
	<path class="st2" d="M218.83,19.38c1.72-0.34,3.43-0.69,5.15-1.03c0,1.03,0.09,2.14,0.09,3.17c-2.92,0.51-5.83,1.11-8.84,1.71
		c-0.17-6.26-0.26-12.43-0.43-18.69c1.2-0.26,2.4-0.51,3.6-0.77C218.57,9.09,218.65,14.23,218.83,19.38z"/>
	<path class="st2" d="M230.06,16.55c-0.51,1.37-0.94,2.83-1.46,4.2c-1.29,0.26-2.57,0.43-3.86,0.69c2.23-6.86,4.46-13.63,6.69-20.41
		c0.94-0.17,1.89-0.34,2.83-0.43c2.57,6,5.06,12,7.63,18.09c-1.29,0.17-2.57,0.34-3.86,0.51c-0.51-1.2-1.03-2.49-1.54-3.69
		C234.35,15.78,232.21,16.12,230.06,16.55z M232.89,6.26c-0.69,2.4-1.29,4.72-1.89,7.12c1.46-0.26,2.92-0.51,4.46-0.69
		C234.52,10.55,233.75,8.4,232.89,6.26z"/>
	<path class="st0" d="M44.76,107.1c0-0.17,0.09-0.43,0.17-0.69c0.17,0.09,0.34,0.17,0.51,0.17c0.51,0,1.03-0.34,1.46-1.03
		c0.43-0.69,0.69-1.63,0.69-2.74c0.51-10.8,1.03-21.61,1.46-32.41c0.09-1.11-0.09-2.06-0.43-2.74c-0.34-0.69-0.77-1.03-1.29-1.03
		c-0.17,0-0.43,0.09-0.6,0.17c-0.09-0.43-0.09-0.69-0.09-0.77c0-0.6,0.26-1.03,0.77-1.37c0.43-0.34,1.03-0.51,1.72-0.51
		c0.6,0,1.29,0.17,2.06,0.43c0.09,0,0.34,0.09,0.69,0.26c0.34,0.09,0.77,0.17,1.29,0.17c0.43,0,1.2-0.17,2.32-0.43
		c1.8-0.43,3.09-0.69,4.12-0.69c2.32-0.09,4.46,0.26,6.43,1.11c1.97,0.86,3.6,2.4,4.8,4.63c1.2,2.23,1.8,5.14,1.63,8.92
		c-0.17,3.69-0.94,6.86-2.32,9.35c-1.37,2.49-3.17,4.37-5.23,5.57c-2.14,1.2-4.29,1.89-6.61,1.97c-0.43,0-0.94,0-1.46-0.17
		c-0.51-0.17-0.94-0.34-1.12-0.6c-0.09,2.74-0.26,5.4-0.34,8.15c-0.09,1.11,0.09,2.06,0.51,2.74c0.34,0.69,0.86,1.03,1.37,1.03
		c0.17,0,0.34-0.09,0.51-0.17c0.09,0.34,0.09,0.51,0.09,0.69c0,0.6-0.26,1.03-0.77,1.46c-0.43,0.34-1.03,0.6-1.8,0.6
		c-0.6,0-1.29-0.09-2.06-0.34c-0.09,0-0.34-0.09-0.69-0.17c-0.43-0.09-0.86-0.17-1.29-0.17c-0.51,0-0.94,0.09-1.29,0.17
		c-0.43,0.09-0.6,0.17-0.69,0.26c-0.77,0.34-1.54,0.51-2.06,0.51c-0.69,0-1.29-0.17-1.72-0.51C44.93,108.21,44.68,107.7,44.76,107.1
		z M64.15,85.15c0.09-0.77,0-1.54-0.26-2.23c-0.26-0.69-0.6-1.2-1.12-1.54c-0.51-0.34-0.94-0.43-1.29-0.26
		c0-0.43,0.26-0.86,0.6-1.29c0.43-0.34,0.86-0.6,1.37-0.6c0.51,0,0.94,0.09,1.29,0.43c0-0.34,0-0.51,0.09-0.69
		c0.34-8.83-1.63-13.03-5.92-12.78c-1.46,0.09-2.23,1.37-2.32,3.94c-0.26,5.32-0.43,10.63-0.69,15.95c0.69-1.03,1.72-1.63,3-1.71
		c1.03-0.09,1.89,0.26,2.57,0.86c0.69,0.6,0.94,1.46,0.77,2.49c-0.17,0.77-0.43,1.29-0.86,1.63c-0.43,0.34-0.86,0.6-1.37,0.6
		c-0.43,0-0.77,0-1.12-0.17c-0.34-0.17-0.51-0.26-0.51-0.43c0.34-0.26,0.51-0.6,0.6-1.03c0-0.43,0-0.77-0.17-0.94
		c-0.17-0.17-0.34-0.34-0.51-0.26c-0.43,0-0.94,0.34-1.46,1.03c-0.51,0.69-0.77,1.37-0.86,2.14c0,0.17,0,0.43,0.09,0.86
		c0.26,1.11,0.86,1.63,1.89,1.54C61.06,92.52,63.21,89.95,64.15,85.15z"/>
	<path class="st0" d="M91.26,91.41c-0.43,0.09-0.94,0.09-1.46,0c-0.51-0.09-0.94-0.26-1.2-0.51c-0.09,2.66-0.17,5.4-0.26,8.06
		c0,1.11,0.17,2.06,0.51,2.66c0.43,0.6,0.86,0.94,1.37,0.86c0.26,0,0.43-0.17,0.6-0.26c0.09,0.34,0.09,0.51,0.09,0.6
		c0,0.6-0.26,1.11-0.69,1.54c-0.43,0.43-1.12,0.69-1.8,0.86c-0.6,0.09-1.29,0.09-2.06-0.17c-0.86-0.17-1.46-0.17-1.97-0.09
		c-0.51,0.09-1.2,0.34-2.06,0.77c-0.09,0.09-0.34,0.17-0.69,0.34c-0.43,0.17-0.86,0.26-1.37,0.34c-0.77,0.09-1.37,0-1.8-0.26
		c-0.43-0.26-0.69-0.77-0.6-1.37c0-0.09,0.09-0.34,0.17-0.69c0.17,0.09,0.43,0.09,0.6,0.09c0.51-0.09,1.03-0.51,1.46-1.29
		c0.43-0.77,0.69-1.71,0.69-2.83c0.34-10.8,0.69-21.61,1.03-32.33c0-1.11-0.09-2.06-0.51-2.66c-0.34-0.69-0.86-0.94-1.37-0.86
		c-0.17,0-0.43,0.09-0.6,0.26c-0.09-0.34-0.09-0.51-0.09-0.69c0-0.6,0.26-1.11,0.69-1.54c0.43-0.43,1.03-0.69,1.8-0.77
		c0.51-0.09,0.94-0.09,1.37,0c0.34,0.09,0.6,0.09,0.69,0.17c0.77,0.17,1.46,0.26,1.97,0.17c0.43-0.09,1.2-0.26,2.32-0.69
		c1.72-0.6,3-1.03,4.12-1.2c2.32-0.34,4.46-0.26,6.43,0.43c1.97,0.69,3.6,2.06,4.89,4.12c1.29,2.06,1.8,4.97,1.72,8.66
		c-0.09,3.43-0.69,6.35-1.8,8.75c-1.12,2.4-2.66,4.46-4.55,6.09c-0.09,2.57,0.17,5.06,0.86,7.46c0.6,2.4,1.46,4.37,2.66,5.92
		c1.12,1.54,2.32,2.32,3.6,2.4c0.09,0,0.34,0,0.6-0.09c0.51-0.09,0.94-0.34,1.2-0.77c0.26-0.34,0.43-0.77,0.43-1.29
		c0-0.69-0.17-1.03-0.6-1.03c0.26-0.26,0.6-0.51,1.12-0.6c0.51-0.09,0.94-0.09,1.37,0.09c0.43,0.17,0.6,0.43,0.77,0.86
		c0.09,0.34,0.09,0.6,0.09,0.77c0,1.29-0.6,2.57-1.72,3.69c-1.12,1.2-2.4,1.97-3.86,2.23c-2.83,0.6-5.32,0-7.29-1.63
		c-2.06-1.63-3.6-3.86-4.63-6.6C92.2,96.89,91.6,94.15,91.26,91.41z M97.44,74.6c0.26-8.83-1.8-12.78-6.01-12.09
		c-1.46,0.26-2.23,1.63-2.32,4.2c-0.17,5.32-0.34,10.63-0.43,15.95c0.77-1.11,1.8-1.8,3-2.06c1.03-0.17,1.89,0,2.57,0.6
		c0.69,0.6,0.94,1.37,0.77,2.4c-0.17,0.77-0.43,1.37-0.86,1.71c-0.43,0.43-0.86,0.69-1.37,0.77c-0.43,0.09-0.77,0.09-1.12,0
		c-0.34-0.09-0.51-0.26-0.51-0.34c0.34-0.34,0.51-0.69,0.6-1.11c0-0.86-0.26-1.2-0.77-1.11c-0.43,0.09-0.94,0.43-1.46,1.2
		c-0.51,0.69-0.77,1.46-0.77,2.32c0,0.34,0,0.6,0,0.77c0.26,1.03,0.94,1.46,1.97,1.29C94.95,88.23,97.18,83.35,97.44,74.6z"/>
	<path class="st0" d="M136.21,89.01c2.23-4.46,3.43-10.12,3.43-17.15c0.09-7.03-0.94-12.18-3.09-15.52c0.6-0.09,1.03-0.43,1.29-0.86
		c0.26-0.51,0.34-0.86,0.26-1.11c-0.17,0.17-0.43,0.34-0.77,0.43c-0.43,0.09-0.94,0.09-1.46-0.09c-0.51-0.17-0.94-0.34-1.37-0.6
		c-2.14-1.63-4.72-2.06-7.98-1.29c-3.17,0.77-5.83,2.49-7.89,5.06c-0.43,0.43-0.86,0.86-1.46,1.29c-0.51,0.43-1.03,0.69-1.37,0.77
		c-0.34,0.09-0.6,0.09-0.77-0.09c-0.17,0.34-0.09,0.69,0.17,1.03c0.26,0.34,0.69,0.43,1.29,0.26c-2.32,4.46-3.52,10.2-3.69,17.15
		c-0.17,6.95,0.86,12.18,3.09,15.61c-0.43,0.09-0.77,0.26-1.03,0.51c-0.26,0.26-0.43,0.51-0.51,0.86c-0.09,0.26-0.09,0.51,0,0.69
		c0.17-0.26,0.43-0.43,0.77-0.43c0.43-0.09,0.94-0.09,1.46,0.09c0.51,0.17,0.94,0.43,1.37,0.69c2.06,1.71,4.72,2.14,7.98,1.37
		c3.17-0.77,5.92-2.57,8.15-5.23c0.34-0.51,0.77-0.94,1.37-1.37c0.51-0.43,1.03-0.69,1.46-0.77c0.26-0.09,0.51,0,0.86,0.09
		c0.09-0.34,0.09-0.6-0.17-1.03C137.16,88.92,136.73,88.83,136.21,89.01z M131.58,81.63c0,1.54-0.09,3.17-0.6,4.72
		c0,0.34-0.09,0.6-0.17,0.86c-0.09,0.26-0.26,0.6-0.34,0.86c-0.09,0.34-0.26,0.77-0.43,1.11c-1.03,2.92-2.4,4.63-4.2,5.06
		c-1.54,0.34-2.92-0.69-4.03-3.09c-1.12-2.49-1.63-7.37-1.46-14.66c0-1.03,0.09-2.32,0.17-3.69c-0.26-0.86-0.17-1.8,0.09-2.74
		c0-0.09,0-0.09-0.82-0.17v-0.17v-0.09c0.99-0.43,0.99-0.86,1-1.29v-0.77c0.25-1.63,0.51-3.6,1.11-5.32
		c0.09-0.51,0.34-1.03,0.6-1.54c0-0.09,0.09-0.09,0.09-0.17c0,0-0.09,0-0.09,0.09c0.94-2.57,2.23-4.03,3.95-4.46
		c1.63-0.34,2.92,0.6,4.12,3c1.12,2.4,1.63,7.29,1.54,14.58C132.09,76.49,131.92,79.14,131.58,81.63z"/>
	<path class="st0" d="M143.33,92.19c0-0.34,0.09-0.6,0.34-0.86c0.34,0.17,0.77-0.09,1.37-0.69c0.6-0.6,1.12-1.46,1.63-2.49
		c2.83-6.17,5.66-12.35,8.49-18.52c0.17-0.34,0.34-0.69,0.51-1.03c-0.43-0.77-0.86-1.63-1.2-2.4c-2.06-4.2-4.2-8.4-6.26-12.6
		c-0.51-1.03-1.12-1.8-1.8-2.32s-1.29-0.69-1.8-0.51c-0.17,0.09-0.34,0.17-0.43,0.26c-0.09-0.34-0.17-0.6-0.17-0.94
		c0-1.11,0.77-1.89,2.32-2.32c0.51-0.17,1.2-0.17,1.97-0.09c0.09,0,0.26,0,0.6,0.09c0.34,0,0.77,0,1.2-0.17
		c0.6-0.17,1.29-0.51,2.06-1.03c0.86-0.51,1.46-0.77,1.89-0.94c0.86-0.26,1.46-0.26,1.89,0c0.43,0.17,0.69,0.69,0.86,1.37
		c-0.34,0-0.6,0-0.86,0c-0.34,0.09-0.6,0.26-0.77,0.51c-0.17,0.26-0.26,0.6-0.26,1.03c0,0.77,0.26,1.71,0.86,2.83
		c1.29,2.66,2.66,5.32,3.95,7.97c1.89-4.2,3.77-8.4,5.66-12.6c0.34-0.69,0.51-1.37,0.51-2.06c0-0.43-0.09-0.69-0.26-0.77
		c-0.17-0.17-0.43-0.09-0.69,0.09c0.09-0.51,0.43-0.94,0.77-1.29c0.43-0.34,0.94-0.51,1.63-0.69c0.43-0.09,0.86-0.09,1.2,0
		c0.51,0.09,0.94,0.09,1.2,0c0.43-0.09,0.86-0.34,1.29-0.6c0.09-0.09,0.26-0.17,0.51-0.34c0.26-0.17,0.6-0.26,0.86-0.34
		c0.34-0.09,0.6-0.09,0.86,0c0.26,0.09,0.34,0.34,0.34,0.6c0,0.26-0.09,0.51-0.34,0.94c-0.26-0.17-0.69,0.09-1.29,0.69
		c-0.6,0.6-1.2,1.46-1.63,2.49c-2.75,6.17-5.49,12.35-8.32,18.52c0,0.09,0,0.09-0.09,0.17c0.51,1.03,1.03,2.14,1.54,3.17
		c2.14,4.2,4.29,8.32,6.43,12.52c0.51,1.03,1.12,1.8,1.89,2.32c0.69,0.51,1.37,0.69,1.89,0.51c0.17-0.09,0.34-0.17,0.51-0.34
		c0.09,0.34,0.09,0.6,0.09,0.77c0,0.6-0.17,1.11-0.6,1.54c-0.43,0.43-1.03,0.69-1.72,0.94c-0.51,0.17-1.2,0.17-1.89,0
		c-0.77-0.09-1.46-0.09-2.06,0.09c-0.51,0.17-1.2,0.43-1.89,0.94c-0.77,0.51-1.46,0.86-2.06,1.03c-0.86,0.26-1.54,0.26-1.89,0
		c-0.43-0.26-0.69-0.69-0.86-1.46c0.34,0,0.6,0,0.86-0.09c0.69-0.17,1.03-0.69,1.03-1.54c0-0.77-0.26-1.63-0.86-2.83
		c-1.46-2.92-2.92-5.74-4.29-8.66c-2.06,4.46-4.03,9-6.09,13.46c-0.43,0.86-0.6,1.54-0.6,2.14c0,0.43,0.09,0.69,0.26,0.77
		c0.17,0.09,0.43,0.09,0.77-0.09c-0.17,0.94-1.03,1.63-2.49,1.97c-0.34,0.09-0.77,0.09-1.29,0c-0.34-0.09-0.69-0.09-1.2,0
		c-0.51,0.09-0.94,0.34-1.29,0.6c-0.09,0.09-0.26,0.17-0.51,0.34c-0.26,0.17-0.6,0.26-0.86,0.34c-0.34,0.09-0.69,0.09-0.86,0
		C143.5,92.7,143.33,92.53,143.33,92.19z"/>
	<path class="st0" d="M178.93,81.87c0-0.09,0-0.34,0.09-0.69c0.18,0.09,0.46,0.09,0.64,0c0.55-0.17,1.01-0.6,1.47-1.37
		c0.46-0.77,0.64-1.8,0.64-2.92c0-3.17,0-9.85,0-9.85s0.25-2.14-0.27-3c-0.51-0.86-1.12-1.54-1.8-1.97
		c-0.69-0.43-1.37-0.51-1.97-0.34c-0.26,0.09-0.43,0.09-0.51,0.17c0-0.69,0.26-1.37,0.86-2.06c0.6-0.69,1.29-1.11,2.06-1.29
		c0.77-0.17,1.46-0.09,1.64,0.34V45.45c0.25-1.11-0.01-1.97-0.35-2.57c-0.43-0.6-0.86-0.86-1.37-0.69c-0.17,0.09-0.43,0.17-0.6,0.34
		c-0.09-0.26-0.09-0.51-0.09-0.69c0-0.77,0.26-1.46,0.86-2.14c0.6-0.69,1.29-1.11,2.14-1.37c1.12-0.26,2.06,0.09,2.83,1.2
		c0.26-1.2,0.86-2.23,1.54-3.26c0.77-0.94,1.8-1.71,3-2.23c0.09,0,0.26-0.09,0.34-0.09c0.77-0.26,1.46-0.17,2.14,0.17
		c0.69,0.34,1.12,1.87,1.12,1.87s-0.26,0-0.35,0c-0.74,0.17-1.47,0.77-2.3,1.71c-0.74,1.03-1.2,2.06-1.2,3.17
		c0.09,5.4,0.09,10.8,0.18,16.12c0.55-0.69,1.29-1.11,2.11-1.29c0.83-0.17,1.56-0.09,2.21,0.26c0.64,0.34,1.01,0.94,1.01,1.63
		c-0.09,0-0.28,0-0.46,0.09c-0.64,0.17-1.38,0.6-2.12,1.37c-0.74,0.77-1.38,1.71-1.93,2.83c-0.55,1.11-0.74,2.23-0.74,3.34
		c0,3.17,0.09,6.43,0.09,9.6c0,1.11,0.28,1.97,0.74,2.57c0.46,0.6,0.92,0.86,1.47,0.69c0.28-0.09,0.46-0.17,0.64-0.34
		c0.09,0.26,0.09,0.51,0.09,0.6c0,0.6-0.18,1.2-0.74,1.63c-0.46,0.51-1.1,0.77-1.93,1.03c-0.64,0.17-1.38,0.17-2.21,0.09
		c-0.74-0.17-1.47-0.09-2.11,0c-0.55,0.17-1.29,0.43-2.12,0.94c-0.83,0.51-1.56,0.86-2.21,1.03c-0.83,0.17-1.47,0.17-1.93-0.09
		C179.2,82.99,178.93,82.56,178.93,81.87z"/>
	<path class="st0" d="M236.73,53.81c0.09,3.69,0.26,7.37,0.34,11.06c0,1.11,0.26,1.97,0.69,2.66c0.43,0.6,0.86,0.94,1.37,0.86
		c0.26,0,0.43-0.09,0.6-0.26c0.09,0.34,0.17,0.6,0.17,0.77c0,0.6-0.17,1.11-0.6,1.46c-0.43,0.43-1.03,0.69-1.72,0.77
		c-0.6,0.09-1.29,0.09-2.06-0.17c-0.09,0-0.34-0.09-0.69-0.09c-0.43-0.09-0.86,0-1.29,0c-0.51,0.09-0.94,0.17-1.29,0.43
		c-0.43,0.17-0.6,0.26-0.69,0.34c-0.77,0.43-1.46,0.69-2.06,0.86c-0.77,0.17-1.37,0.09-1.8-0.17c-0.43-0.26-0.69-0.69-0.69-1.29
		c0-0.17,0-0.43,0.09-0.69c0.17,0.09,0.43,0.09,0.6,0.09c0.51-0.09,1.03-0.51,1.37-1.29s0.51-1.71,0.51-2.83
		c-0.09-2.23-0.09-4.46-0.17-6.69c0-0.77-0.26-1.54-0.6-2.14c-0.43-0.6-0.86-1.11-1.37-1.37c-0.51-0.26-0.94-0.26-1.37-0.09
		c0-0.43,0.17-0.94,0.6-1.37c0.43-0.43,0.86-0.69,1.37-0.77c0.43-0.09,0.86,0,1.29,0.34c-0.17-5.83-0.34-11.66-0.51-17.49
		c-1.72,1.29-3.17,3.17-4.38,5.57c-1.29,2.49-2.23,5.23-2.83,8.32c-0.69,3.09-0.94,6.17-0.86,9.26c0,0,0,0,0,0.09
		c0.09,0.69,0.17,1.11,0.17,1.46c0.09,3.09-1.2,5.66-3.95,7.8c-0.94,0.77-1.8,1.2-2.66,1.37c-1.03,0.17-1.8,0.09-2.57-0.34
		c-0.69-0.43-1.29-1.03-1.72-1.71c-0.43-0.69-0.6-1.29-0.6-1.8c0.17,0.09,0.51,0.09,1.03-0.09c0.86-0.17,1.63-0.6,2.32-1.37
		c0.69-0.69,0.94-1.71,0.94-2.92c0-1.89-0.94-4.12-2.75-6.69c-1.8-2.66-3.35-5.4-4.55-8.4c0.09,3.86,0.17,7.72,0.17,11.58
		c0.34-0.43,0.77-0.69,1.2-0.77c0.51-0.09,0.94,0,1.37,0.26c0.43,0.26,0.6,0.6,0.6,1.11c-0.43-0.09-0.86,0.17-1.37,0.6
		c-0.51,0.51-0.94,1.11-1.29,1.89c-0.34,0.77-0.51,1.54-0.51,2.4c0.09,2.92,0.09,5.92,0.17,8.83c0,0.94,0.26,1.54,0.6,1.97
		c0.34,0.34,0.77,0.43,1.2,0.09c0.17,0.43,0.09,0.94-0.17,1.29c-0.34,0.43-0.77,0.69-1.37,0.77c-0.34,0.09-0.6,0.09-0.86,0.09
		c-0.26,0-0.43,0-0.51-0.09c-0.51-0.09-0.94-0.09-1.29,0c-0.26,0.09-0.51,0.17-0.86,0.34c-0.26,0.17-0.43,0.26-0.51,0.26
		c-0.43,0.34-0.94,0.51-1.37,0.6c-0.6,0.17-1.03,0.09-1.37-0.17s-0.43-0.69-0.26-1.2c0.43,0.17,0.77-0.09,1.12-0.6
		c0.34-0.51,0.51-1.29,0.51-2.23c-0.09-4.37-0.17-8.75-0.26-13.2c0-0.77-0.17-1.54-0.6-2.14c-0.34-0.6-0.86-1.03-1.37-1.29
		c-0.51-0.26-0.94-0.26-1.37,0c0-0.43,0.17-0.94,0.6-1.37c0.34-0.43,0.86-0.69,1.37-0.77c0.43-0.09,0.86,0,1.29,0.26
		c-0.09-5.83-0.17-11.66-0.26-17.58c0-0.94-0.17-1.54-0.6-1.97c-0.34-0.34-0.77-0.43-1.12-0.09c-0.17-0.43-0.09-0.94,0.17-1.29
		c0.34-0.43,0.77-0.69,1.37-0.77c0.26-0.09,0.51-0.09,0.77-0.09c0.26,0,0.43,0,0.6,0c1.37-0.09,2.57-0.17,3.69-0.43
		c0.17-0.09,0.69-0.26,1.46-0.69c1.12-0.51,1.8-0.86,2.14-0.94c0.09,0,0.17,0,0.26-0.09c0.43-0.09,0.69-0.09,0.86,0
		c-0.17,0.69-0.26,1.54-0.26,2.66c0,1.89,0.43,3.86,1.2,6.09c0.77,2.23,1.8,4.46,3.17,6.77c0.6,0.94,1.12,1.89,1.72,2.83
		c0.43-3.69,1.8-7.46,4.12-11.4c2.32-3.86,4.89-7.46,7.81-10.55c0.43-0.09,0.86-0.09,1.2,0c0.34,0.09,0.6,0.09,0.69,0.09
		c0.77,0.17,1.46,0.26,1.97,0.17c0.43-0.09,0.86-0.17,1.29-0.34c0.34-0.17,0.6-0.26,0.69-0.34c0.77-0.43,1.46-0.69,2.06-0.77
		c0.69-0.09,1.29,0,1.72,0.26c0.43,0.26,0.69,0.69,0.69,1.29c0,0.09,0,0.34-0.09,0.77c-0.17-0.09-0.43-0.09-0.6-0.09
		c-0.51,0.09-0.94,0.51-1.29,1.29c-0.34,0.77-0.51,1.71-0.51,2.83c0.17,5.14,0.34,10.29,0.51,15.43c0.43-0.43,0.86-0.69,1.29-0.69
		c0.51-0.09,0.94,0,1.37,0.26c0.43,0.26,0.6,0.6,0.6,1.11c-0.43-0.09-0.86,0.09-1.37,0.51s-0.94,1.03-1.29,1.8
		C236.9,52.26,236.73,53.04,236.73,53.81z"/>
	<path class="st0" d="M242.85,70.14c0.26,0.09,0.43,0.09,0.51,0c0.77-0.09,1.46-0.6,2.14-1.54c0.69-0.94,1.03-1.97,1.03-3.09
		c-0.34-9.69-0.69-19.29-1.03-28.98c0-0.6-0.17-1.11-0.43-1.46c-0.26-0.34-0.6-0.77-1.12-1.2c0.43-0.09,0.86-0.26,1.29-0.69
		c0.43-0.34,0.86-0.94,1.29-1.8c1.03-1.89,2.66-3.6,4.98-4.97c2.23-1.37,4.38-2.14,6.26-2.32c1.89-0.17,4.03,0.26,6.43,1.29
		s4.12,2.4,5.32,4.12c0.51,0.77,0.94,1.29,1.37,1.63c0.43,0.34,0.86,0.43,1.37,0.43c-0.43,0.51-0.77,0.94-1.03,1.37
		c-0.26,0.43-0.34,0.86-0.26,1.54c0.43,9.69,0.86,19.29,1.29,28.98c0,0.77,0.26,1.46,0.6,2.06s0.86,1.11,1.37,1.46
		c0.51,0.34,1.03,0.51,1.46,0.51c0.09,0,0.26-0.09,0.51-0.09c0,0.77-0.34,1.37-0.94,1.89c-0.6,0.51-1.37,0.77-2.23,0.77
		c-0.17,0-0.26,0-0.26-0.09c-1.29-0.09-2.4-0.51-3.17-1.2c-0.86-0.77-1.46-1.63-1.8-2.74c-0.69,1.29-1.54,1.97-2.75,2.06
		c-0.86,0.09-1.63-0.17-2.23-0.69s-0.94-1.11-0.94-1.8c0-0.17,0-0.43,0.09-0.69c0.17,0.09,0.43,0.17,0.6,0.17
		c0.51,0,1.03-0.43,1.37-1.11c0.34-0.69,0.51-1.63,0.51-2.74c-0.09-2.92-0.26-5.83-0.34-8.75c-0.34,0.51-0.86,0.77-1.54,0.77
		c-0.43,0-0.77-0.09-1.12-0.26c-0.34-0.26-0.51-0.51-0.51-0.77c0.26,0.17,0.6,0.09,0.94-0.09c0.34-0.17,0.6-0.51,0.77-1.03
		c0.17-0.51,0.17-1.03,0.09-1.63c-0.26-1.11-0.69-1.89-1.46-2.4c-0.69-0.51-1.63-0.69-2.66-0.6c-1.03,0.09-1.89,0.43-2.57,1.03
		c-0.69,0.6-1.12,1.46-1.29,2.57c0,0.17,0,0.34,0,0.51c0,0.77,0.26,1.37,0.77,1.8c0.43,0.34,0.94,0.43,1.37,0.17
		c0,0.34-0.17,0.6-0.43,0.86c-0.34,0.26-0.69,0.43-1.12,0.51c-0.51,0.09-1.03-0.17-1.46-0.51c0.09,2.92,0.26,5.83,0.34,8.75
		c0,1.11,0.26,1.97,0.69,2.66c0.43,0.69,0.94,0.94,1.46,0.94c0.17,0,0.34-0.09,0.51-0.26c0.09,0.34,0.17,0.51,0.17,0.69
		c0,0.77-0.26,1.37-0.77,1.97c-0.51,0.6-1.29,0.94-2.06,0.94c-1.2,0.09-2.14-0.43-2.92-1.63c-0.26,1.11-0.77,2.14-1.54,3
		s-1.8,1.46-3.09,1.71c0,0-0.17,0.09-0.26,0.09c-0.86,0.09-1.54-0.09-2.23-0.43C243.37,71.43,243.02,70.83,242.85,70.14z
		 M253.23,46.05c0.94-1.97,2.57-3,4.98-3.26c2.32-0.17,4.12,0.6,5.23,2.4c-0.09-2.83-0.26-5.75-0.34-8.57
		c-0.17-3.09-0.69-5.49-1.72-7.29c-1.03-1.71-2.23-2.57-3.77-2.49c-1.54,0.09-2.75,1.11-3.6,3c-0.86,1.89-1.2,4.37-1.12,7.46
		C253.05,40.3,253.14,43.13,253.23,46.05z"/>
	<path class="st1" d="M47.25,108.81c0-0.17,0.09-0.43,0.17-0.69c0.17,0.09,0.34,0.17,0.51,0.17c0.51,0,1.03-0.34,1.46-1.11
		c0.43-0.69,0.69-1.63,0.69-2.74c0.51-10.8,0.94-21.61,1.46-32.41c0.09-1.11-0.09-2.06-0.43-2.74c-0.34-0.69-0.77-1.03-1.29-1.03
		c-0.17,0-0.43,0.09-0.6,0.17c-0.09-0.43-0.09-0.69-0.09-0.77c0-0.6,0.26-1.03,0.77-1.46c0.43-0.34,1.03-0.51,1.72-0.6
		c0.6,0,1.29,0.09,2.06,0.43c0.09,0,0.34,0.09,0.69,0.17c0.34,0.09,0.77,0.17,1.29,0.17c0.43,0,1.2-0.17,2.32-0.43
		c1.8-0.43,3.09-0.69,4.12-0.77c2.32-0.17,4.46,0.17,6.43,1.03c1.97,0.86,3.6,2.4,4.8,4.54c1.2,2.23,1.8,5.14,1.63,8.92
		c-0.17,3.69-0.86,6.86-2.32,9.35c-1.37,2.49-3.17,4.37-5.23,5.66c-2.14,1.2-4.29,1.89-6.61,2.06c-0.43,0-0.94,0-1.46-0.17
		c-0.51-0.17-0.94-0.34-1.12-0.6c-0.09,2.74-0.26,5.4-0.34,8.15c-0.09,1.11,0.09,2.06,0.51,2.74c0.34,0.69,0.86,1.03,1.37,0.94
		c0.17,0,0.34-0.09,0.51-0.17c0.09,0.34,0.09,0.51,0.09,0.69c0,0.6-0.26,1.11-0.77,1.46c-0.43,0.34-1.03,0.6-1.8,0.6
		c-0.6,0-1.29-0.09-2.06-0.34c-0.09,0-0.34-0.09-0.69-0.17c-0.43-0.09-0.86-0.17-1.29-0.09c-0.51,0-0.94,0.09-1.29,0.26
		c-0.43,0.17-0.6,0.26-0.69,0.26c-0.77,0.34-1.54,0.51-2.06,0.51c-0.69,0-1.29-0.17-1.72-0.51
		C47.42,109.93,47.25,109.41,47.25,108.81z M66.72,86.69c0.09-0.77,0-1.54-0.26-2.23c-0.26-0.69-0.6-1.2-1.12-1.54
		c-0.51-0.34-0.94-0.43-1.29-0.26c0-0.43,0.26-0.86,0.6-1.29c0.43-0.34,0.86-0.6,1.37-0.6c0.51,0,0.94,0.09,1.29,0.43
		c0-0.34,0-0.51,0.09-0.69c0.34-8.83-1.63-13.03-5.92-12.69c-1.46,0.09-2.23,1.37-2.32,3.94c-0.26,5.32-0.43,10.63-0.69,15.95
		c0.69-1.03,1.72-1.63,3-1.72c1.03-0.09,1.89,0.17,2.57,0.86c0.69,0.6,0.94,1.46,0.77,2.49c-0.17,0.77-0.43,1.29-0.86,1.71
		c-0.43,0.34-0.86,0.6-1.37,0.6c-0.43,0-0.77,0-1.12-0.17c-0.34-0.17-0.51-0.26-0.51-0.43c0.34-0.26,0.51-0.6,0.6-1.03
		c0-0.43,0-0.77-0.17-0.94c-0.17-0.17-0.34-0.34-0.51-0.26c-0.43,0-0.94,0.34-1.46,1.03c-0.51,0.69-0.77,1.37-0.86,2.14
		c0,0.17,0,0.43,0.09,0.86c0.26,1.11,0.86,1.63,1.89,1.54C63.64,94.06,65.7,91.49,66.72,86.69z"/>
	<path class="st1" d="M93.83,92.69c-0.43,0.09-0.94,0.09-1.46,0c-0.51-0.09-0.94-0.26-1.2-0.43c-0.09,2.66-0.17,5.4-0.26,8.06
		c0,1.11,0.17,2.06,0.51,2.66c0.43,0.6,0.86,0.94,1.37,0.86c0.26,0,0.43-0.17,0.6-0.26c0.09,0.26,0.09,0.51,0.09,0.6
		c0,0.6-0.26,1.11-0.69,1.63c-0.43,0.43-1.12,0.69-1.8,0.86c-0.6,0.09-1.29,0.09-2.06-0.09c-0.86-0.17-1.46-0.17-1.97-0.09
		c-0.51,0.09-1.2,0.34-2.06,0.77c-0.09,0.09-0.34,0.17-0.69,0.34c-0.43,0.17-0.86,0.34-1.37,0.34c-0.77,0.09-1.37,0-1.8-0.26
		c-0.43-0.26-0.69-0.77-0.6-1.37c0-0.09,0.09-0.34,0.17-0.69c0.17,0.09,0.43,0.09,0.6,0.09c0.51-0.09,1.03-0.51,1.46-1.29
		c0.43-0.77,0.69-1.71,0.69-2.83c0.34-10.8,0.69-21.61,1.03-32.33c0-1.11-0.17-2.06-0.51-2.66c-0.34-0.69-0.86-0.94-1.37-0.86
		c-0.17,0-0.43,0.09-0.6,0.26c-0.09-0.34-0.09-0.51-0.09-0.69c0-0.6,0.26-1.11,0.69-1.54c0.43-0.43,1.03-0.69,1.8-0.77
		c0.51-0.09,0.94-0.09,1.37,0c0.34,0.09,0.6,0.09,0.69,0.17c0.77,0.17,1.46,0.26,1.97,0.17c0.43-0.09,1.2-0.34,2.32-0.69
		c1.72-0.6,3.09-1.03,4.12-1.2c2.32-0.43,4.46-0.26,6.43,0.34c1.97,0.69,3.6,1.97,4.89,4.12c1.29,2.06,1.8,4.97,1.72,8.66
		c-0.09,3.43-0.69,6.35-1.8,8.75c-1.12,2.49-2.66,4.46-4.55,6.09c-0.09,2.57,0.26,5.06,0.86,7.46c0.6,2.4,1.54,4.37,2.66,5.92
		c1.12,1.54,2.32,2.31,3.6,2.4c0.09,0,0.34,0,0.6-0.09c0.51-0.09,0.94-0.34,1.2-0.77c0.26-0.43,0.43-0.86,0.43-1.29
		c0-0.69-0.17-1.03-0.6-1.03c0.26-0.26,0.6-0.51,1.12-0.6c0.51-0.09,0.94-0.09,1.37,0.09c0.43,0.17,0.6,0.43,0.77,0.86
		c0.09,0.34,0.09,0.6,0.09,0.77c0,1.29-0.6,2.57-1.72,3.77c-1.12,1.2-2.4,1.97-3.86,2.23c-2.83,0.6-5.32,0.09-7.29-1.54
		c-2.06-1.63-3.6-3.86-4.63-6.52C94.78,98.18,94.09,95.44,93.83,92.69z M100.44,75.8c0.26-8.83-1.8-12.78-6.01-12
		c-1.46,0.26-2.23,1.63-2.32,4.2c-0.17,5.32-0.34,10.63-0.43,15.95c0.77-1.11,1.8-1.8,3-2.06c1.03-0.17,1.89,0,2.57,0.6
		c0.69,0.51,0.94,1.37,0.77,2.4c-0.17,0.77-0.43,1.37-0.86,1.8c-0.43,0.43-0.86,0.69-1.37,0.77c-0.43,0.09-0.77,0.09-1.12,0
		c-0.34-0.09-0.51-0.26-0.51-0.34c0.34-0.34,0.51-0.69,0.6-1.11c0-0.86-0.26-1.2-0.77-1.11c-0.44,0.09-0.97,0.53-1.49,1.25
		c-0.48,0.65-0.74,1.46-0.74,2.27v0.77c0.26,1.03,0.94,1.46,1.97,1.29C97.95,89.43,100.27,84.63,100.44,75.8z"/>
	<path class="st1" d="M138.79,90.03c2.23-4.46,3.43-10.12,3.43-17.15c0.09-7.03-1.03-12.18-3.17-15.52c0.6-0.09,1.03-0.43,1.29-0.86
		c0.26-0.51,0.34-0.86,0.17-1.11c-0.17,0.17-0.43,0.34-0.77,0.43c-0.43,0.09-0.94,0.09-1.46-0.09c-0.51-0.17-0.94-0.34-1.37-0.6
		c-2.14-1.63-4.8-1.97-7.98-1.2c-3.17,0.77-5.83,2.49-7.89,5.06c-0.43,0.43-0.86,0.86-1.46,1.29c-0.51,0.43-1.03,0.69-1.37,0.77
		c-0.34,0.09-0.6,0.09-0.77-0.09c-0.17,0.34-0.09,0.69,0.17,1.03c0.26,0.34,0.69,0.43,1.29,0.26c-2.32,4.46-3.52,10.2-3.6,17.15
		c-0.17,6.95,0.86,12.18,3.09,15.61c-0.43,0.09-0.77,0.26-1.03,0.51c-0.26,0.26-0.43,0.51-0.51,0.86c-0.09,0.26-0.09,0.51,0,0.69
		c0.17-0.26,0.43-0.43,0.77-0.43c0.43-0.09,0.94-0.09,1.46,0.09c0.51,0.17,1.03,0.43,1.37,0.69c2.06,1.71,4.72,2.14,7.98,1.37
		c3.17-0.77,5.92-2.57,8.15-5.32c0.34-0.51,0.77-0.94,1.37-1.37c0.51-0.43,1.03-0.69,1.46-0.77c0.26-0.09,0.51-0.09,0.86,0.09
		c0.09-0.34,0.09-0.6-0.17-1.03C139.82,89.95,139.39,89.86,138.79,90.03z M132.69,90.46c-0.09,0.09-0.17,0.26-0.17,0.34
		c-1.03,2.66-2.32,4.2-4.03,4.63c-1.54,0.34-2.92-0.69-4.03-3.09c-1.12-2.49-1.63-7.37-1.54-14.66c0-1.63,0.17-3.69,0.34-6.17
		c0,0.09,0.09,0.17,0.09,0.34c0-2.66,0.6-5.4,1.29-8.23c0.09-0.69,0.26-1.37,0.6-2.06c-0.09,0-0.09,0.09-0.17,0.09
		c0.94-2.57,2.23-4.03,3.95-4.46c1.63-0.43,2.92,0.6,4.12,3c1.12,2.4,1.63,7.29,1.63,14.58c0,2.23-0.17,4.37-0.34,6.52
		C134.41,84.29,134.15,87.38,132.69,90.46z"/>
	<path class="st1" d="M145.99,93.19c0-0.34,0.09-0.6,0.34-0.86c0.34,0.17,0.77-0.09,1.37-0.69c0.6-0.6,1.12-1.46,1.63-2.49
		c2.83-6.17,5.66-12.35,8.41-18.52c0.17-0.34,0.34-0.69,0.51-1.03c-0.43-0.77-0.86-1.63-1.2-2.4c-2.14-4.2-4.2-8.4-6.26-12.6
		c-0.51-1.03-1.12-1.8-1.8-2.32c-0.69-0.51-1.29-0.69-1.8-0.51c-0.17,0.09-0.34,0.17-0.43,0.26c-0.09-0.34-0.17-0.6-0.17-0.94
		c0-1.11,0.77-1.89,2.32-2.32c0.51-0.17,1.2-0.17,1.97-0.09c0.09,0,0.26,0,0.6,0.09c0.34,0,0.77,0,1.2-0.17
		c0.6-0.17,1.29-0.51,2.06-1.03c0.86-0.51,1.46-0.77,1.89-0.94c0.86-0.26,1.46-0.26,1.89,0c0.43,0.17,0.69,0.69,0.86,1.37
		c-0.34,0-0.6,0-0.86,0c-0.34,0.09-0.6,0.26-0.77,0.51c-0.17,0.26-0.26,0.6-0.26,1.03c0,0.77,0.26,1.71,0.86,2.83
		c1.29,2.66,2.66,5.32,3.95,7.97c1.89-4.2,3.77-8.4,5.66-12.6c0.34-0.69,0.51-1.37,0.51-2.06c0-0.43-0.09-0.69-0.26-0.77
		c-0.17-0.17-0.43-0.09-0.69,0.09c0.09-0.51,0.43-0.94,0.77-1.29c0.43-0.34,0.94-0.51,1.63-0.69c0.43-0.09,0.86-0.09,1.2,0
		c0.51,0.09,0.94,0.09,1.2,0c0.43-0.09,0.86-0.34,1.29-0.6c0.09-0.09,0.26-0.17,0.51-0.34c0.26-0.17,0.6-0.26,0.86-0.34
		c0.34-0.09,0.6-0.09,0.86,0c0.26,0.09,0.34,0.34,0.34,0.6c0,0.26-0.09,0.51-0.34,0.94c-0.26-0.17-0.69,0.09-1.29,0.69
		s-1.2,1.46-1.63,2.49c-2.75,6.17-5.49,12.35-8.24,18.52c0,0.09,0,0.09-0.09,0.17c0.51,1.03,1.03,2.06,1.54,3.17
		c2.14,4.2,4.29,8.32,6.43,12.52c0.51,1.03,1.12,1.8,1.89,2.32c0.69,0.51,1.37,0.69,1.89,0.51c0.17-0.09,0.34-0.17,0.51-0.34
		c0.09,0.34,0.09,0.6,0.09,0.77c0,0.6-0.17,1.11-0.6,1.54c-0.43,0.43-1.03,0.69-1.72,0.94c-0.51,0.17-1.2,0.17-1.89,0
		c-0.77-0.09-1.46-0.09-2.06,0.09c-0.51,0.17-1.2,0.43-1.89,0.94c-0.77,0.51-1.46,0.86-2.06,1.03c-0.86,0.26-1.54,0.26-1.89,0
		c-0.43-0.26-0.69-0.69-0.86-1.46c0.34,0,0.6,0,0.86-0.09c0.69-0.17,1.03-0.69,1.03-1.54c0-0.77-0.26-1.63-0.86-2.83
		c-1.46-2.92-2.92-5.74-4.29-8.66c-2.06,4.46-4.03,9-6.09,13.46c-0.43,0.86-0.6,1.54-0.6,2.14c0,0.43,0.09,0.69,0.26,0.77
		c0.17,0.09,0.43,0.09,0.77-0.09c-0.17,0.94-1.03,1.63-2.49,1.97c-0.34,0.09-0.77,0.09-1.29,0c-0.34-0.09-0.69-0.09-1.2,0
		c-0.51,0.09-0.94,0.34-1.29,0.6c-0.09,0.09-0.26,0.17-0.51,0.34c-0.26,0.17-0.6,0.26-0.86,0.34c-0.34,0.09-0.69,0.09-0.86,0
		C146.08,93.7,145.99,93.53,145.99,93.19z"/>
	<path class="st1" d="M182.28,82.79c0-0.09,0-0.34,0.08-0.69c0.16,0.09,0.4,0.09,0.56,0c0.48-0.17,0.89-0.6,1.29-1.37
		c0.4-0.77,0.56-1.8,0.56-2.92c0-3.17-0.08-6.43-0.08-9.6c0-1.11-0.24-2.14-0.72-3c-0.48-0.86-1.05-1.54-1.69-1.97
		c-0.64-0.43-1.29-0.51-1.85-0.43c-0.24,0.09-0.4,0.09-0.48,0.17c0-0.69,0.24-1.37,0.8-2.06c0.56-0.69,1.21-1.11,1.93-1.29
		c0.72-0.17,1.37-0.09,1.85,0.34c-0.08-4.46-0.08-9-0.16-13.46c0-1.11-0.24-1.97-0.56-2.57c-0.4-0.6-0.8-0.86-1.29-0.69
		c-0.16,0.09-0.4,0.17-0.56,0.34c-0.08-0.26-0.08-0.51-0.08-0.69c0-0.77,0.24-1.46,0.8-2.14c0.56-0.69,1.21-1.11,2.01-1.29
		c1.05-0.26,1.93,0.09,2.66,1.2c0.24-1.2,0.8-2.23,1.45-3.26c0.72-0.94,1.69-1.71,2.82-2.14c0.08,0,0.24-0.09,0.32-0.09
		c0.72-0.26,1.37-0.17,2.01,0.17c0.64,0.34,0.97,0.86,1.05,1.63c-0.24,0-0.4,0-0.48,0c-0.64,0.17-1.29,0.77-2.01,1.72
		c-0.64,1.03-1.05,2.06-0.97,3.17c0.08,5.4,0.16,10.8,0.16,16.12c0.48-0.69,1.13-1.11,1.85-1.29c0.72-0.17,1.37-0.09,1.93,0.26
		c0.56,0.34,0.89,0.94,0.89,1.63c-0.08,0-0.24,0-0.4,0.09c-0.56,0.17-1.21,0.6-1.85,1.37c-0.64,0.77-1.21,1.71-1.69,2.83
		c-0.48,1.11-0.64,2.23-0.64,3.34c0,3.17,0.08,6.43,0.08,9.6c0,1.11,0.24,1.97,0.64,2.57c0.4,0.6,0.8,0.86,1.29,0.69
		c0.24-0.09,0.4-0.17,0.56-0.34c0.08,0.26,0.08,0.51,0.08,0.6c0,0.6-0.16,1.2-0.64,1.63c-0.4,0.51-0.97,0.77-1.69,1.03
		c-0.56,0.17-1.21,0.17-1.93,0.09c-0.64-0.17-1.29-0.09-1.85,0c-0.48,0.17-1.13,0.43-1.85,0.94c-0.72,0.51-1.37,0.86-1.93,1.03
		c-0.72,0.17-1.29,0.17-1.69-0.09C182.44,83.9,182.28,83.47,182.28,82.79z"/>
	<path class="st1" d="M239.73,54.98c0.09,3.69,0.26,7.37,0.34,11.06c0,1.11,0.26,1.97,0.69,2.66c0.43,0.6,0.86,0.94,1.37,0.86
		c0.26,0,0.43-0.09,0.6-0.26c0.09,0.34,0.17,0.6,0.17,0.77c0,0.6-0.17,1.11-0.6,1.46c-0.43,0.43-1.03,0.69-1.72,0.77
		c-0.6,0.09-1.29,0-2.06-0.17c-0.09,0-0.34-0.09-0.69-0.09c-0.43-0.09-0.86-0.09-1.29,0c-0.51,0.09-0.94,0.17-1.29,0.34
		c-0.43,0.17-0.6,0.26-0.69,0.34c-0.77,0.43-1.46,0.69-2.06,0.77c-0.77,0.09-1.37,0.09-1.8-0.17c-0.43-0.26-0.69-0.69-0.69-1.37
		c0-0.17,0-0.43,0.09-0.69c0.17,0.09,0.43,0.09,0.6,0.09c0.51-0.09,1.03-0.51,1.37-1.29c0.34-0.77,0.51-1.72,0.51-2.83
		c-0.09-2.23-0.17-4.46-0.17-6.69c0-0.77-0.26-1.54-0.6-2.14c-0.43-0.6-0.86-1.11-1.37-1.37c-0.51-0.26-0.94-0.34-1.37-0.09
		c0-0.43,0.17-0.94,0.6-1.29c0.43-0.43,0.86-0.69,1.37-0.77c0.43-0.09,0.86,0,1.29,0.34c-0.17-5.83-0.34-11.66-0.51-17.49
		c-1.72,1.29-3.17,3.09-4.38,5.57c-1.29,2.49-2.23,5.23-2.83,8.32c-0.69,3.09-0.94,6.17-0.86,9.26c0,0,0,0,0,0.09
		c0.09,0.69,0.17,1.11,0.17,1.46c0.09,3.09-1.2,5.66-3.95,7.72c-0.94,0.77-1.8,1.2-2.66,1.37c-1.03,0.17-1.8,0.09-2.57-0.43
		c-0.69-0.43-1.29-1.03-1.72-1.8c-0.43-0.69-0.6-1.29-0.6-1.8c0.17,0.09,0.51,0.09,1.03,0c0.86-0.17,1.63-0.6,2.32-1.29
		c0.69-0.69,0.94-1.63,0.94-2.92c0-1.89-0.94-4.12-2.75-6.69c-1.8-2.66-3.35-5.49-4.55-8.49c0.09,3.86,0.17,7.72,0.26,11.58
		c0.34-0.43,0.77-0.69,1.2-0.77c0.51-0.09,0.94,0,1.37,0.26c0.43,0.26,0.6,0.6,0.69,1.11c-0.43-0.09-0.86,0.17-1.37,0.6
		c-0.51,0.51-0.94,1.11-1.29,1.89c-0.34,0.77-0.51,1.54-0.51,2.4c0.09,2.92,0.09,5.92,0.17,8.83c0,0.94,0.26,1.54,0.6,1.97
		c0.34,0.34,0.77,0.43,1.2,0.09c0.17,0.43,0.09,0.94-0.17,1.29c-0.34,0.43-0.77,0.69-1.37,0.77c-0.34,0.09-0.6,0.09-0.86,0.09
		s-0.43,0-0.51-0.09c-0.51-0.09-0.94-0.09-1.29,0c-0.26,0.09-0.51,0.17-0.86,0.34c-0.26,0.17-0.43,0.26-0.51,0.26
		c-0.43,0.34-0.94,0.51-1.37,0.6c-0.6,0.17-1.03,0.09-1.37-0.17c-0.34-0.26-0.43-0.69-0.26-1.2c0.43,0.17,0.77-0.09,1.12-0.6
		s0.51-1.29,0.51-2.23c-0.09-4.37-0.17-8.75-0.26-13.2c0-0.77-0.17-1.54-0.6-2.14c-0.34-0.6-0.86-1.03-1.37-1.29
		c-0.51-0.26-0.94-0.26-1.37,0c0-0.43,0.17-0.94,0.6-1.29c0.34-0.43,0.86-0.69,1.37-0.77c0.43-0.09,0.86,0,1.29,0.26
		c-0.09-5.83-0.17-11.66-0.34-17.49c0-0.94-0.17-1.54-0.6-1.97c-0.34-0.34-0.77-0.43-1.12-0.09c-0.17-0.43-0.09-0.94,0.17-1.29
		c0.34-0.43,0.77-0.69,1.37-0.77c0.26-0.09,0.51-0.09,0.77-0.09c0.26,0,0.43,0,0.6,0c1.37,0,2.57-0.17,3.69-0.43
		c0.17-0.09,0.69-0.26,1.46-0.69c1.12-0.51,1.8-0.86,2.14-0.94c0.09,0,0.17,0,0.26-0.09c0.43-0.09,0.69-0.09,0.86,0.09
		c-0.17,0.69-0.26,1.54-0.26,2.66c0,1.89,0.43,3.86,1.2,6.09c0.77,2.23,1.8,4.46,3.17,6.77c0.6,0.94,1.12,1.89,1.72,2.83
		c0.43-3.69,1.8-7.46,4.12-11.32c2.23-3.86,4.89-7.37,7.81-10.46c0.43-0.09,0.86-0.09,1.2,0c0.34,0.09,0.6,0.09,0.69,0.09
		c0.77,0.17,1.46,0.26,1.97,0.17c0.43-0.09,0.86-0.17,1.29-0.34c0.34-0.17,0.6-0.26,0.69-0.34c0.77-0.43,1.46-0.69,2.06-0.77
		c0.69-0.09,1.29,0,1.72,0.26c0.43,0.26,0.69,0.69,0.69,1.29c0,0.09,0,0.34-0.09,0.77c-0.17-0.09-0.43-0.09-0.6-0.09
		c-0.51,0.09-0.94,0.51-1.29,1.2c-0.34,0.77-0.51,1.71-0.51,2.83c0.17,5.14,0.34,10.29,0.51,15.43c0.43-0.43,0.86-0.69,1.29-0.69
		c0.51-0.09,0.94,0,1.37,0.34c0.43,0.26,0.6,0.69,0.6,1.11c-0.43-0.09-0.86,0.09-1.37,0.51c-0.51,0.43-0.94,1.03-1.29,1.8
		C239.9,53.35,239.73,54.12,239.73,54.98z"/>
	<path class="st1" d="M244.77,71.51c0.26,0.09,0.43,0.09,0.51,0.09c0.77-0.09,1.46-0.6,2.14-1.46c0.69-0.86,1.03-1.89,1.03-3.09
		c-0.34-9.69-0.69-19.29-1.03-28.98c0-0.6-0.17-1.11-0.43-1.46c-0.26-0.34-0.6-0.77-1.12-1.2c0.43-0.09,0.86-0.26,1.29-0.69
		c0.43-0.34,0.86-0.94,1.29-1.8c1.03-1.89,2.66-3.52,4.98-4.89c2.23-1.37,4.38-2.06,6.26-2.23c1.89-0.17,4.03,0.34,6.43,1.37
		c2.4,1.03,4.12,2.49,5.32,4.2c0.51,0.77,0.94,1.29,1.37,1.63c0.43,0.34,0.86,0.51,1.37,0.51c-0.43,0.51-0.77,0.94-1.03,1.37
		s-0.34,0.86-0.26,1.54c0.43,9.69,0.86,19.29,1.37,28.98c0,0.77,0.26,1.46,0.6,2.14c0.43,0.6,0.86,1.11,1.37,1.46
		c0.51,0.34,1.03,0.51,1.46,0.51c0.09,0,0.26,0,0.52-0.09c0,0.77-0.34,1.37-0.94,1.89c-0.6,0.51-1.37,0.77-2.23,0.77
		c-0.17,0-0.26,0-0.26-0.09c-1.29-0.09-2.4-0.51-3.17-1.29c-0.86-0.77-1.46-1.71-1.8-2.74c-0.69,1.29-1.54,1.97-2.75,2.06
		c-0.86,0-1.63-0.17-2.23-0.69c-0.6-0.51-0.94-1.11-0.94-1.8c0-0.17,0-0.43,0.09-0.69c0.17,0.09,0.43,0.17,0.6,0.17
		c0.51,0,1.03-0.43,1.37-1.11c0.34-0.69,0.51-1.63,0.51-2.74c-0.09-2.92-0.26-5.83-0.34-8.75c-0.34,0.51-0.86,0.77-1.54,0.77
		c-0.43,0-0.77-0.09-1.12-0.34c-0.34-0.26-0.51-0.51-0.51-0.77c0.26,0.17,0.6,0.09,0.94-0.09c0.34-0.17,0.6-0.51,0.77-1.03
		c0.17-0.51,0.17-1.03,0.09-1.63c-0.26-1.11-0.77-1.89-1.46-2.4c-0.77-0.51-1.63-0.69-2.66-0.6s-1.89,0.43-2.57,1.03
		c-0.69,0.6-1.12,1.46-1.29,2.57c0,0.17,0,0.34,0,0.51c0,0.77,0.26,1.37,0.77,1.8c0.43,0.43,0.94,0.43,1.37,0.17
		c0,0.34-0.17,0.6-0.43,0.86c-0.34,0.26-0.69,0.43-1.12,0.43c-0.51,0.09-1.03-0.17-1.54-0.6c0.09,2.92,0.26,5.83,0.34,8.75
		c0.09,1.11,0.26,1.97,0.69,2.66c0.43,0.69,0.94,0.94,1.46,0.94c0.17,0,0.34-0.09,0.51-0.26c0.09,0.34,0.17,0.51,0.17,0.69
		c0,0.77-0.26,1.37-0.77,1.97s-1.29,0.86-2.06,0.94c-1.2,0.09-2.14-0.43-2.92-1.63c-0.26,1.11-0.77,2.14-1.54,3
		c-0.77,0.86-1.8,1.46-3.09,1.71c0,0-0.17,0.09-0.26,0.09c-0.86,0.09-1.54-0.09-2.23-0.51C245.2,72.8,244.85,72.2,244.77,71.51z
		 M255.89,47.5c0.94-1.97,2.57-3,4.98-3.17c2.32-0.17,4.12,0.69,5.23,2.49c-0.09-2.83-0.26-5.74-0.34-8.57
		c-0.17-3.09-0.69-5.49-1.72-7.29c-1.03-1.8-2.32-2.57-3.77-2.49c-1.54,0.09-2.75,1.11-3.6,3c-0.86,1.89-1.2,4.37-1.12,7.46
		C255.71,41.76,255.8,44.59,255.89,47.5z"/>
	<path class="st1" d="M7.02,101.18c0.6-1.54,4.38-1.03,2.57-4.29c-3.43-6-3.95-12.78-4.12-19.46C5.22,68,12.59,58.48,21.17,56.94
		c2.06-0.34,4.29-0.51,5.58,1.2c1.37,1.97,3.26,2.49,5.15,3.52c4.63,2.4,7.46,8.15,6.18,12.43c-1.63,5.32-6.35,8.83-11.5,8.4
		c-4.89-0.43-7.21-3.94-5.15-8.23c0.6-1.37,1.37-2.66-0.09-3.86c-1.37-1.11-2.66-0.43-3.95,0.43c-1.72,1.2-2.75,2.66-3.35,4.72
		c-1.63,5.32-0.26,10.12,2.06,14.83c5.4,11.15,14.24,18.78,24.79,24.61c11.41,6.35,23.33,8.92,36.63,7.8
		c13.3-1.11,25.82-4.12,38-9.35c3.26-1.37,5.49-4.12,8.58-5.57c1.03-0.43,2.06-1.11,3.17-0.26c0.94,0.77,0.43,1.8,0.34,2.74
		c-0.51,4.2-2.14,7.72-5.92,9.95c-2.57,1.54-1.03,3.77-0.6,5.32c0.43,1.63,2.23,0.17,3.26-0.26c4.46-1.89,8.84-3.94,13.38-5.74
		c5.83-2.32,11.41-5.4,17.67-6.43c2.06-0.34,4.63-1.03,5.92,1.11c1.29,2.32,2.75,1.46,4.29,1.03c7.46-2.32,15.18-2.92,22.91-2.32
		c6.35,0.51,12.35,2.57,16.81,7.55c4.03,4.46,1.29,12.69-4.63,13.98c-1.29,0.26-2.83,0.34-3.52-0.94c-0.86-1.54,0.94-1.71,1.72-2.4
		c3.86-3.52,3.26-7.72-1.46-9.78c-6.01-2.66-12.27-3.43-18.87-2.66c-11.5,1.37-22.22,5.14-33.03,8.83
		c-14.5,4.97-29.08,9.43-44.44,10.8c-22.65,2.14-44.52,0.17-64.34-12.52c-1.12-0.77-2.14-0.86-3.52-0.34
		c-7.38,2.74-7.38,2.66-11.07-4.54c-0.17-0.34-0.51-0.51-1.03-0.94c-0.69,4.2-2.57,7.03-7.03,6.77c-4.46-0.17-9.78-5.4-10.38-10.12
		c-0.6-4.63,2.75-6,6.61-7.2C7.62,107.36,6.5,104.53,7.02,101.18z M8.48,72.03c-1.12,2.57-1.46,5.06,0.26,7.72
		c1.2,1.89,1.8,4.2,2.23,6.43c2.06,9.52,8.32,16.12,14.58,23.07c11.07,12.18,25.39,18.52,40.75,20.32
		c12.35,1.37,25.48,1.29,37.92-2.57c-7.89-0.69-15.61,2.83-23.59,0.77c15.53-0.86,29.43-6.09,41.69-15.43
		c-2.92,1.37-5.92,2.57-8.75,4.03c-9.61,4.97-19.99,7.55-30.63,9.17c-11.67,1.71-23.16-0.26-33.97-4.63
		c-13.9-5.57-25.82-13.98-33.29-27.61c-3.09-5.66-4.63-11.58-5.23-17.84c-0.26-2.57,0.77-4.72,2.14-6.77
		c0.69-1.11,2.06-2.06,0.94-4.37C11.22,66.8,9.59,69.28,8.48,72.03z M133.3,123.57c-16.99,8.32-34.92,11.15-53.62,9.52
		c-1.72-0.17-3.43-0.09-5.15-0.09c-1.54,0-3.17,0-5.32,0c16.64,6.26,63.4-2.06,84.93-15.01
		C146.42,118.17,139.73,120.48,133.3,123.57z M30.18,68.94c1.12,5.66-3.69,5.32-6.95,6.77c3.6-0.51,7.72,2.4,10.64-1.63
		c1.63-2.32,2.83-5.23,0.77-7.97c-4.29-5.92-10.12-3.52-15.61-2.83C24.86,63.11,29.49,65.17,30.18,68.94z M13.28,124.68
		c1.72,0.43,3.35,0,4.2-1.37c1.2-1.89-1.2-1.72-1.89-2.57c-1.72-2.06-4.2-3.34-5.4-6c-0.43-0.94-0.34-3-2.32-2.23
		c-1.29,0.51-1.46,1.97-1.46,3.34C6.59,118.85,10.62,123.99,13.28,124.68z"/>
	<path class="st1" d="M7.87,102.38c-0.17-0.69-0.17-1.46-0.6-1.97c-5.4-6.86-4.63-14.32-2.57-21.69
		c2.23-8.15,5.75-15.86,11.32-22.89c1.29-1.63,2.4-3.43,2.75-5.49c0.26-1.46,0.26-3.26-1.46-3.77c-3.09-0.94-2.06-2.4-1.63-4.03
		c3.17-10.2,3.52-20.32-2.49-30.01c-1.29-2.14-2.92-4.03-5.66-5.14c-1.2-0.51-2.49-0.69-3.6,0.17c-0.69,0.51-0.86,1.2-0.69,1.89
		c0.34,1.29,1.46,1.63,2.92,1.54c3.69-0.26,4.12,2.32,4.63,4.12c2.57,9.69,3.17,19.38,0.34,29.15C7.36,56.76,2.56,68.94,1.1,81.8
		c-0.6,5.4-0.51,10.72,1.63,15.86C3.59,99.81,4.61,101.95,7.87,102.38z"/>
	<path class="st1" d="M152.77,111.3c0.69,0.09,1.46-0.09,2.06,0.26c7.72,4.12,14.93,2.14,21.96-1.11
		c7.72-3.6,14.76-8.32,20.85-15.01c1.46-1.54,3-2.92,4.98-3.6c1.37-0.51,3.17-0.86,3.95,0.77c1.46,2.92,2.75,1.63,4.29,0.86
		c9.61-4.8,19.56-6.95,30.2-2.66c2.32,0.94,4.46,2.23,6.01,4.63c0.69,1.11,1.12,2.31,0.43,3.52c-0.43,0.77-1.03,1.03-1.8,0.94
		c-1.29-0.09-1.8-1.11-1.97-2.57c-0.43-3.69-2.92-3.69-4.89-3.86c-10.04-0.86-19.82,0.17-28.91,4.63
		c-11.75,5.74-23.08,12.52-35.52,16.21c-5.32,1.54-10.55,2.32-16.04,1.11C156.03,115.07,153.71,114.39,152.77,111.3z"/>
	<path class="st2" d="M8.73,102.04c0.6-1.54,4.38-1.03,2.57-4.29c-3.43-6-3.95-12.78-4.12-19.46c-0.26-9.43,7.12-18.95,15.7-20.49
		c2.06-0.34,4.29-0.51,5.58,1.2c1.37,1.97,3.26,2.49,5.15,3.52c4.63,2.4,7.46,8.15,6.18,12.43c-1.63,5.32-6.35,8.83-11.5,8.4
		c-4.89-0.43-7.21-3.94-5.15-8.23c0.6-1.37,1.37-2.66-0.09-3.86c-1.37-1.11-2.66-0.43-3.95,0.43c-1.72,1.2-2.75,2.66-3.35,4.72
		c-1.63,5.32-0.26,10.12,2.06,14.83c5.4,11.15,14.24,18.78,24.79,24.61c11.41,6.35,23.33,8.92,36.63,7.8
		c13.3-1.11,25.82-4.12,38-9.35c3.26-1.37,5.49-4.12,8.58-5.57c1.03-0.43,2.06-1.11,3.17-0.26c0.94,0.77,0.43,1.8,0.34,2.74
		c-0.51,4.2-2.14,7.72-5.92,9.95c-2.57,1.54-1.03,3.77-0.6,5.32c0.43,1.63,2.23,0.17,3.26-0.26c4.46-1.89,8.84-3.94,13.38-5.75
		c5.83-2.31,11.41-5.4,17.67-6.43c2.06-0.34,4.63-1.03,5.92,1.11c1.29,2.31,2.75,1.46,4.29,1.03c7.46-2.31,15.18-2.92,22.91-2.31
		c6.35,0.51,12.35,2.57,16.81,7.55c4.03,4.46,1.29,12.69-4.63,13.98c-1.29,0.26-2.83,0.34-3.52-0.94c-0.86-1.54,0.94-1.71,1.72-2.4
		c3.86-3.52,3.26-7.72-1.46-9.78c-6.01-2.66-12.27-3.43-18.87-2.66c-11.5,1.37-22.22,5.14-33.03,8.83
		c-14.5,4.97-29.08,9.43-44.44,10.8c-22.65,2.14-44.52,0.17-64.34-12.52c-1.12-0.77-2.14-0.86-3.52-0.34
		c-7.38,2.74-7.38,2.66-11.07-4.54c-0.17-0.34-0.51-0.51-1.03-0.94c-0.69,4.2-2.57,7.03-7.03,6.77c-4.46-0.17-9.78-5.4-10.38-10.12
		c-0.6-4.63,2.75-6,6.61-7.2C9.33,108.21,8.22,105.38,8.73,102.04z M10.19,72.89c-1.12,2.57-1.46,5.06,0.26,7.72
		c1.2,1.89,1.8,4.2,2.23,6.43c2.06,9.52,8.32,16.12,14.58,23.07c11.07,12.18,25.39,18.52,40.75,20.32
		c12.35,1.37,25.48,1.29,37.92-2.57c-7.89-0.69-15.61,2.83-23.59,0.77c15.53-0.86,29.42-6.09,41.69-15.43
		c-2.92,1.37-5.92,2.57-8.75,4.03c-9.61,4.97-19.99,7.55-30.63,9.17c-11.67,1.71-23.16-0.26-33.97-4.63
		c-13.9-5.57-25.82-13.98-33.29-27.61c-3.09-5.66-4.63-11.58-5.23-17.84c-0.26-2.57,0.77-4.72,2.14-6.77
		c0.69-1.11,2.06-2.06,0.94-4.37C12.94,67.65,11.31,70.14,10.19,72.89z M135.01,124.57c-16.99,8.32-34.92,11.15-53.62,9.52
		c-1.72-0.17-3.43-0.09-5.15-0.09c-1.54,0-3.17,0-5.32,0c16.64,6.26,63.4-2.06,84.93-15.01
		C148.14,119.17,141.45,121.48,135.01,124.57z M31.9,69.8c1.12,5.66-3.69,5.32-6.95,6.77c3.6-0.51,7.72,2.4,10.64-1.63
		c1.63-2.32,2.83-5.23,0.77-7.97c-4.29-5.92-10.12-3.52-15.61-2.83C26.58,63.97,31.21,66.03,31.9,69.8z M15,125.53
		c1.72,0.43,3.35,0,4.2-1.37c1.2-1.89-1.2-1.71-1.89-2.57c-1.72-2.06-4.2-3.34-5.4-6c-0.43-0.94-0.34-3-2.32-2.23
		c-1.29,0.51-1.46,1.97-1.46,3.34C8.3,119.7,12.34,124.85,15,125.53z"/>
	<path class="st2" d="M9.59,103.24c-0.17-0.69-0.17-1.46-0.6-1.97c-5.4-6.86-4.63-14.32-2.57-21.69
		c2.23-8.15,5.75-15.86,11.32-22.89c1.29-1.63,2.4-3.43,2.75-5.49c0.26-1.46,0.26-3.26-1.46-3.77c-3.09-0.94-2.06-2.4-1.63-4.03
		c3.17-10.2,3.52-20.32-2.49-30.01c-1.29-2.14-2.92-4.03-5.66-5.14c-1.2-0.51-2.49-0.69-3.6,0.17c-0.69,0.51-0.86,1.2-0.69,1.89
		c0.34,1.29,1.46,1.63,2.92,1.54c3.69-0.26,4.12,2.32,4.63,4.12c2.57,9.69,3.17,19.38,0.34,29.15C9.08,57.62,4.27,69.8,2.81,82.66
		c-0.6,5.4-0.51,10.72,1.63,15.86C5.3,100.67,6.33,102.81,9.59,103.24z"/>
	<path class="st2" d="M154.48,112.16c0.69,0.09,1.46-0.09,2.06,0.26c7.72,4.12,14.93,2.14,21.96-1.11
		c7.72-3.6,14.76-8.32,20.85-15.01c1.46-1.54,3-2.92,4.98-3.6c1.37-0.51,3.17-0.86,3.95,0.77c1.46,2.92,2.75,1.63,4.29,0.86
		c9.61-4.8,19.56-6.95,30.2-2.66c2.32,0.94,4.46,2.23,6.01,4.63c0.69,1.11,1.12,2.32,0.43,3.52c-0.43,0.77-1.03,1.03-1.8,0.94
		c-1.29-0.09-1.8-1.11-1.97-2.57c-0.43-3.69-2.92-3.69-4.89-3.86c-10.04-0.86-19.82,0.17-28.91,4.63
		c-11.75,5.75-23.08,12.52-35.52,16.21c-5.32,1.54-10.55,2.31-16.04,1.11C157.74,115.93,155.43,115.24,154.48,112.16z"/>
</g>
</svg>
