<svg width="37" height="30" viewBox="0 0 37 30" fill="none" xmlns="http://www.w3.org/2000/svg">
<path d="M16.4607 24.0625V24.043H16.4412H2.94121C2.23035 24.043 1.54858 23.7586 1.04588 23.2524C0.54318 22.7462 0.260742 22.0597 0.260742 21.3438V3.21875C0.260742 2.50283 0.54318 1.81626 1.04588 1.31007C1.54858 0.803879 2.23035 0.519531 2.94121 0.519531H33.5412C34.2521 0.519531 34.9338 0.803879 35.4365 1.31007C35.9392 1.81626 36.2217 2.50283 36.2217 3.21875V21.3438C36.2217 22.0597 35.9392 22.7462 35.4365 23.2524C34.9338 23.7586 34.2521 24.043 33.5412 24.043H20.0412H20.0217V24.0625V25.875V25.8945H20.0412H29.9412C30.1747 25.8945 30.3986 25.9879 30.5637 26.1542C30.7289 26.3205 30.8217 26.546 30.8217 26.7812V28.5938C30.8217 28.829 30.7289 29.0545 30.5637 29.2208C30.3986 29.3871 30.1747 29.4805 29.9412 29.4805H6.54121C6.30774 29.4805 6.0838 29.3871 5.91867 29.2208C5.75354 29.0545 5.66074 28.829 5.66074 28.5938V26.7812C5.66074 26.546 5.75354 26.3205 5.91867 26.1542C6.0838 25.9879 6.30774 25.8945 6.54121 25.8945H16.4412H16.4607V25.875V24.0625ZM32.6412 20.457H32.6607V20.4375V4.125V4.10547H32.6412H3.84121H3.82168V4.125V20.4375V20.457H3.84121H32.6412Z" fill="#E9E9E9" stroke="#002A54" stroke-width="0.0390625"/>
</svg>
