<svg id="Capa_1" data-name="Capa 1" xmlns="http://www.w3.org/2000/svg" viewBox="0 0 33 33.1"><defs><style>.cls-1{fill:#fff;}</style></defs><path class="cls-1" d="M32.86,9.06a9.77,9.77,0,0,0-2-5.65A9,9,0,0,0,24,.13C19-.12,14.05-.1,9.09.13a9.52,9.52,0,0,0-5,1.58A8.85,8.85,0,0,0,.21,9a133.5,133.5,0,0,0,0,15C.5,29,3.55,32.28,8.62,32.71a92.75,92.75,0,0,0,15.81,0c5.11-.44,8.1-3.75,8.44-8.88.16-2.45.11-4.9.13-7.36S33.05,11.53,32.86,9.06Zm-3,15.11a5.82,5.82,0,0,1-2.77,4.73,6.73,6.73,0,0,1-3.22.91,118.69,118.69,0,0,1-14.61,0c-4-.28-5.86-2.36-6.1-6.38C3,20.37,3,17.33,3,14.29a38.64,38.64,0,0,1,.26-6A5.75,5.75,0,0,1,8.8,3.14C10.27,3,11.75,3,13.23,3c3.21,0,6.42-.06,9.63.07a11.38,11.38,0,0,1,2.84.4,5.67,5.67,0,0,1,4.14,5.32c.27,2.57.18,5.14.2,7.71S30.1,21.61,29.84,24.17Z" transform="translate(0 0.05)"/><path class="cls-1" d="M16.52,8A8.47,8.47,0,1,0,25,16.45,8.49,8.49,0,0,0,16.52,8Zm0,14A5.49,5.49,0,1,1,22,16.44,5.47,5.47,0,0,1,16.55,21.94Z" transform="translate(0 0.05)"/><path class="cls-1" d="M25.35,5.68a2,2,0,0,0-.08,4,2,2,0,1,0,.08-4Z" transform="translate(0 0.05)"/></svg>