<svg id="Capa_1" data-name="Capa 1" xmlns="http://www.w3.org/2000/svg" viewBox="0 0 32.98 33"><defs><style>.cls-1{fill:#fff;}</style></defs><path class="cls-1" d="M32.54,1.43A3,3,0,0,0,30.28,0H2.76A2.79,2.79,0,0,0,1.7.25,3.13,3.13,0,0,0,.22,1.73,2.75,2.75,0,0,0,0,2.79V30.4a1.65,1.65,0,0,1,.06.32,3.16,3.16,0,0,0,1.09,1.66A2.89,2.89,0,0,0,2.58,33H13V22.51c0-1,0-2,0-3,0-.18,0-.24-.23-.24-1.21,0-2.42,0-3.62,0H9.13c-.16,0-.22,0-.22-.21,0-1.23,0-2.46,0-3.7,0-.06,0-.13,0-.19s.13,0,.19,0H13c0-1.53,0-3.07,0-4.6a6.17,6.17,0,0,1,.64-2.76A3.84,3.84,0,0,1,16,5.87a7.85,7.85,0,0,1,2.59-.37h3.93c.05,0,.11,0,.15,0s0,.08,0,.12v3.8c0,.12,0,.17-.16.17-.62,0-1.23,0-1.85,0-.15,0-.29.07-.45.08a2.5,2.5,0,0,0-1.56,1.61,2.11,2.11,0,0,0-.1.61v2.91c0,.28,0,.28.29.28h5.09c.11,0,.13,0,.1.12s0,.23-.06.34c-.14.84-.28,1.67-.41,2.5-.06.34-.12.67-.17,1,0,.13-.06.16-.19.16H18.75c-.17,0-.22,0-.22.21V33H30.17a2.59,2.59,0,0,0,1.13-.29,3.12,3.12,0,0,0,1.46-1.54,2.89,2.89,0,0,0,.2-1V2.64A2.74,2.74,0,0,0,32.54,1.43Z" transform="translate(0.03)"/><path class="cls-1" d="M16.47,33h0Z" transform="translate(0.03)"/></svg>