<svg width="1002" height="505" viewBox="0 0 1002 505" fill="none" xmlns="http://www.w3.org/2000/svg">
<path d="M177.759 71.1021C187.656 71.1021 197.862 70.793 207.759 70.4838C230.646 69.5564 244.255 77.2849 243.327 102.634C243.018 111.599 239.306 122.419 231.574 127.984C246.11 129.53 252.296 144.059 251.678 157.97C250.75 182.702 233.121 195.685 210.234 196.922C197.553 197.54 184.563 197.849 171.882 198.159C173.738 155.806 175.903 113.454 177.759 71.1021ZM199.718 123.656C200.646 123.656 201.574 123.656 202.811 123.656C214.563 123.038 220.44 119.328 221.058 106.035C221.677 93.0511 214.563 90.2688 204.357 90.5779C203.429 90.5779 202.192 90.5779 201.264 90.5779C200.646 101.707 200.027 112.527 199.718 123.656ZM197.244 177.755C199.099 177.755 200.646 177.755 202.501 177.446C215.491 176.828 226.935 174.355 227.553 157.97C228.172 141.586 215.182 141.895 202.811 142.204C201.574 142.204 200.027 142.204 198.79 142.204C198.171 154.261 197.553 166.008 197.244 177.755Z" fill="#0090C9"/>
<path d="M297.76 161.68C294.049 170.954 290.338 180.538 286.626 189.812C277.966 191.048 269.306 191.976 260.956 192.903C278.894 147.769 296.523 102.325 313.843 56.5726C320.029 55.6452 326.214 54.7178 332.4 53.4812C346.627 94.2876 361.473 134.785 376.318 174.664C367.659 176.519 358.999 178.065 350.339 179.61C347.246 171.263 344.462 162.917 341.369 154.57C326.833 157.352 312.297 159.825 297.76 161.68ZM320.957 92.4328H320.647C315.699 108.508 310.75 124.583 305.492 140.659C315.39 139.113 325.287 137.567 335.184 136.022C330.235 121.492 325.596 106.962 320.957 92.4328Z" fill="#0090C9"/>
<path d="M439.413 118.401C439.103 130.148 438.794 140.349 431.681 152.097C425.186 163.226 414.67 170.336 403.226 172.5C393.948 174.355 384.979 170.954 378.793 165.699C384.051 158.589 389.309 151.479 394.876 144.368C395.804 147.769 400.134 151.479 404.154 150.551C416.216 148.078 414.979 127.675 415.288 119.637C415.907 93.0511 416.216 66.7742 416.835 40.1882C424.876 38.3333 432.918 36.4785 440.959 34.6237C440.34 62.7554 439.722 90.578 439.413 118.401Z" fill="#0090C9"/>
<path d="M519.517 144.368C481.166 154.261 457.97 130.457 458.588 93.3602C459.207 55.9543 483.64 21.3307 520.445 11.7473C557.25 2.16401 581.374 24.4221 581.374 61.828C581.683 98.6156 557.868 134.476 519.517 144.368ZM520.445 35.8602C497.558 41.7339 483.95 65.8468 483.64 86.25C483.331 105.726 492.609 127.366 519.826 120.255C546.734 113.145 556.631 86.8683 556.631 67.3925C556.631 46.9893 543.023 29.9866 520.445 35.8602Z" fill="#0090C9"/>
<path d="M186.728 77.2849C196.625 76.9758 206.831 76.6667 216.728 76.3575C239.615 75.121 253.533 82.8494 252.605 108.199C252.296 117.164 248.894 127.984 240.852 133.858C255.389 135.403 261.574 149.624 260.956 163.535C260.028 188.266 242.399 201.559 219.512 202.796C206.831 203.723 193.841 204.032 181.161 204.341C182.707 161.989 184.563 119.637 186.728 77.2849ZM208.378 129.53C209.305 129.53 210.233 129.53 211.47 129.53C223.223 128.911 229.409 124.892 229.718 111.909C230.337 98.9247 223.223 96.1425 213.017 96.7607C212.089 96.7607 210.852 96.7607 209.924 96.7607C209.305 107.271 208.996 118.401 208.378 129.53ZM206.213 183.629C208.068 183.629 209.615 183.32 211.47 183.32C224.46 182.702 235.904 179.919 236.522 163.535C237.141 147.151 223.842 147.46 211.78 148.078C210.543 148.078 208.996 148.078 207.759 148.387C207.14 160.134 206.522 171.882 206.213 183.629Z" fill="#E52522"/>
<path d="M306.73 166.626C303.018 175.901 299.307 185.484 295.595 194.758C286.935 195.995 278.275 196.922 269.925 198.159C287.863 153.024 305.492 107.272 322.812 61.2097C328.998 60.2823 335.184 59.0457 341.369 58.1183C355.906 98.6156 370.442 139.113 385.288 178.992C376.628 180.847 367.968 182.392 359.308 184.247C356.215 175.901 353.431 167.554 350.339 159.207C335.802 161.989 321.266 164.462 306.73 166.626ZM329.926 97.0699H329.617C324.668 113.145 319.719 129.22 314.462 145.296C324.359 143.75 334.256 142.204 344.153 140.349C339.204 126.129 334.565 111.599 329.926 97.0699Z" fill="#E52522"/>
<path d="M448.382 122.419C448.073 134.167 447.763 144.368 440.65 156.116C434.155 167.245 423.639 174.355 412.196 176.828C402.917 178.992 393.948 175.591 387.762 170.336C393.02 163.226 398.278 156.116 403.845 149.005C405.082 152.406 409.103 156.116 413.123 155.188C425.186 152.406 423.948 132.312 423.948 124.274C424.567 97.6882 424.876 71.4113 425.495 44.8253C433.536 42.9704 441.578 41.1156 449.619 39.2607C449.31 66.7742 449 94.5968 448.382 122.419Z" fill="#E52522"/>
<path d="M528.795 148.078C490.444 157.97 467.248 134.476 467.557 97.0699C468.176 59.664 492.609 24.7312 529.414 15.1478C566.219 5.56452 590.652 27.8226 590.652 65.2285C590.962 102.325 567.147 138.185 528.795 148.078ZM529.414 39.5699C506.527 45.4436 492.919 69.5564 492.609 89.9597C492.3 109.435 501.888 131.075 528.795 123.965C555.703 116.855 565.6 90.2688 565.6 71.1021C565.6 50.6989 552.301 33.6962 529.414 39.5699Z" fill="#E52522"/>
<path d="M630.241 58.7366C630.241 63.6828 630.241 68.6291 630.241 73.5753C637.045 71.7205 644.159 69.8656 650.963 68.3199C650.963 72.0296 650.963 76.0484 650.963 79.7581C644.159 81.6129 637.045 83.4678 630.241 85.0135C630.241 91.1963 630.241 97.0699 630.241 103.253C637.354 101.398 644.777 99.543 651.891 97.6882C651.891 101.398 651.891 105.417 651.891 109.126C640.138 112.218 628.694 115 616.942 118.091C616.942 95.5242 616.632 72.957 616.632 50.6989C628.076 47.6075 639.519 44.5161 651.272 41.7339C651.272 45.4436 651.272 49.4624 651.272 53.1721C644.777 55.0269 637.354 56.8817 630.241 58.7366Z" fill="#E52522"/>
<path d="M664.571 36.7876C667.664 35.8602 670.757 35.2419 673.85 34.3145C685.603 46.9892 697.665 59.9731 709.727 72.6478C709.727 72.6478 709.727 72.6478 710.036 72.6478C709.727 57.4999 709.727 42.3521 709.417 27.5134C713.747 26.586 718.077 25.3494 722.407 24.422C722.717 47.2983 723.026 70.1747 723.645 93.051C720.552 93.6693 717.459 94.5967 714.057 95.215C701.995 82.2311 689.933 69.5564 678.18 56.8817C678.18 56.8817 678.18 56.8817 677.87 56.8817C678.18 72.0295 678.18 87.4865 678.489 102.634C674.159 103.871 669.829 104.798 665.499 106.035C664.881 82.8494 664.571 59.9731 664.571 36.7876Z" fill="#E52522"/>
<path d="M779.625 68.0108C785.811 66.7743 791.996 65.5377 798.182 64.3011C798.182 68.0108 798.491 72.0296 798.491 75.7393C787.976 77.9033 777.46 79.7581 766.944 82.2312C766.326 59.664 766.017 37.406 765.398 14.8388C769.728 13.9114 774.058 12.9839 778.388 12.0565C779.006 30.914 779.316 49.4624 779.625 68.0108Z" fill="#E52522"/>
<path d="M820.141 57.5C818.285 62.4462 816.739 67.7016 814.883 72.6478C810.244 73.5753 805.605 74.1935 800.965 75.121C809.007 50.3898 817.357 25.9677 825.089 1.5457C828.492 0.927419 831.894 0.30914 835.296 0C844.574 21.6398 853.544 43.2796 862.822 65.2285C858.183 65.8468 853.544 66.465 848.904 67.3925C847.049 63.0645 845.193 58.4274 843.337 54.0995C835.914 55.0269 828.182 56.2634 820.141 57.5ZM830.657 20.4032C830.347 20.4032 830.347 20.4032 830.657 20.4032C828.182 29.0591 826.017 37.4059 823.852 46.0618C829.11 45.1344 834.368 44.207 839.935 43.2796C836.533 35.8602 833.44 28.1317 830.657 20.4032Z" fill="#E52522"/>
<path d="M636.426 60.2822C636.426 65.2285 636.426 70.1747 636.426 75.1209C643.231 73.2661 650.344 71.4113 657.148 69.8656C657.148 73.5752 657.148 77.5941 657.148 81.3037C650.344 83.1586 643.231 85.0134 636.426 86.5591C636.426 92.7419 636.426 98.6156 636.426 104.798C643.54 102.944 650.963 101.089 658.076 99.2338C658.076 102.944 658.076 106.962 658.076 110.672C646.323 113.763 634.88 116.546 623.127 119.637C623.127 97.0699 622.818 74.5027 622.818 52.2446C634.261 49.1532 645.705 46.3709 657.458 43.2795C657.458 46.9892 657.458 51.008 657.458 54.7177C650.963 56.5726 643.54 58.4274 636.426 60.2822Z" fill="#FAB60D"/>
<path d="M670.757 38.3333C673.85 37.4059 676.943 36.7876 680.035 35.8602C692.097 48.5349 703.85 61.5188 715.912 74.5027C715.912 74.5027 715.912 74.5027 716.222 74.5027C715.912 59.3548 715.603 44.207 715.603 29.3683C719.933 28.4408 724.263 27.2043 728.593 26.2769C728.902 49.1532 729.521 72.0295 729.83 94.9059C726.737 95.5242 723.644 96.4516 720.242 97.0699C708.18 84.086 696.118 71.4113 684.056 58.4274C684.056 58.4274 684.056 58.4274 683.747 58.4274C684.056 73.5752 684.056 89.0322 684.365 104.18C680.035 105.417 675.705 106.344 671.375 107.581C671.066 84.3951 670.757 61.5188 670.757 38.3333Z" fill="#FAB60D"/>
<path d="M786.12 69.8656C792.305 68.6291 798.491 67.3925 804.677 66.1559C804.677 69.8656 804.986 73.8844 804.986 77.5941C794.47 79.4489 783.955 81.6129 773.13 83.7769C772.511 61.2097 772.202 38.9516 771.583 16.3844C775.913 15.457 780.243 14.5296 784.573 13.6022C785.192 32.7688 785.501 51.3172 786.12 69.8656Z" fill="#FAB60D"/>
<path d="M826.636 59.6639C824.78 64.6102 823.234 69.8655 821.378 74.8118C816.739 75.7392 812.1 76.3575 807.46 77.2849C815.502 52.5537 823.543 28.1317 831.585 3.70964C834.987 3.09136 838.389 2.47308 841.791 2.16394C851.069 23.8037 860.039 45.4435 869.317 67.3924C864.678 68.0107 860.039 68.629 855.399 69.2473C853.544 64.9193 851.688 60.2822 849.832 55.9543C842.1 56.8817 834.368 58.1182 826.636 59.6639ZM836.842 22.5672C834.368 31.2231 832.203 39.5699 830.038 48.2258C835.296 47.2983 840.554 46.3709 846.121 45.7527C842.719 38.0242 839.935 30.2957 836.842 22.5672Z" fill="#FAB60D"/>
<path d="M158.583 386.116C158.583 385.497 158.892 384.57 159.201 383.642C159.82 383.952 160.439 384.261 161.057 384.261C162.913 384.261 164.769 383.024 166.315 380.551C167.861 378.078 168.789 374.677 168.789 370.659C170.645 331.707 172.501 292.755 174.047 253.804C174.356 249.785 173.738 246.384 172.501 243.911C171.264 241.438 169.717 240.202 167.861 240.202C167.243 240.202 166.315 240.511 165.696 240.82C165.387 239.274 165.387 238.347 165.387 238.038C165.387 235.874 166.315 234.328 168.171 233.091C169.717 231.855 171.882 231.237 174.356 231.237C176.521 231.237 178.996 231.855 181.779 232.782C182.088 232.782 183.016 233.091 184.253 233.71C185.491 234.019 187.037 234.328 188.893 234.328C190.439 234.328 193.223 233.71 197.243 232.782C203.738 231.237 208.378 230.309 212.089 230.309C220.44 230 228.172 231.237 235.285 234.328C242.399 237.419 248.275 242.984 252.605 251.022C256.935 259.059 259.1 269.57 258.482 283.172C257.863 296.465 255.079 307.903 250.131 316.868C245.182 325.833 238.687 332.634 231.265 336.962C223.533 341.29 215.8 343.763 207.45 344.073C205.903 344.073 204.048 344.073 202.192 343.454C200.336 342.836 198.79 342.218 198.171 341.29C197.862 351.183 197.243 360.766 196.934 370.659C196.625 374.677 197.243 378.078 198.79 380.551C200.027 383.024 201.883 384.261 203.738 384.261C204.357 384.261 204.975 383.952 205.594 383.642C205.903 384.879 205.903 385.497 205.903 386.116C205.903 388.28 204.975 389.825 203.12 391.371C201.573 392.607 199.408 393.535 196.625 393.535C194.46 393.535 191.986 393.226 189.202 392.298C188.893 392.298 187.965 391.989 186.728 391.68C185.181 391.371 183.635 391.062 182.088 391.062C180.233 391.062 178.686 391.371 177.449 391.68C175.903 391.989 175.284 392.298 174.975 392.608C172.191 393.844 169.408 394.462 167.552 394.462C165.078 394.462 162.913 393.844 161.366 392.608C159.201 390.134 158.274 388.28 158.583 386.116ZM228.481 306.976C228.79 304.194 228.481 301.411 227.553 298.938C226.625 296.465 225.388 294.61 223.533 293.374C221.677 292.137 220.13 291.828 218.893 292.446C218.893 290.901 219.821 289.355 221.058 287.809C222.605 286.573 224.151 285.645 226.007 285.645C227.862 285.645 229.409 285.954 230.646 287.191C230.646 285.954 230.646 285.336 230.955 284.718C232.192 252.876 225.079 237.728 209.615 238.656C204.357 238.965 201.573 243.602 201.264 252.876C200.336 272.043 199.718 291.21 198.79 310.376C201.264 306.667 204.975 304.503 209.615 304.194C213.326 303.884 216.419 305.121 218.893 307.285C221.368 309.449 222.295 312.54 221.677 316.25C221.058 319.032 220.13 320.887 218.584 322.124C217.038 323.36 215.491 324.288 213.635 324.288C212.089 324.288 210.852 324.288 209.615 323.669C208.378 323.051 207.759 322.742 207.759 322.124C208.996 321.196 209.615 319.96 209.924 318.414C209.924 316.868 209.924 315.632 209.305 315.013C208.687 314.395 208.068 313.777 207.45 314.086C205.903 314.086 204.048 315.323 202.192 317.796C200.336 320.269 199.408 322.742 199.099 325.524C199.099 326.142 199.099 327.07 199.408 328.616C200.336 332.634 202.501 334.489 206.213 334.18C217.347 333.562 225.079 324.288 228.481 306.976Z" fill="#0090C9"/>
<path d="M326.215 329.543C324.668 329.852 322.813 329.852 320.957 329.543C319.101 329.234 317.555 328.616 316.627 327.688C316.318 337.271 316.008 347.164 315.699 356.747C315.699 360.766 316.318 364.167 317.555 366.331C319.101 368.495 320.648 369.731 322.503 369.422C323.431 369.422 324.05 368.804 324.668 368.495C324.978 369.731 324.978 370.349 324.978 370.659C324.978 372.823 324.05 374.677 322.503 376.223C320.957 377.769 318.483 378.696 316.008 379.314C313.843 379.624 311.369 379.624 308.586 378.696C305.493 378.078 303.328 378.078 301.472 378.387C299.616 378.696 297.142 379.624 294.049 381.169C293.74 381.478 292.812 381.788 291.575 382.406C290.029 383.024 288.482 383.333 286.626 383.642C283.843 383.952 281.678 383.642 280.131 382.715C278.585 381.788 277.657 379.933 277.966 377.769C277.966 377.46 278.276 376.532 278.585 375.296C279.204 375.605 280.131 375.605 280.75 375.605C282.606 375.296 284.461 373.75 286.008 370.968C287.554 368.185 288.482 364.785 288.482 360.766C289.719 321.814 290.956 282.863 292.194 244.22C292.194 240.202 291.884 236.801 290.338 234.637C289.101 232.164 287.245 231.237 285.389 231.546C284.771 231.546 283.843 231.855 283.224 232.473C282.915 231.237 282.915 230.618 282.915 230C282.915 227.836 283.843 225.981 285.389 224.435C286.936 222.89 289.101 221.962 291.884 221.653C293.74 221.344 295.286 221.344 296.833 221.653C298.07 221.962 298.998 221.962 299.307 222.271C302.091 222.89 304.565 223.199 306.421 222.89C307.967 222.581 310.751 221.962 314.771 220.417C320.957 218.253 325.596 216.707 329.617 216.089C337.968 214.852 345.7 215.161 352.813 217.634C359.927 220.107 365.803 225.054 370.442 232.473C375.082 239.892 376.937 250.403 376.628 263.696C376.319 276.062 374.154 286.573 370.133 295.228C366.112 303.884 360.545 311.304 353.741 317.177C353.432 326.452 354.36 335.417 356.834 344.073C358.999 352.728 362.092 359.839 366.422 365.403C370.442 370.968 374.772 373.75 379.412 374.059C379.721 374.059 380.649 374.059 381.577 373.75C383.432 373.441 384.979 372.513 385.907 370.968C386.834 369.731 387.453 368.185 387.453 366.331C387.453 363.857 386.834 362.621 385.288 362.621C386.216 361.693 387.453 360.766 389.309 360.457C391.164 360.148 392.711 360.148 394.257 360.766C395.804 361.384 396.422 362.312 397.041 363.857C397.35 365.094 397.35 366.021 397.35 366.64C397.35 371.277 395.185 375.914 391.164 379.933C387.144 384.261 382.504 387.043 377.247 387.97C367.04 390.134 358.071 387.97 350.957 382.097C343.535 376.223 337.968 368.185 334.256 358.293C329.617 349.328 327.452 339.435 326.215 329.543ZM349.411 268.952C350.339 237.11 342.916 222.89 327.761 225.363C322.503 226.29 319.72 231.237 319.411 240.511C318.792 259.677 318.173 278.844 317.864 298.011C320.648 293.992 324.359 291.519 328.689 290.591C332.4 289.973 335.493 290.591 337.968 292.755C340.442 294.919 341.37 297.702 340.751 301.411C340.133 304.194 339.205 306.358 337.658 307.594C336.112 309.14 334.565 310.067 332.71 310.376C331.163 310.685 329.926 310.685 328.689 310.376C327.452 310.067 326.833 309.449 326.833 309.14C328.07 307.903 328.689 306.667 328.998 305.121C328.998 302.03 328.07 300.793 326.215 301.102C324.668 301.411 322.813 302.648 320.957 305.43C319.101 307.903 318.173 310.685 318.173 313.777C318.173 315.013 318.173 315.941 318.173 316.559C319.101 320.269 321.576 321.814 325.287 321.196C340.442 318.105 348.483 300.484 349.411 268.952Z" fill="#0090C9"/>
<path d="M488.28 320.887C496.321 304.812 500.651 284.409 500.651 259.059C500.96 233.71 497.249 215.161 489.517 203.105C491.682 202.796 493.228 201.559 494.156 200.013C495.084 198.159 495.393 196.922 495.084 195.995C494.465 196.613 493.537 197.231 492.3 197.54C490.754 197.849 488.898 197.849 487.042 197.231C485.187 196.613 483.64 195.995 482.094 195.067C474.362 189.194 465.083 187.648 453.331 190.43C441.887 193.212 432.299 199.395 424.876 208.669C423.33 210.215 421.784 211.761 419.619 213.306C417.763 214.852 415.907 215.78 414.67 216.089C413.433 216.398 412.505 216.398 411.886 215.78C411.268 217.016 411.577 218.253 412.505 219.489C413.433 220.726 414.979 221.035 417.144 220.417C408.794 236.492 404.464 257.204 403.845 282.245C403.227 307.285 406.938 326.142 414.979 338.508C413.433 338.817 412.196 339.435 411.268 340.363C410.34 341.29 409.721 342.218 409.412 343.454C409.103 344.382 409.103 345.309 409.412 345.927C410.031 345 410.959 344.382 412.196 344.382C413.742 344.073 415.598 344.073 417.454 344.691C419.309 345.309 420.856 346.236 422.402 347.164C429.825 353.347 439.413 354.892 451.166 352.11C462.609 349.328 472.506 342.836 480.548 333.253C481.785 331.398 483.331 329.852 485.496 328.306C487.352 326.761 489.207 325.833 490.754 325.524C491.682 325.215 492.61 325.524 493.847 325.833C494.156 324.597 494.156 323.669 493.228 322.124C491.682 320.578 490.135 320.269 488.28 320.887ZM471.578 294.301C471.578 299.866 471.269 305.739 469.413 311.304C469.413 312.54 469.104 313.468 468.795 314.395C468.485 315.323 467.867 316.559 467.558 317.487C467.248 318.723 466.63 320.269 466.011 321.505C462.3 332.016 457.351 338.199 450.856 339.745C445.289 340.981 440.341 337.271 436.32 328.616C432.299 319.65 430.444 302.03 431.062 275.753C431.062 272.043 431.371 267.406 431.681 262.46C430.753 259.368 431.062 255.968 431.99 252.567C431.99 252.258 431.99 252.258 432.299 251.949C432.299 251.64 432.299 251.64 432.299 251.331V251.021C432.608 249.476 432.608 247.93 432.918 246.384C432.918 245.457 432.918 244.53 432.918 243.602C433.536 237.728 434.464 230.618 436.629 224.435C436.938 222.581 437.866 220.726 438.794 218.871C438.794 218.562 439.103 218.562 439.103 218.253C439.103 218.253 438.794 218.253 438.794 218.562C442.196 209.288 446.836 204.032 453.021 202.487C458.898 201.25 463.537 204.651 467.867 213.306C471.888 221.962 473.743 239.583 473.434 265.86C473.434 275.753 472.815 285.336 471.578 294.301Z" fill="#0090C9"/>
<path d="M513.95 332.634C513.95 331.398 514.259 330.47 515.187 329.543C516.424 330.161 517.97 329.234 520.135 327.07C522.3 324.906 524.156 321.815 526.012 318.105C536.218 295.847 546.425 273.589 556.631 251.331C557.249 250.094 557.868 248.858 558.487 247.621C556.94 244.839 555.394 241.747 554.157 238.965C546.734 223.817 539.002 208.669 531.579 193.522C529.723 189.812 527.558 187.03 525.084 185.175C522.61 183.32 520.445 182.702 518.589 183.32C517.97 183.629 517.352 183.938 517.043 184.247C516.733 183.011 516.424 182.083 516.424 180.847C516.424 176.828 519.208 174.046 524.775 172.5C526.63 171.882 529.105 171.882 531.888 172.191C532.197 172.191 532.816 172.191 534.053 172.5C535.29 172.5 536.837 172.5 538.383 171.882C540.548 171.263 543.022 170.027 545.806 168.172C548.899 166.317 551.064 165.39 552.61 164.772C555.703 163.844 557.868 163.844 559.414 164.772C560.961 165.39 561.889 167.245 562.507 169.718C561.27 169.718 560.342 169.718 559.414 169.718C558.177 170.027 557.249 170.645 556.631 171.573C556.012 172.5 555.703 173.737 555.703 175.282C555.703 178.065 556.631 181.465 558.796 185.484C563.435 195.067 568.384 204.651 573.023 214.234C579.827 199.086 586.631 183.938 593.436 168.79C594.673 166.317 595.291 163.844 595.291 161.371C595.291 159.825 594.982 158.898 594.364 158.589C593.745 157.97 592.817 158.28 591.889 158.898C592.199 157.043 593.436 155.497 594.673 154.261C596.219 153.024 598.075 152.406 600.549 151.788C602.096 151.479 603.642 151.479 604.879 151.788C606.735 152.097 608.281 152.097 609.209 151.788C610.756 151.479 612.302 150.551 613.848 149.624C614.158 149.315 614.776 149.005 615.704 148.387C616.632 147.769 617.869 147.46 618.797 147.151C620.034 146.841 620.962 146.841 621.89 147.151C622.818 147.46 623.127 148.387 623.127 149.315C623.127 150.242 622.818 151.169 621.89 152.715C620.962 152.097 619.416 153.024 617.251 155.188C615.086 157.352 612.921 160.444 611.374 164.153C601.477 186.411 591.58 208.669 581.374 230.927C581.374 231.237 581.374 231.237 581.064 231.546C582.92 235.255 584.776 239.274 586.631 242.984C594.364 258.132 602.096 272.97 609.828 288.118C611.683 291.828 613.848 294.61 616.632 296.465C619.106 298.32 621.581 298.938 623.436 298.32C624.055 298.011 624.673 297.702 625.292 297.083C625.601 298.32 625.601 299.247 625.601 299.866C625.601 302.03 624.983 303.884 623.436 305.43C621.89 306.976 619.725 307.903 617.251 308.831C615.395 309.449 612.921 309.449 610.446 308.831C607.663 308.522 605.188 308.522 603.023 309.14C601.168 309.758 598.694 310.686 596.219 312.54C593.436 314.395 590.961 315.632 588.796 316.25C585.704 317.177 583.229 317.177 581.992 316.25C580.446 315.323 579.518 313.777 578.899 310.995C580.136 310.995 581.064 310.995 581.992 310.686C584.466 310.067 585.704 308.212 585.704 305.121C585.704 302.339 584.776 299.247 582.611 294.919C577.353 284.409 572.095 274.207 567.147 263.696C559.724 279.772 552.61 296.156 545.187 312.231C543.641 315.323 543.022 317.796 543.022 319.96C543.022 321.505 543.332 322.433 543.95 322.742C544.569 323.051 545.497 323.051 546.734 322.433C546.115 325.833 543.022 328.306 537.765 329.543C536.527 329.852 534.981 329.852 533.125 329.543C531.888 329.234 530.651 329.234 528.795 329.543C526.94 329.852 525.393 330.78 524.156 331.707C523.847 332.016 523.228 332.325 522.3 332.944C521.373 333.562 520.135 333.871 519.208 334.18C517.97 334.489 516.733 334.489 516.115 334.18C514.568 334.489 513.95 333.871 513.95 332.634Z" fill="#0090C9"/>
<path d="M645.086 294.301C645.086 293.992 645.086 293.065 645.396 291.828C646.014 292.137 646.942 292.137 647.561 291.828C649.416 291.21 650.963 289.664 652.509 286.882C654.056 284.099 654.674 280.39 654.674 276.371C654.674 264.933 654.365 253.186 654.365 241.747C654.365 237.729 653.437 234.019 651.581 230.927C649.726 227.836 647.561 225.363 645.086 223.817C642.612 222.272 640.138 221.962 637.973 222.581C637.045 222.89 636.426 222.89 636.117 223.199C636.117 220.726 637.045 218.253 639.21 215.78C641.375 213.306 643.849 211.761 646.633 211.142C649.416 210.524 651.891 210.833 653.746 212.379C653.746 196.304 653.437 179.919 653.437 163.844C653.437 159.825 652.509 156.734 651.272 154.57C649.726 152.406 648.179 151.479 646.324 152.097C645.705 152.406 644.777 152.715 644.159 153.333C643.849 152.406 643.849 151.479 643.849 150.86C643.849 148.078 644.777 145.605 646.942 143.132C649.107 140.659 651.581 139.113 654.674 138.186C658.695 137.258 662.097 138.495 664.881 142.513C665.808 138.185 667.973 134.476 670.448 130.766C673.231 127.366 676.943 124.583 681.273 122.729C681.582 122.729 682.2 122.419 682.51 122.419C685.293 121.492 687.768 121.801 690.242 123.038C692.716 124.274 693.953 126.129 694.263 128.911C693.335 128.911 692.716 128.911 692.407 128.911C689.933 129.53 687.458 131.694 684.675 135.094C682.201 138.804 680.654 142.513 680.654 146.532C680.963 166.008 680.963 185.484 681.273 204.651C683.128 202.177 685.603 200.632 688.386 200.013C691.17 199.395 693.644 199.704 695.809 200.941C697.974 202.177 699.211 204.341 699.211 206.815C698.902 206.815 698.283 206.815 697.665 207.124C695.5 207.742 693.025 209.288 690.551 212.07C688.077 214.852 685.912 218.253 684.056 222.272C682.2 226.29 681.582 230.309 681.582 234.328C681.582 245.766 681.891 257.513 681.891 268.952C681.891 272.97 682.819 276.062 684.365 278.226C685.912 280.39 687.458 281.317 689.314 280.699C690.242 280.39 690.86 280.081 691.479 279.462C691.788 280.39 691.788 281.317 691.788 281.626C691.788 283.79 691.17 285.954 689.314 287.5C687.768 289.355 685.603 290.282 682.819 291.21C680.654 291.828 678.18 291.828 675.396 291.519C672.922 290.901 670.448 291.21 668.283 291.519C666.427 292.137 663.953 293.065 661.169 294.919C658.386 296.774 655.911 298.011 653.746 298.629C650.963 299.247 648.798 299.247 647.251 298.32C646.014 298.32 645.086 296.774 645.086 294.301Z" fill="#0090C9"/>
<path d="M851.07 194.758C851.379 208.051 851.997 221.344 852.307 234.637C852.307 238.656 853.235 241.747 854.781 244.22C856.327 246.384 857.874 247.621 859.73 247.312C860.657 247.312 861.276 247.003 861.895 246.384C862.204 247.621 862.513 248.548 862.513 249.167C862.513 251.331 861.895 253.186 860.348 254.422C858.802 255.968 856.637 256.895 854.162 257.204C851.997 257.513 849.523 257.513 846.74 256.586C846.43 256.586 845.503 256.277 844.265 256.277C842.719 255.968 841.173 256.277 839.626 256.277C837.77 256.586 836.224 256.895 834.987 257.823C833.44 258.441 832.822 258.75 832.513 259.059C829.729 260.605 827.255 261.532 825.09 262.151C822.306 262.769 820.141 262.46 818.595 261.532C817.048 260.605 816.121 259.059 816.121 256.895C816.121 256.277 816.121 255.349 816.43 254.422C817.048 254.731 817.976 254.731 818.595 254.731C820.45 254.422 822.306 252.876 823.543 250.094C824.78 247.312 825.399 243.911 825.399 239.892C825.09 231.855 825.09 223.817 824.78 215.78C824.78 212.997 823.853 210.215 822.616 208.051C821.069 205.887 819.523 204.032 817.667 203.105C815.811 202.177 814.265 202.177 812.718 202.796C812.718 201.25 813.337 199.395 814.883 197.849C816.43 196.304 817.976 195.376 819.832 195.067C821.378 194.758 822.925 195.067 824.471 196.304C823.853 175.282 823.234 154.261 822.616 133.239C816.43 137.876 811.172 144.677 806.842 153.333C802.203 162.298 798.801 172.191 796.636 183.32C794.161 194.449 793.233 205.578 793.543 216.707C793.543 216.707 793.543 216.707 793.543 217.016C793.852 219.489 794.161 221.035 794.161 222.272C794.471 233.401 789.831 242.675 779.934 250.403C776.532 253.185 773.439 254.731 770.346 255.349C766.635 255.968 763.852 255.659 761.068 254.113C758.594 252.567 756.429 250.403 754.882 247.93C753.336 245.457 752.717 243.293 752.717 241.438C753.336 241.747 754.573 241.747 756.429 241.129C759.522 240.511 762.305 238.965 764.779 236.183C767.254 233.71 768.182 230 768.182 225.672C768.182 218.871 764.779 210.833 758.284 201.559C751.789 191.976 746.222 182.083 741.892 171.263C742.202 185.175 742.511 199.086 742.511 212.997C743.748 211.452 745.295 210.524 746.841 210.215C748.697 209.906 750.243 210.215 751.789 211.142C753.336 212.07 753.954 213.306 753.954 215.161C752.408 214.852 750.862 215.78 749.006 217.325C747.15 219.18 745.604 221.344 744.367 224.126C743.129 226.909 742.511 229.691 742.511 232.782C742.82 243.293 742.82 254.113 743.13 264.624C743.13 268.024 744.057 270.188 745.295 271.734C746.532 272.97 748.078 273.28 749.625 272.043C750.243 273.589 749.934 275.444 749.006 276.68C747.769 278.226 746.222 279.153 744.057 279.462C742.82 279.772 741.892 279.772 740.964 279.772C740.037 279.772 739.418 279.772 739.109 279.462C737.253 279.153 735.707 279.153 734.47 279.462C733.542 279.772 732.614 280.081 731.377 280.699C730.449 281.317 729.83 281.626 729.521 281.626C727.975 282.863 726.119 283.481 724.572 283.79C722.407 284.409 720.861 284.099 719.624 283.172C718.387 282.245 718.078 280.699 718.696 278.844C720.243 279.462 721.48 278.535 722.717 276.68C723.954 274.825 724.572 272.043 724.572 268.642C724.263 252.876 723.954 237.11 723.645 221.035C723.645 218.253 723.026 215.47 721.48 213.306C720.243 211.142 718.387 209.597 716.531 208.669C714.675 207.742 713.129 207.742 711.583 208.669C711.583 207.124 712.201 205.269 713.748 203.723C714.985 202.177 716.84 201.25 718.696 200.941C720.243 200.632 721.789 200.941 723.335 201.868C723.026 180.847 722.717 159.825 722.407 138.495C722.407 135.094 721.789 132.93 720.243 131.384C719.005 130.148 717.459 129.839 716.222 131.075C715.603 129.53 715.913 127.675 716.84 126.438C718.078 124.892 719.624 123.965 721.789 123.656C722.717 123.347 723.645 123.347 724.572 123.347C725.5 123.347 726.119 123.347 726.738 123.347C731.686 123.038 736.016 122.729 740.037 121.801C740.655 121.492 742.511 120.874 745.295 119.328C749.315 117.473 751.79 116.237 753.027 115.927C753.336 115.927 753.645 115.927 753.954 115.618C755.501 115.309 756.429 115.309 757.047 115.618C756.429 118.091 756.119 121.183 756.119 125.202C756.119 132.003 757.666 139.113 760.449 147.151C763.233 155.188 766.944 163.226 771.893 171.573C774.058 174.973 775.914 178.374 778.079 181.774C779.625 168.481 784.574 154.879 792.924 140.659C801.275 126.747 810.553 113.763 821.069 102.634C822.616 102.325 824.162 102.325 825.399 102.634C826.636 102.944 827.564 102.944 827.873 102.944C830.657 103.562 833.131 103.871 834.987 103.562C836.533 103.253 838.08 102.944 839.626 102.325C840.863 101.707 841.791 101.398 842.1 101.089C844.884 99.543 847.358 98.6156 849.523 98.3065C851.997 97.9973 854.162 98.3065 855.709 99.2339C857.255 100.161 858.183 101.707 858.183 103.871C858.183 104.18 858.183 105.108 857.874 106.653C857.255 106.344 856.327 106.344 855.709 106.344C853.853 106.653 852.307 108.199 851.07 110.981C849.832 113.763 849.214 117.164 849.214 121.183C849.832 139.731 850.451 158.28 851.07 176.828C852.616 175.282 854.162 174.355 855.709 174.355C857.565 174.046 859.111 174.355 860.657 175.282C862.204 176.21 862.822 177.446 862.822 179.301C861.276 178.992 859.73 179.61 857.874 181.156C856.018 182.702 854.472 184.866 853.235 187.648C851.688 189.194 851.07 191.976 851.07 194.758Z" fill="#0090C9"/>
<path d="M871.482 252.876C872.41 253.186 873.028 253.186 873.338 252.876C876.121 252.567 878.595 250.712 881.07 247.312C883.544 243.911 884.781 240.202 884.781 236.183C883.544 201.25 882.307 166.626 881.07 131.694C881.07 129.53 880.451 127.675 879.523 126.438C878.595 125.202 877.358 123.656 875.503 122.11C877.049 121.801 878.595 121.183 880.142 119.637C881.688 118.401 883.235 116.237 884.781 113.145C888.493 106.344 894.369 100.161 902.72 95.2151C910.761 90.2689 918.493 87.4866 925.297 86.8683C932.102 86.25 939.834 87.7957 948.494 91.5054C957.154 95.2151 963.339 100.161 967.669 106.344C969.525 109.126 971.071 110.981 972.618 112.218C974.164 113.454 975.711 113.763 977.566 113.763C976.02 115.618 974.783 117.164 973.855 118.71C972.927 120.255 972.618 121.801 972.927 124.274C974.473 159.207 976.02 193.831 977.566 228.763C977.566 231.546 978.494 234.019 979.731 236.183C980.968 238.347 982.824 240.202 984.68 241.438C986.536 242.675 988.391 243.293 989.938 243.293C990.247 243.293 990.866 242.984 991.793 242.984C991.793 245.766 990.556 247.93 988.391 249.785C986.226 251.64 983.443 252.567 980.35 252.567C979.731 252.567 979.422 252.567 979.422 252.258C974.783 251.949 970.762 250.403 967.979 247.93C964.886 245.148 962.721 242.056 961.484 238.038C959.009 242.675 955.916 245.148 951.586 245.457C948.494 245.766 945.71 244.839 943.545 242.984C941.38 241.129 940.143 238.965 940.143 236.492C940.143 235.874 940.143 234.946 940.452 234.019C941.071 234.328 941.999 234.637 942.617 234.637C944.473 234.637 946.329 233.091 947.566 230.618C948.803 228.145 949.422 224.745 949.422 220.726C949.112 210.215 948.494 199.704 948.184 189.194C946.947 191.048 945.092 191.976 942.617 191.976C941.071 191.976 939.834 191.667 938.597 191.048C937.359 190.121 936.741 189.194 936.741 188.266C937.669 188.884 938.906 188.575 940.143 187.957C941.38 187.339 942.308 186.102 942.927 184.247C943.545 182.392 943.545 180.538 943.236 178.374C942.308 174.355 940.762 171.573 937.978 169.718C935.504 167.863 932.102 167.245 928.39 167.554C924.679 167.863 921.586 169.099 919.112 171.263C916.637 173.427 915.091 176.519 914.472 180.538C914.472 181.156 914.472 181.774 914.472 182.393C914.472 185.175 915.4 187.339 917.256 188.884C918.802 190.121 920.658 190.43 922.204 189.503C922.204 190.739 921.586 191.667 920.658 192.594C919.421 193.522 918.184 194.14 916.637 194.449C914.782 194.758 912.926 193.831 911.38 192.594C911.689 203.105 912.307 213.616 912.617 224.126C912.617 228.145 913.545 231.237 915.091 233.71C916.637 236.183 918.493 237.11 920.349 237.11C920.967 237.11 921.586 236.801 922.204 236.183C922.514 237.419 922.823 238.038 922.823 238.656C922.823 241.438 921.895 243.602 920.04 245.766C918.184 247.93 915.4 249.167 912.617 249.167C908.287 249.476 904.885 247.621 902.101 243.293C901.173 247.312 899.318 251.022 896.534 254.113C893.75 257.204 890.039 259.368 885.4 260.296C885.4 260.296 884.781 260.605 884.472 260.605C881.379 260.914 878.905 260.296 876.43 259.059C873.338 257.513 872.101 255.35 871.482 252.876ZM910.142 166.008C913.545 158.898 919.421 155.188 928.081 154.261C936.432 153.643 942.926 156.425 946.947 162.917C946.638 152.715 946.019 142.204 945.71 132.003C945.092 120.874 943.236 112.218 939.524 105.726C935.813 99.5431 931.483 96.4517 925.916 96.7608C920.349 97.0699 916.019 100.78 912.926 107.581C909.833 114.382 908.596 123.347 908.905 134.476C909.524 145.296 909.833 155.497 910.142 166.008Z" fill="#0090C9"/>
<path d="M167.552 392.298C167.552 391.68 167.861 390.753 168.17 389.825C168.789 390.134 169.407 390.443 170.026 390.443C171.882 390.443 173.737 389.207 175.284 386.425C176.83 383.952 177.758 380.551 177.758 376.532C179.614 337.581 181.16 298.629 183.016 259.677C183.325 255.659 182.707 252.258 181.47 249.785C180.232 247.312 178.686 246.075 176.83 246.075C176.212 246.075 175.284 246.384 174.665 246.694C174.356 245.148 174.356 244.22 174.356 243.911C174.356 241.747 175.284 240.202 177.14 238.656C178.686 237.419 180.851 236.801 183.325 236.492C185.49 236.492 187.964 236.801 190.748 238.038C191.057 238.038 191.985 238.347 193.222 238.656C194.459 238.965 196.006 239.274 197.862 239.274C199.408 239.274 202.192 238.656 206.212 237.728C212.707 236.183 217.346 235.255 221.058 234.946C229.409 234.328 237.141 235.564 244.254 238.656C251.368 241.747 257.244 247.312 261.574 255.04C265.904 263.078 268.069 273.589 267.45 287.191C266.832 300.484 264.358 311.922 259.1 320.887C254.151 329.852 247.656 336.653 240.233 341.29C232.501 345.618 224.769 348.091 216.419 348.71C214.872 348.71 213.016 348.71 211.161 348.091C209.305 347.473 207.759 346.855 207.14 345.927C206.831 355.82 206.212 365.403 205.903 375.296C205.594 379.314 206.212 382.715 207.759 385.188C208.996 387.661 210.851 388.898 212.707 388.589C213.326 388.589 213.944 388.28 214.563 387.97C214.872 389.207 214.872 389.825 214.872 390.443C214.872 392.607 213.944 394.462 212.089 395.699C210.542 396.935 208.377 397.863 205.594 397.863C203.429 397.863 200.954 397.554 198.171 396.626C197.862 396.626 196.934 396.317 195.697 396.008C194.15 395.699 192.604 395.39 191.057 395.699C189.202 395.699 187.655 396.008 186.418 396.626C184.872 397.245 184.253 397.554 183.944 397.554C181.16 398.79 178.377 399.409 176.521 399.409C174.047 399.409 171.882 398.79 170.335 397.554C168.17 396.317 167.552 394.462 167.552 392.298ZM237.759 312.54C238.068 309.758 237.759 306.976 236.831 304.503C235.904 302.03 234.666 300.175 232.811 298.938C230.955 297.702 229.409 297.392 228.171 298.011C228.171 296.465 229.099 294.919 230.336 293.374C231.883 292.137 233.429 291.21 235.285 291.21C237.141 291.21 238.687 291.519 239.924 292.755C239.924 291.519 239.924 290.9 240.233 290.282C241.471 258.441 234.357 243.293 218.893 244.53C213.635 244.839 210.852 249.476 210.542 258.75C209.614 277.917 208.996 297.083 208.068 316.25C210.542 312.54 214.254 310.376 218.893 310.067C222.604 309.758 225.697 310.685 228.171 313.159C230.646 315.323 231.574 318.414 230.955 322.124C230.336 324.906 229.409 326.761 227.862 328.306C226.316 329.543 224.769 330.47 222.914 330.47C221.367 330.47 220.13 330.47 218.893 329.852C217.656 329.234 217.037 328.925 217.037 328.306C218.274 327.379 218.893 326.142 219.202 324.597C219.202 323.051 219.202 321.814 218.584 321.196C217.965 320.578 217.346 319.96 216.728 320.269C215.181 320.269 213.326 321.505 211.47 323.978C209.614 326.452 208.687 328.925 208.377 331.707C208.377 332.325 208.377 333.253 208.687 334.798C209.614 338.817 211.779 340.672 215.491 340.363C226.625 339.126 234.048 329.852 237.759 312.54Z" fill="#E52522"/>
<path d="M335.493 334.18C333.947 334.489 332.091 334.489 330.235 334.18C328.38 333.871 326.833 333.253 325.905 332.634C325.596 342.218 325.287 352.11 324.977 361.694C324.977 365.712 325.596 369.113 326.833 371.277C328.38 373.441 329.926 374.677 331.782 374.368C332.71 374.368 333.328 373.75 333.947 373.441C334.256 374.368 334.256 375.296 334.256 375.605C334.256 377.769 333.328 379.624 331.782 381.479C330.235 383.024 327.761 383.952 325.287 384.57C323.122 384.879 320.647 384.879 317.864 384.261C314.771 383.643 312.606 383.643 310.75 383.952C308.895 384.261 306.42 385.188 303.328 386.734C303.018 387.043 302.09 387.352 300.853 387.971C299.307 388.589 297.76 389.207 295.905 389.207C293.121 389.516 290.956 389.207 289.41 388.28C287.863 387.352 286.936 385.497 287.245 383.333C287.245 383.024 287.554 382.097 287.863 380.86C288.482 381.169 289.41 381.169 290.028 381.169C291.884 380.86 293.74 379.315 295.286 376.532C296.833 373.75 297.76 370.35 297.76 366.331C298.998 327.379 300.235 288.427 301.472 249.785C301.472 245.766 300.853 242.366 299.616 240.202C298.379 237.729 296.523 236.801 294.668 237.11C294.049 237.11 293.121 237.419 292.503 238.038C292.193 236.801 292.193 236.183 292.193 235.565C292.193 233.401 293.121 231.546 294.668 230C296.214 228.454 298.379 227.527 301.163 227.218C303.018 226.909 304.565 226.909 306.111 227.218C307.348 227.527 308.276 227.527 308.585 227.836C311.369 228.454 313.843 228.764 315.699 228.454C317.245 228.145 320.029 227.218 324.05 225.981C330.235 223.817 335.184 222.272 338.895 221.653C347.246 220.108 354.978 220.726 362.092 222.89C369.205 225.363 375.081 230 379.721 237.729C384.36 245.148 386.216 255.659 385.906 268.952C385.597 281.317 383.432 291.828 379.411 300.484C375.391 309.449 369.824 316.559 363.019 322.433C362.71 331.707 363.947 340.672 366.112 349.328C368.277 357.984 371.679 365.094 375.7 370.659C379.721 376.223 384.051 379.005 388.69 379.315C388.999 379.315 389.927 379.315 390.855 379.005C392.711 378.696 394.257 377.769 395.185 376.223C396.113 374.677 396.731 373.132 396.731 371.586C396.731 369.113 396.113 367.876 394.566 367.876C395.494 366.949 396.731 366.022 398.587 365.712C400.443 365.403 401.989 365.403 403.536 366.022C405.082 366.64 405.701 367.567 406.319 369.113C406.628 370.35 406.628 371.277 406.628 371.895C406.628 376.532 404.463 381.169 400.443 385.497C396.422 389.825 391.783 392.608 386.525 393.535C376.319 395.699 367.349 393.844 360.236 387.971C352.813 382.097 347.246 374.059 343.534 364.476C338.895 353.965 336.421 344.073 335.493 334.18ZM358.38 273.28C359.308 241.438 351.885 227.218 336.73 230C331.472 230.927 328.689 235.874 328.38 245.148C327.761 264.315 327.142 283.481 326.833 302.648C329.617 298.629 333.328 296.156 337.658 295.229C341.369 294.61 344.462 295.229 346.937 297.393C349.411 299.247 350.339 302.339 349.72 306.048C349.102 308.831 348.174 310.995 346.627 312.54C345.081 314.086 343.534 315.014 341.679 315.323C340.132 315.632 338.895 315.632 337.658 315.323C336.421 315.014 335.802 314.395 335.802 314.086C337.04 312.85 337.658 311.613 337.967 310.067C337.967 306.976 337.04 305.739 335.184 306.048C333.637 306.358 331.782 307.903 329.926 310.376C328.07 312.85 327.142 315.632 327.142 318.723C327.142 319.96 327.142 320.887 327.142 321.505C328.07 325.215 330.545 326.761 334.256 326.143C349.411 322.433 357.762 305.121 358.38 273.28Z" fill="#E52522"/>
<path d="M497.558 324.597C505.599 308.521 509.929 288.118 509.929 262.769C510.238 237.419 506.218 218.871 498.485 206.814C500.65 206.505 502.197 205.269 503.125 203.723C504.053 201.868 504.362 200.632 503.743 199.704C503.125 200.323 502.197 200.941 500.96 201.25C499.413 201.559 497.558 201.559 495.702 200.941C493.846 200.323 492.3 199.704 490.753 198.777C483.021 192.903 473.434 191.667 461.99 194.449C450.546 197.231 440.959 203.414 433.536 212.688C431.989 214.234 430.443 215.78 428.278 217.325C426.422 218.871 424.567 219.798 423.33 220.108C422.092 220.417 421.164 220.417 420.546 219.798C419.927 221.035 420.237 222.271 421.164 223.508C422.092 224.745 423.639 225.054 425.804 224.435C417.453 240.511 413.123 261.223 412.814 286.263C412.195 311.304 415.907 330.161 423.948 342.527C422.402 342.836 421.165 343.454 420.237 344.382C419.309 345.309 418.69 346.237 418.381 347.473C418.072 348.4 418.072 349.328 418.381 349.946C419 349.019 419.927 348.4 421.164 348.4C422.711 348.091 424.567 348.091 426.422 348.71C428.278 349.328 430.134 350.255 431.371 351.183C438.794 357.366 448.381 358.911 460.134 356.129C471.578 353.347 481.475 346.855 489.516 336.962C490.753 335.107 492.3 333.562 494.465 332.016C496.321 330.47 498.176 329.543 499.723 329.234C500.65 328.925 501.578 328.925 502.815 329.543C503.125 328.306 503.125 327.379 502.197 325.833C501.269 324.288 499.723 323.978 497.558 324.597ZM475.598 326.142C475.289 326.452 474.98 327.07 474.98 327.379C471.269 336.962 466.629 342.527 460.444 344.073C454.876 345.309 449.928 341.599 445.907 332.944C441.887 323.978 440.031 306.357 440.34 280.081C440.34 274.207 440.959 266.788 441.577 257.823C441.577 258.132 441.887 258.441 441.887 259.059C441.887 249.476 444.052 239.583 446.526 229.382C446.835 226.909 447.454 224.435 448.691 221.962C448.382 221.962 448.382 222.271 448.072 222.271C451.474 212.997 456.114 207.742 462.299 206.196C468.176 204.651 472.815 208.36 477.145 217.016C481.166 225.672 483.021 243.293 483.021 269.57C483.021 277.607 482.403 285.336 481.784 293.064C481.784 303.884 480.856 315.013 475.598 326.142Z" fill="#E52522"/>
<path d="M523.538 336.344C523.538 335.108 523.847 334.18 524.775 333.253C526.012 333.871 527.558 332.944 529.723 330.78C531.888 328.616 533.744 325.524 535.6 321.815C545.806 299.556 556.012 277.298 565.909 255.04C566.528 253.804 567.147 252.567 567.765 251.331C566.219 248.548 564.672 245.457 563.435 242.675C555.703 227.527 548.28 212.379 540.858 197.231C539.002 193.522 536.837 190.739 534.363 188.884C531.888 187.03 529.723 186.411 527.868 187.03C527.249 187.339 526.63 187.648 526.321 187.957C526.012 186.72 525.703 185.793 525.703 184.557C525.703 180.538 528.486 177.755 534.053 176.21C535.909 175.591 538.383 175.591 541.167 175.901C541.476 175.901 542.095 175.901 543.332 176.21C544.569 176.21 546.115 176.21 547.662 175.591C549.827 174.973 552.301 173.737 555.085 171.882C558.177 170.027 560.342 169.1 561.889 168.481C564.982 167.554 567.147 167.554 568.693 168.481C570.239 169.1 571.167 170.954 571.786 173.427C570.549 173.427 569.621 173.427 568.693 173.427C567.456 173.737 566.528 174.355 565.909 175.282C565.291 176.21 564.982 177.446 564.982 178.992C564.982 181.774 565.909 185.175 568.074 189.194C572.714 198.777 577.662 208.36 582.302 217.944C589.106 202.796 595.91 187.648 602.714 172.5C603.951 170.027 604.57 167.554 604.57 165.081C604.57 163.535 604.261 162.608 603.642 162.298C603.024 161.68 602.096 161.989 601.168 162.608C601.477 160.753 602.714 159.207 603.951 157.97C605.498 156.734 607.354 156.116 609.828 155.497C611.374 155.188 612.921 155.188 614.158 155.497C616.013 155.807 617.56 155.807 618.488 155.497C620.034 155.188 621.581 154.261 623.127 153.333C623.436 153.024 624.055 152.715 624.983 152.097C625.911 151.479 627.148 151.169 628.076 150.86C629.313 150.551 630.241 150.551 631.168 150.86C632.096 151.169 632.406 152.097 632.406 153.024C632.406 153.952 632.096 154.879 631.168 156.425C630.241 155.806 628.694 156.734 626.529 158.898C624.364 161.062 622.199 164.153 620.653 167.863C610.756 190.121 600.859 212.379 590.961 234.637C590.961 234.946 590.961 234.946 590.652 235.255C592.508 238.965 594.364 242.675 596.219 246.694C603.951 261.841 611.684 276.68 619.416 291.828C621.271 295.538 623.436 298.32 626.22 300.175C628.694 302.03 631.168 302.648 633.024 302.03C633.643 301.72 634.261 301.411 634.88 300.793C635.189 302.03 635.189 302.957 635.189 303.575C635.189 305.739 634.57 307.594 633.024 309.14C631.478 310.686 629.313 311.613 626.838 312.54C624.983 313.159 622.508 313.159 620.034 312.54C617.251 312.231 614.776 312.231 612.611 312.85C610.756 313.468 608.281 314.395 605.807 316.25C603.024 318.105 600.549 319.341 598.384 319.96C595.291 320.887 592.817 320.887 591.58 319.96C590.034 319.032 589.106 317.487 588.487 314.704C589.724 314.704 590.652 314.704 591.58 314.395C594.054 313.777 595.291 311.922 595.291 308.831C595.291 306.048 594.364 302.957 592.199 298.629C586.941 288.118 581.683 277.917 576.734 267.406C569.312 283.481 562.198 299.866 554.775 315.941C553.229 319.032 552.61 321.505 552.61 323.669C552.61 325.215 552.92 326.143 553.538 326.452C554.157 326.761 555.085 326.761 556.322 326.143C555.703 329.543 552.61 332.016 547.352 333.253C546.115 333.562 544.569 333.562 542.713 333.253C541.476 332.944 540.239 332.944 538.383 333.253C536.528 333.562 534.981 334.489 533.744 335.417C533.435 335.726 532.816 336.035 531.888 336.653C530.96 337.272 529.723 337.581 528.795 337.89C527.558 338.199 526.321 338.199 525.703 337.89C523.847 338.199 523.538 337.581 523.538 336.344Z" fill="#E52522"/>
<path d="M654.674 298.011C654.674 297.702 654.674 296.774 654.984 295.538C655.602 295.847 656.53 295.847 657.149 295.538C659.004 294.919 660.551 293.374 662.097 290.591C663.644 287.809 664.262 284.099 664.262 280.081C664.262 268.642 663.953 256.895 663.953 245.457C663.953 241.438 663.025 237.728 661.169 234.637C659.314 231.546 657.149 229.073 654.674 227.527C652.2 225.981 649.726 225.672 647.561 225.981C646.633 226.29 646.014 226.29 645.705 226.599C645.705 224.126 646.633 221.653 648.798 219.18C650.963 216.707 653.437 215.161 656.221 214.543C659.004 213.925 661.479 214.234 663.334 215.78C663.025 199.704 663.025 183.32 662.716 167.245C662.716 163.226 661.788 160.134 660.551 157.97C659.004 155.806 657.458 154.879 655.602 155.497C654.984 155.806 654.056 156.116 653.437 156.734C653.128 155.806 653.128 154.879 653.128 154.261C653.128 151.478 654.056 149.005 656.221 146.532C658.386 144.059 660.86 142.513 663.953 141.895C667.973 140.968 671.376 142.204 674.159 146.223C675.087 141.895 677.252 138.185 679.726 134.476C682.51 131.075 686.221 128.293 690.551 126.747C690.861 126.747 691.479 126.438 691.788 126.438C694.572 125.511 697.046 125.82 699.52 127.056C701.995 128.293 703.232 130.148 703.541 132.93C702.613 132.93 701.995 132.93 701.685 132.93C699.211 133.548 696.737 135.712 693.953 139.113C691.479 142.823 689.933 146.532 690.242 150.551C690.551 170.027 690.861 189.503 690.861 208.669C692.716 206.196 695.19 204.651 697.974 204.032C700.758 203.414 703.232 203.723 705.397 204.96C707.562 206.196 708.799 208.36 708.799 210.833C708.49 210.833 707.871 210.833 707.253 211.142C705.088 211.761 702.613 213.306 700.139 216.089C697.665 218.871 695.5 222.272 693.644 226.29C691.788 230.309 691.17 234.328 691.17 238.347C691.17 249.785 691.479 261.532 691.479 272.97C691.479 276.989 692.407 280.081 693.953 282.245C695.5 284.409 697.046 285.336 698.902 284.718C699.83 284.409 700.448 284.099 701.067 283.481C701.376 284.409 701.376 285.336 701.376 285.645C701.376 287.809 700.758 289.973 698.902 291.519C697.355 293.374 695.191 294.301 692.407 295.229C690.242 295.847 687.768 295.847 684.984 295.538C682.51 294.919 680.036 295.228 677.871 295.538C676.015 296.156 673.541 297.083 670.757 298.938C667.974 300.793 665.499 302.03 663.334 302.648C660.551 303.266 658.386 303.266 656.839 302.339C655.293 302.03 654.674 300.484 654.674 298.011Z" fill="#E52522"/>
<path d="M860.658 199.704C860.967 212.997 861.585 226.29 861.895 239.583C861.895 243.602 862.823 246.693 864.369 249.167C865.915 251.331 867.462 252.567 869.317 252.258C870.245 252.258 870.864 251.949 871.482 251.331C871.792 252.567 872.101 253.495 872.101 254.113C872.101 256.277 871.482 258.132 869.936 259.368C868.39 260.914 866.225 261.841 863.75 262.15C861.585 262.46 859.111 262.15 856.328 261.532C856.018 261.532 855.09 261.223 853.853 261.223C852.307 260.914 850.76 260.914 849.214 261.223C847.358 261.532 845.812 261.841 844.575 262.46C843.028 263.078 842.41 263.387 842.1 263.696C839.317 265.242 836.843 266.169 834.678 266.478C831.894 266.788 829.729 266.788 828.183 265.86C826.636 264.933 825.708 263.387 825.708 260.914C825.708 260.296 825.708 259.368 826.018 258.441C826.636 258.75 827.564 258.75 828.183 258.75C830.038 258.441 831.894 256.895 833.131 254.113C834.368 251.331 834.987 247.93 834.987 243.911C834.678 235.874 834.368 227.836 834.368 219.798C834.368 217.016 833.441 214.234 832.203 212.07C830.657 209.906 829.111 208.051 827.255 207.124C825.399 206.196 823.853 205.887 822.306 206.814C822.306 205.269 822.925 203.414 824.471 202.177C826.018 200.632 827.564 199.704 829.42 199.395C830.966 199.086 832.513 199.395 834.059 200.632C833.441 179.61 832.822 158.589 832.203 137.567C826.018 142.204 820.76 148.696 816.43 157.661C811.791 166.626 808.389 176.519 806.224 187.648C803.749 198.777 802.821 209.906 803.131 221.035C803.131 221.035 803.131 221.035 803.131 221.344C803.44 223.817 803.749 225.363 803.749 226.599C804.059 237.728 799.419 247.003 789.522 254.422C786.12 257.204 783.027 258.75 779.934 259.368C776.223 259.986 773.439 259.677 770.656 257.822C768.182 256.277 766.017 254.113 764.47 251.331C762.924 248.857 762.305 246.693 762.305 244.839C762.924 245.148 764.161 245.148 766.017 244.839C769.109 244.22 771.893 242.675 774.367 240.202C776.842 237.728 777.769 234.328 777.769 229.691C777.769 222.89 774.367 214.852 767.872 205.578C761.377 195.995 755.81 185.793 751.48 174.973C751.79 188.884 752.099 202.796 752.408 216.707C753.645 215.161 755.192 214.234 756.738 213.925C758.594 213.615 760.14 213.925 761.687 214.852C763.233 215.779 763.852 217.016 764.161 218.871C762.614 218.562 761.068 219.489 759.212 221.035C757.357 222.89 755.81 225.054 754.573 227.836C753.336 230.618 752.717 233.4 752.717 236.492C753.027 247.003 753.027 257.822 753.336 268.333C753.336 271.734 754.264 273.898 755.501 275.443C756.738 276.68 758.285 276.989 759.831 275.753C760.45 277.298 760.14 279.153 759.212 280.39C757.975 281.935 756.429 282.863 754.264 283.172C753.027 283.481 752.099 283.481 751.171 283.481C750.243 283.481 749.625 283.481 749.315 283.172C747.46 282.863 745.913 282.863 744.676 283.172C743.748 283.481 742.82 283.79 741.583 284.408C740.655 285.027 740.037 285.336 739.727 285.336C738.181 286.572 736.325 287.191 734.779 287.5C732.614 288.118 731.068 287.809 729.83 286.882C728.593 285.954 728.284 284.408 728.903 282.554C730.449 283.172 731.686 282.245 732.923 280.39C734.16 278.535 734.779 275.753 734.779 272.352C734.47 256.586 734.16 240.82 733.851 224.745C733.851 221.962 733.233 219.18 731.686 217.016C730.449 214.852 728.593 213.306 726.738 212.379C724.882 211.452 723.335 211.452 721.789 212.379C721.789 210.833 722.408 208.978 723.954 207.742C725.191 206.196 727.047 205.269 728.903 204.96C730.449 204.65 731.995 204.96 733.542 205.887C733.233 184.865 732.923 163.844 732.305 142.822C732.305 139.422 731.686 137.258 730.14 135.712C728.903 134.476 727.356 134.167 726.119 135.403C725.5 133.857 725.81 132.003 726.738 130.766C727.975 129.22 729.521 128.293 731.686 127.984C732.614 127.675 733.542 127.675 734.47 127.675C735.398 127.675 736.016 127.675 736.635 127.675C741.583 127.675 745.913 127.056 749.934 126.129C750.552 125.82 752.408 125.202 755.192 123.656C759.212 121.801 761.687 120.564 762.924 120.255C763.233 120.255 763.542 120.255 763.852 119.946C765.398 119.637 766.326 119.637 766.945 120.255C766.326 122.728 766.017 125.82 766.017 129.839C766.017 136.64 767.563 143.75 770.347 151.788C773.13 159.825 776.842 167.863 781.79 176.21C783.955 179.61 785.811 183.011 787.976 186.411C789.522 173.118 794.471 159.516 802.821 145.605C810.863 131.693 820.451 119.019 830.966 107.89C832.513 107.581 834.059 107.581 835.296 107.89C836.533 108.199 837.461 108.199 837.771 108.199C840.554 108.817 843.028 109.126 844.884 108.817C846.43 108.508 847.977 108.199 849.523 107.581C850.76 106.962 851.688 106.653 851.998 106.344C854.781 104.798 857.255 103.871 859.42 103.562C861.895 103.253 864.06 103.562 865.606 104.489C867.153 105.417 868.08 106.962 868.08 109.126C868.08 109.435 868.08 110.363 867.771 111.909C867.152 111.599 866.225 111.599 865.606 111.599C863.75 111.908 862.204 113.454 860.967 115.927C859.73 118.71 859.111 122.11 859.111 126.129C859.73 144.677 860.348 163.226 860.967 181.774C862.513 180.228 864.06 179.301 865.606 179.301C867.462 178.992 869.008 179.301 870.555 180.538C872.101 181.465 872.72 183.011 872.72 184.556C871.173 184.247 869.627 184.865 867.771 186.411C865.915 187.957 864.369 190.121 863.132 192.903C861.276 193.831 860.658 196.613 860.658 199.704Z" fill="#E52522"/>
<path d="M881.379 257.823C882.307 258.132 882.926 258.132 883.235 258.132C886.019 257.823 888.493 255.968 890.967 252.876C893.441 249.785 894.679 246.075 894.679 241.747C893.441 206.815 892.204 172.191 890.967 137.258C890.967 135.094 890.349 133.239 889.421 132.003C888.493 130.766 887.256 129.22 885.4 127.675C886.946 127.366 888.493 126.747 890.039 125.202C891.586 123.965 893.132 121.801 894.679 118.71C898.39 111.909 904.266 106.035 912.617 101.089C920.658 96.1425 928.391 93.6694 935.195 93.0511C941.999 92.4328 949.731 94.2877 958.391 97.9974C967.051 101.707 973.237 106.962 977.567 113.145C979.422 115.927 980.969 117.782 982.515 119.019C984.062 120.255 985.608 120.874 987.464 120.874C985.917 122.729 984.68 124.274 983.752 125.82C982.824 127.366 982.515 128.911 982.824 131.384C984.371 166.317 985.917 200.941 987.773 235.874C987.773 238.656 988.701 241.129 989.938 243.602C991.484 245.766 993.031 247.621 994.887 248.858C996.742 250.094 998.598 250.712 1000.14 250.712C1000.45 250.712 1001.07 250.712 1002 250.403C1002 253.186 1000.76 255.35 998.598 257.204C996.433 259.059 993.649 259.987 990.557 259.987C989.938 259.987 989.629 259.987 989.629 259.677C984.99 259.368 980.969 257.823 978.185 255.04C975.092 252.258 972.927 248.858 971.69 245.148C969.216 249.785 966.123 252.258 961.793 252.567C958.7 252.567 955.917 251.949 953.752 250.094C951.587 248.239 950.35 246.075 950.35 243.602C950.35 242.984 950.35 242.056 950.659 241.129C951.278 241.438 952.205 241.747 952.824 241.747C954.68 241.747 956.535 240.202 957.772 237.729C959.01 235.255 959.628 231.855 959.628 227.836C959.319 217.325 958.7 206.815 958.391 196.304C957.154 198.159 955.298 199.086 952.824 199.086C951.277 199.086 950.04 198.777 948.803 197.849C947.566 196.922 946.948 195.995 946.948 195.067C947.875 195.686 949.113 195.376 950.35 194.758C951.587 194.14 952.515 192.903 953.133 191.048C953.752 189.194 953.752 187.339 953.443 185.175C952.515 181.156 950.659 178.374 948.185 176.519C945.401 174.664 942.308 174.046 938.597 174.355C934.886 174.664 931.793 175.901 929.318 178.065C926.844 180.229 925.298 183.32 924.679 187.339C924.679 187.957 924.679 188.575 924.679 189.194C924.679 191.976 925.607 194.14 927.463 195.686C929.009 197.231 930.865 197.231 932.411 196.304C932.411 197.54 931.793 198.468 930.865 199.395C929.628 200.323 928.39 200.941 926.844 200.941C924.988 201.25 923.133 200.323 921.277 198.777C921.586 209.288 922.205 219.798 922.514 230.309C922.823 234.328 923.442 237.419 924.988 239.892C926.535 242.366 928.391 243.293 930.246 243.293C930.865 243.293 931.483 242.984 932.102 242.366C932.411 243.602 932.72 244.22 932.72 244.839C932.72 247.621 931.793 249.785 929.937 251.949C928.081 254.113 925.298 255.04 922.514 255.349C918.184 255.659 914.782 253.804 911.998 249.476C911.071 253.495 909.215 257.204 906.431 260.296C903.648 263.387 899.936 265.551 895.297 266.479C895.297 266.479 894.679 266.788 894.369 266.788C891.276 267.097 888.802 266.479 886.328 264.933C882.926 262.46 881.689 260.296 881.379 257.823ZM919.731 171.263C923.133 164.153 929.009 160.444 937.669 159.825C946.02 159.207 952.515 162.298 956.535 168.79C956.226 158.589 955.608 148.078 955.298 137.876C954.68 126.747 952.824 118.091 949.113 111.599C945.401 105.108 940.762 102.325 935.504 102.634C929.937 102.944 925.607 106.653 922.514 113.454C919.421 120.255 918.184 129.22 918.493 140.35C919.112 150.551 919.421 160.753 919.731 171.263Z" fill="#E52522"/>
<path d="M22.4978 364.785C24.6628 359.22 38.2713 361.075 31.7763 349.328C19.405 327.688 17.5493 303.266 16.9307 279.153C16.0028 245.148 42.6013 210.833 73.5297 205.269C80.9525 204.032 88.9939 203.414 93.6331 209.597C98.5816 216.707 105.386 218.562 112.19 222.272C128.891 230.927 139.098 251.64 134.459 267.097C128.582 286.263 111.572 298.938 93.0145 297.392C75.3854 295.847 67.0347 283.172 74.4575 267.715C76.6225 262.769 79.4061 258.132 74.1482 253.804C69.1997 249.785 64.5604 252.258 59.9212 255.349C53.7355 259.677 50.0241 264.933 47.8591 272.352C41.9827 291.519 46.9312 308.831 55.2819 325.833C74.7668 366.021 106.623 393.535 144.665 414.556C185.8 437.433 228.79 446.707 276.729 442.688C324.668 438.669 369.824 427.849 413.742 408.992C425.495 404.046 433.536 394.153 444.67 388.898C448.382 387.352 452.093 384.879 456.114 387.97C459.516 390.753 457.66 394.462 457.351 397.863C455.495 413.011 449.619 425.685 436.01 433.723C426.732 439.288 432.299 447.325 433.845 452.89C435.392 458.763 441.887 453.508 445.598 451.962C461.681 445.161 477.454 437.742 493.846 431.25C514.878 422.903 534.981 411.774 557.559 408.064C564.982 406.828 574.26 404.355 578.9 412.083C583.539 420.43 588.797 417.339 594.364 415.793C621.271 407.446 649.107 405.282 676.943 407.446C699.83 409.301 721.479 416.72 737.562 434.65C752.099 450.726 742.201 480.403 720.861 485.04C716.222 485.968 710.655 486.277 708.18 481.64C705.087 476.075 711.582 475.457 714.366 472.984C728.284 460.309 726.119 445.161 709.108 437.742C687.458 428.159 664.88 425.376 641.066 428.159C599.622 433.105 560.961 446.707 521.991 460C469.722 477.93 417.144 494.005 361.782 498.952C280.131 506.68 201.264 499.57 129.819 453.817C125.799 451.035 122.087 450.726 117.139 452.581C90.5403 462.473 90.5403 462.164 77.2411 436.196C76.6225 434.96 75.3854 434.341 73.5297 432.796C71.0554 447.944 64.2511 458.145 48.1684 457.218C32.0856 456.599 12.91 437.742 10.745 420.739C8.58003 404.046 20.6421 399.099 34.5599 394.771C24.6628 387.043 20.6421 376.841 22.4978 364.785ZM27.7556 259.677C23.7349 268.952 22.4978 277.917 28.6835 287.5C33.0135 294.301 35.1784 302.648 36.7249 310.685C44.1477 345 66.7254 368.804 89.3031 393.844C129.201 437.742 180.851 460.618 236.213 467.11C280.75 472.056 328.07 471.747 372.917 457.836C344.462 455.363 316.627 468.038 287.863 460.618C343.844 457.527 393.948 438.669 438.175 404.973C427.66 409.919 416.835 414.247 406.628 419.503C371.989 437.433 334.565 446.707 296.214 452.581C254.151 458.763 212.707 451.653 173.738 435.887C123.634 415.793 80.6432 385.497 53.7355 336.344C42.6013 315.941 37.0341 294.61 34.8692 272.043C33.9413 262.769 37.6527 255.04 42.6013 247.621C45.0755 243.602 50.0241 240.202 46.0034 231.855C37.6527 240.82 31.7763 249.785 27.7556 259.677ZM477.764 445.78C416.526 475.766 351.885 485.968 284.461 480.094C278.276 479.476 272.09 479.785 265.904 479.785C260.337 479.785 254.461 479.785 246.729 479.785C306.73 502.352 475.289 472.366 552.92 425.685C525.084 426.304 500.96 434.651 477.764 445.78ZM106.004 248.548C110.025 268.952 92.7053 267.715 80.9525 272.97C93.9424 271.116 108.788 281.626 119.304 267.097C125.18 258.75 129.51 248.239 122.087 238.347C106.623 217.016 85.5917 225.672 65.7976 228.145C86.8289 227.527 103.53 234.946 106.004 248.548ZM45.0755 449.489C51.2612 451.035 57.1376 449.489 60.2304 444.543C64.5604 437.742 55.9005 438.36 53.4262 435.269C47.2405 427.849 38.2713 423.212 33.9413 413.629C32.3949 410.228 32.7042 402.809 25.5906 405.591C20.9514 407.446 20.3328 412.702 20.3328 417.648C20.9514 428.468 35.4877 447.016 45.0755 449.489Z" fill="#E52522"/>
<path d="M25.5906 369.113C24.972 366.64 24.972 363.857 23.4256 362.003C3.94072 337.271 6.72427 310.376 14.1471 283.79C22.1885 254.422 34.8691 226.599 54.9726 201.25C59.6118 195.376 63.6325 188.884 64.8697 181.465C65.7975 176.21 65.7975 169.718 59.6118 167.863C48.4776 164.462 52.189 159.207 53.7354 153.333C65.1789 116.546 66.4161 80.0672 44.7662 45.1344C40.1269 37.4059 34.2505 30.6048 24.3535 26.586C20.0235 24.7311 15.3842 24.1129 11.3635 27.2043C8.88926 29.0591 8.2707 31.5322 8.88926 34.0053C10.1264 38.6424 14.1471 39.879 19.4049 39.5699C32.7041 38.6424 34.2505 47.9166 36.1063 54.4086C45.3848 89.3414 47.5497 124.274 37.3434 159.516C23.7349 204.65 6.41499 248.548 1.15717 294.919C-1.00782 314.395 -0.698538 333.562 7.03356 352.11C10.1264 359.839 13.8378 367.567 25.5906 369.113Z" fill="#E52522"/>
<path d="M547.971 401.263C550.445 401.573 553.229 400.954 555.394 402.191C583.23 417.03 609.209 409.919 634.571 398.172C662.406 385.188 687.768 368.185 709.727 344.073C714.985 338.508 720.552 333.562 727.665 331.089C732.614 329.234 739.109 327.997 741.892 333.871C747.15 344.382 751.789 339.745 757.356 336.962C791.996 319.651 827.873 311.922 866.224 327.379C874.575 330.78 882.307 335.417 887.874 344.073C890.348 348.091 891.895 352.419 889.421 356.747C887.874 359.53 885.709 360.457 882.926 360.148C878.286 359.839 876.431 356.129 875.812 350.874C874.266 337.581 865.297 337.581 858.183 336.962C821.997 333.871 786.738 337.581 753.954 353.656C711.582 374.368 670.757 398.79 625.911 412.083C606.735 417.648 587.869 420.43 568.075 416.102C559.724 414.866 551.373 412.392 547.971 401.263Z" fill="#E52522"/>
<path d="M28.6834 367.876C30.8483 362.312 44.4568 364.167 37.9619 352.419C25.5905 330.78 23.7348 306.358 23.1162 282.245C22.1884 248.239 48.7868 213.925 79.7152 208.36C87.138 207.124 95.1794 206.505 99.8187 212.688C104.767 219.798 111.571 221.653 118.376 225.363C135.077 234.019 145.283 254.731 140.644 270.188C134.768 289.355 117.757 302.03 99.2001 300.484C81.5709 298.938 73.2202 286.263 80.643 270.806C82.808 265.86 85.5916 261.223 80.3338 256.895C75.3852 252.876 70.746 255.349 66.1067 258.441C59.921 262.769 56.2096 268.024 54.0446 275.444C48.1682 294.61 53.1168 311.922 61.4674 328.925C80.9523 369.113 112.809 396.626 150.85 417.648C191.985 440.524 234.976 449.798 282.915 445.78C330.854 441.761 376.009 430.941 419.928 412.083C431.68 407.137 439.722 397.245 450.856 391.989C454.567 390.444 458.279 387.97 462.299 391.062C465.702 393.844 463.846 397.554 463.537 400.954C461.681 416.102 455.804 428.777 442.196 436.814C432.917 442.379 438.485 450.417 440.031 455.981C441.577 461.855 448.072 456.599 451.784 455.054C467.867 448.253 483.64 440.833 500.032 434.341C521.063 425.995 541.167 414.866 563.745 411.156C571.167 409.919 580.446 407.446 585.085 415.175C589.724 423.521 594.982 420.43 600.549 418.884C627.457 410.538 655.293 408.374 683.128 410.538C706.015 412.392 727.665 419.812 743.748 437.742C758.284 453.817 748.387 483.495 727.046 488.132C722.407 489.059 716.84 489.368 714.366 484.731C711.273 479.167 717.768 478.548 720.552 476.075C734.469 463.401 732.304 448.253 715.294 440.833C693.644 431.25 671.066 428.468 647.251 431.25C605.807 436.196 567.147 449.798 528.177 463.091C475.908 481.021 423.33 497.097 367.968 502.043C286.317 509.771 207.449 502.661 136.005 456.909C131.984 454.126 128.273 453.817 123.324 455.672C96.7258 465.565 96.7258 465.255 83.4266 439.288C82.808 438.051 81.5709 437.433 79.7152 435.887C77.2409 451.035 70.4367 461.237 54.3539 460.309C38.2712 459.691 19.0956 440.833 16.9306 423.831C14.7656 407.137 26.8277 402.191 40.7454 397.863C30.8483 390.134 26.8276 379.933 28.6834 367.876ZM33.9412 262.769C29.9205 272.043 28.6834 281.008 34.869 290.591C39.199 297.392 41.364 305.739 42.9104 313.777C50.3332 348.091 72.9109 371.895 95.4887 396.936C135.386 440.833 187.037 463.71 242.399 470.202C286.935 475.148 334.256 474.839 379.102 460.927C350.648 458.454 322.812 471.129 294.049 463.71C350.029 460.618 400.133 441.761 444.361 408.065C433.845 413.011 423.02 417.339 412.814 422.594C378.174 440.524 340.751 449.798 302.4 455.672C260.337 461.855 218.893 454.745 179.923 438.979C129.819 418.884 86.8287 388.589 59.921 339.435C48.7868 319.032 43.2197 297.702 41.0547 275.134C40.1269 265.86 43.8383 258.132 48.7868 250.712C51.2611 246.694 56.2096 243.293 52.1889 234.946C43.8383 243.911 37.9619 252.876 33.9412 262.769ZM483.949 448.871C422.711 478.858 358.071 489.059 290.647 483.185C284.461 482.567 278.275 482.876 272.09 482.876C266.523 482.876 260.646 482.876 252.914 482.876C312.915 505.444 481.475 475.457 559.105 428.777C531.27 429.395 507.146 437.742 483.949 448.871ZM112.19 251.64C116.211 272.043 98.8908 270.806 87.138 276.062C100.128 274.207 114.974 284.718 125.489 270.188C131.366 261.841 135.696 251.331 128.273 241.438C112.809 220.108 91.7773 228.763 71.9831 231.237C93.0144 230.618 109.716 238.038 112.19 251.64ZM51.2611 452.581C57.4468 454.126 63.3232 452.581 66.416 447.634C70.746 440.833 62.086 441.452 59.6117 438.36C53.4261 430.941 44.4568 426.304 40.1269 416.72C38.5804 413.32 38.8897 405.901 31.7762 408.683C27.1369 410.538 26.5184 415.793 26.5184 420.739C27.1369 431.559 41.6733 450.108 51.2611 452.581Z" fill="#FAB60D"/>
<path d="M31.7761 372.204C31.1576 369.731 31.1576 366.949 29.6112 365.094C10.1263 340.363 12.9098 313.468 20.3326 286.882C28.374 257.513 41.0547 229.691 61.1581 204.341C65.7974 198.468 69.8181 191.976 71.0552 184.556C71.983 179.301 71.983 172.809 65.7974 170.954C54.6631 167.554 58.3745 162.298 59.921 156.425C71.3645 119.637 72.6016 83.1586 50.9517 48.2258C46.3125 40.4973 40.4361 33.6962 30.539 29.6774C26.209 27.8226 21.5698 27.2043 17.5491 30.2957C15.0748 32.1505 14.4562 34.6236 15.0748 37.0968C16.3119 41.7339 20.3326 42.9704 25.5905 42.6613C38.8897 41.7339 40.4361 51.0081 42.2918 57.5C51.5703 92.4328 53.7353 127.366 43.5289 162.607C29.9204 207.742 12.6005 251.64 7.34271 298.011C5.17773 317.487 5.48701 336.653 13.2191 355.202C16.3119 362.93 20.0234 370.659 31.7761 372.204Z" fill="#FAB60D"/>
<path d="M554.157 404.355C556.631 404.664 559.415 404.046 561.58 405.282C589.415 420.121 615.395 413.011 640.756 401.263C668.592 388.28 693.953 371.277 715.912 347.164C721.17 341.599 726.737 336.653 733.851 334.18C738.799 332.325 745.294 331.089 748.078 336.962C753.336 347.473 757.975 342.836 763.542 340.054C798.182 322.742 834.059 315.013 872.41 330.47C880.761 333.871 888.493 338.508 894.06 347.164C896.534 351.183 898.08 355.511 895.606 359.839C894.06 362.621 891.895 363.548 889.111 363.239C884.472 362.93 882.616 359.22 881.998 353.965C880.451 340.672 871.482 340.672 864.369 340.054C828.182 336.962 792.924 340.672 760.14 356.747C717.768 377.46 676.942 401.882 632.096 415.175C612.921 420.739 594.054 423.521 574.26 419.194C565.91 417.957 557.559 415.484 554.157 404.355Z" fill="#FAB60D"/>
</svg>
