<svg width="98" height="92" viewBox="0 0 98 92" fill="none" xmlns="http://www.w3.org/2000/svg">
<g id="flecha der">
<ellipse id="Ellipse 1" cx="49" cy="46" rx="49" ry="46" fill="#D9D9D9" fill-opacity="0.67"/>
<g id="close">
<g id="Vector" filter="url(#filter0_d_1394_2883)">
<path d="M53.4386 12.7678C53.4386 12.7678 49.4953 18.4112 56.2371 19.4991C62.8658 20.5462 63.516 8.87857 54.2725 9.00095C49.2126 9.06895 44.3647 10.66 43.0927 21.6476C42.273 28.7869 46.5272 34.9607 46.5272 34.9607C46.5272 34.9607 40.2942 31.6018 39.1777 19.5807C39.1777 19.5807 33.0295 17.3369 34.1461 24.3266C35.2626 31.3162 35.2626 36.9732 53.4386 43.6909C53.4386 43.6909 33.0719 52.0269 34.033 66.0198C34.9941 80.0128 40.0257 72.4792 40.0257 72.4792C40.0257 72.4792 37.9763 62.525 47.1067 53.6723C47.1067 53.6723 38.9232 75.5932 46.9512 80.0128C57.5515 85.8466 61.5938 77.3203 59.8977 73.8254C58.2017 70.3306 51.2196 70.0586 52.322 75.702L53.7213 77.3202C53.7213 77.3202 47.8558 80.2847 47.4035 70.9969C47.2339 67.2573 49.4953 53.6723 65 43.5278C65 43.5278 44.5909 34.5663 47.5731 19.771C47.5731 19.7574 47.46 12.2782 53.4386 12.7678Z" fill="#FEB500"/>
</g>
</g>
</g>
<defs>
<filter id="filter0_d_1394_2883" x="34" y="9" width="34" height="75" filterUnits="userSpaceOnUse" color-interpolation-filters="sRGB">
<feFlood flood-opacity="0" result="BackgroundImageFix"/>
<feColorMatrix in="SourceAlpha" type="matrix" values="0 0 0 0 0 0 0 0 0 0 0 0 0 0 0 0 0 0 127 0" result="hardAlpha"/>
<feOffset dx="3" dy="2"/>
<feComposite in2="hardAlpha" operator="out"/>
<feColorMatrix type="matrix" values="0 0 0 0 0.898039 0 0 0 0 0.145098 0 0 0 0 0.133333 0 0 0 1 0"/>
<feBlend mode="normal" in2="BackgroundImageFix" result="effect1_dropShadow_1394_2883"/>
<feBlend mode="normal" in="SourceGraphic" in2="effect1_dropShadow_1394_2883" result="shape"/>
</filter>
</defs>
</svg>
