<?xml version="1.0" encoding="utf-8"?>
<!-- Generator: Adobe Illustrator 24.3.0, SVG Export Plug-In . SVG Version: 6.00 Build 0)  -->
<svg version="1.1" id="Capa_1" xmlns="http://www.w3.org/2000/svg" xmlns:xlink="http://www.w3.org/1999/xlink" x="0px" y="0px"
	 viewBox="0 0 1920 100.08" style="enable-background:new 0 0 1920 100.08;" xml:space="preserve">
<style type="text/css">
	.st0{fill:#FF0006;}
	.st1{fill:#FEB500;}
	.st2{fill:#002A54;}
</style>
<path class="st0" d="M1920,37.43l-112.14,0c-232.57,0-425.14-13.71-525.14-37.43H0v44.08c640,8.45,1280,16.9,1920,25.35
	C1920,58.76,1920,48.1,1920,37.43z"/>
<path class="st1" d="M1920,66.57h-112.14c-232.57,0-425.14-13.71-525.14-37.43H0v44.08c640,8.07,1280,16.14,1920,24.21
	C1920,87.14,1920,76.86,1920,66.57z"/>
<path class="st2" d="M1920,94h-112.14c-232.57,0-425.14-13.71-525.14-37.43H0v44.08h1920V94z"/>
</svg>
