<?xml version="1.0" encoding="utf-8"?>
<!-- Generator: Adobe Illustrator 24.1.0, SVG Export Plug-In . SVG Version: 6.00 Build 0)  -->
<svg version="1.1" id="Capa_1" xmlns="http://www.w3.org/2000/svg" xmlns:xlink="http://www.w3.org/1999/xlink" x="0px" y="0px"
	 viewBox="0 0 102 101" style="enable-background:new 0 0 102 101;" xml:space="preserve">
<style type="text/css">
	.st0{fill:none;stroke:#E9E9E9;stroke-width:7.6515;}
	.st1{fill:none;stroke:#E8E9E9;stroke-width:7.7;stroke-miterlimit:10;}
</style>
<path class="st0" d="M74.9,46.7H63.2V40c0-1.7,0.4-2.8,1-3.5c0.5-0.6,1.6-1.4,4.3-1.4h7h3.8v-3.8V17.5v-3.2l-3.2-0.5l-0.6,3.8
	c0.6-3.8,0.6-3.8,0.6-3.8l0,0l0,0l0,0l0,0l-0.1,0c-0.1,0-0.1,0-0.2,0c-0.2,0-0.5-0.1-0.9-0.1c-0.7-0.1-1.8-0.2-3-0.4
	c-2.4-0.3-5.7-0.6-9-0.6c-7.2,0-13.5,2.2-18.1,6.7c-4.6,4.6-6.9,11.1-6.9,18.8v8.5H27.7h-3.8v3.8v16.2v3.8h3.8h10.4v26.7H16
	c-1.9,0-6.2-2.7-7.5-4C7.1,91.9,4,84.8,4,82.9V18.4c0-1.9,3.7-8.4,5-9.7c1.3-1.3,10.4-4.9,12.3-4.9h62.5c1.9,0,8.2,3.8,9.5,5.1
	c1.3,1.3,4,7.2,4,9.1v66.1c0,1.9-2.9,7.6-4.2,8.9c-1.3,1.3-6.5,4.2-8.3,4.2H63.2V70.5h9.2h3.3l0.5-3.2l2.5-16.2l0.7-4.4H74.9z"/>
<path class="st1" d="M27.9,97.2h41.8H27.9z"/>
</svg>
