<svg id="Capa_1" data-name="Capa 1" xmlns="http://www.w3.org/2000/svg" viewBox="0 0 39 26"><defs><style>.cls-1{fill:#fff;}</style></defs><path class="cls-1" d="M3.12,1.59c.54-.13,32.33-.12,32.75,0l-.62.67L23,15.53a4.64,4.64,0,0,1-7,0Q9.62,8.64,3.24,1.73Z" transform="translate(0 -1.5)"/><path class="cls-1" d="M3.11,27.41,5.31,25c2.61-2.82,5.22-5.63,7.82-8.46.13-.14.2-.12.31,0A18.3,18.3,0,0,0,14.89,18a7.25,7.25,0,0,0,9.93-.67c.24-.26.49-.52.72-.79s.21-.14.34,0l3.64,4,6.17,6.66a.47.47,0,0,1,.16.21C35.44,27.53,3.74,27.54,3.11,27.41Z" transform="translate(0 -1.5)"/><path class="cls-1" d="M39,14.52v9a3.89,3.89,0,0,1-.73,2.31c-.11.16-.16.17-.3,0-1.81-2-3.64-3.95-5.46-5.92-1.62-1.75-3.24-3.51-4.87-5.26-.14-.14-.14-.22,0-.37Q32.8,8.76,37.93,3.2c.23-.24.18-.27.39,0A3.81,3.81,0,0,1,39,5.46v9.06Z" transform="translate(0 -1.5)"/><path class="cls-1" d="M0,14.48v-9A4,4,0,0,1,.72,3.17C.83,3,.89,3,1,3.14Q4.83,7.28,8.66,11.4c.9,1,1.79,1.95,2.7,2.91.15.16.13.23,0,.38Q6.19,20.27,1,25.86c-.14.15-.19.12-.3,0A4,4,0,0,1,0,23.54V14.48Z" transform="translate(0 -1.5)"/></svg>