<svg width="34" height="34" viewBox="0 0 34 34" fill="none" xmlns="http://www.w3.org/2000/svg">
<path d="M25.2412 15.5508H21.1412V13.1508C21.1412 12.5508 21.2412 12.1508 21.5412 11.9508C21.7412 11.7508 22.1412 11.4508 23.0412 11.4508H26.9412V4.05078L25.8412 3.85078L25.6412 5.15078C25.8412 3.85078 25.8412 3.85078 25.8412 3.85078C25.8412 3.85078 25.8412 3.85078 25.7412 3.85078C25.6412 3.85078 25.5412 3.85078 25.4412 3.85078C25.1412 3.85078 24.8412 3.75078 24.3412 3.75078C23.4412 3.65078 22.3412 3.55078 21.1412 3.55078C18.6412 3.55078 16.3412 4.35078 14.7412 5.95078C13.1412 7.55078 12.3412 9.85078 12.3412 12.6508V15.6508H7.24121V24.1508H12.3412V33.4508H4.54121C3.84121 33.4508 2.34121 32.5508 1.84121 32.0508C1.34121 31.5508 0.241211 29.0508 0.241211 28.4508V5.65078C0.241211 4.95078 1.54121 2.65078 2.04121 2.25078C2.54121 1.75078 5.74121 0.550781 6.34121 0.550781H28.4412C29.1412 0.550781 31.3412 1.85078 31.8412 2.35078C32.3412 2.85078 33.2412 4.95078 33.2412 5.55078V28.9508C33.2412 29.6508 32.2412 31.6508 31.7412 32.0508C31.1412 32.4508 29.3412 33.4508 28.6412 33.4508H21.0412V24.0508H25.5412L25.7412 22.9508L26.6412 17.2508L26.8412 15.6508H25.2412V15.5508Z" fill="#E9E9E9"/>
</svg>
