<svg width="111" height="89" viewBox="0 0 111 89" fill="none" xmlns="http://www.w3.org/2000/svg">
<path d="M49.6416 72.2367V72.177H49.5818H8.26364C6.08797 72.177 4.00133 71.3067 2.46278 69.7575C0.92421 68.2082 0.0597775 66.1069 0.0597775 63.9157V8.44224C0.0597775 6.25109 0.92421 4.14976 2.46278 2.60051C4.00133 1.05127 6.08797 0.180993 8.26364 0.180993H101.918C104.094 0.180993 106.18 1.05127 107.719 2.60051C109.258 4.14976 110.122 6.25109 110.122 8.44224V63.9157C110.122 66.1069 109.258 68.2082 107.719 69.7575C106.18 71.3067 104.094 72.177 101.918 72.177H60.6H60.5402V72.2367V77.7841V77.8439H60.6H90.9C91.6146 77.8439 92.2999 78.1297 92.8053 78.6386C93.3108 79.1475 93.5948 79.8379 93.5948 80.5578V86.1051C93.5948 86.825 93.3108 87.5154 92.8053 88.0243C92.2999 88.5332 91.6146 88.819 90.9 88.819H19.2818C18.5673 88.819 17.8819 88.5332 17.3765 88.0243C16.8711 87.5154 16.5871 86.825 16.5871 86.1051V80.5578C16.5871 79.8379 16.8711 79.1475 17.3765 78.6386C17.8819 78.1297 18.5673 77.8439 19.2818 77.8439H49.5818H49.6416V77.7841V72.2367ZM99.1636 61.2018H99.2234V61.1421V11.2159V11.1561H99.1636H11.0182H10.9584V11.2159V61.1421V61.2018H11.0182H99.1636Z" fill="#E9E9E9" stroke="#002A54" stroke-width="0.119555"/>
</svg>
