<svg width="34" height="34" viewBox="0 0 34 34" fill="none" xmlns="http://www.w3.org/2000/svg">
<path d="M25.2415 15.55H21.1415V13.15C21.1415 12.55 21.2415 12.15 21.5415 11.95C21.7415 11.75 22.1415 11.45 23.0415 11.45H26.9415V4.04999L25.8415 3.84999L25.6415 5.14999C25.8415 3.84999 25.8415 3.84999 25.8415 3.84999C25.8415 3.84999 25.8415 3.84999 25.7415 3.84999C25.6415 3.84999 25.5415 3.84999 25.4415 3.84999C25.1415 3.84999 24.8415 3.74999 24.3415 3.74999C23.4415 3.64999 22.3415 3.54999 21.1415 3.54999C18.6415 3.54999 16.3415 4.34999 14.7415 5.94999C13.1415 7.54999 12.3415 9.84999 12.3415 12.65V15.65H7.24146V24.15H12.3415V33.45H4.54145C3.84145 33.45 2.34146 32.55 1.84146 32.05C1.34146 31.55 0.241455 29.05 0.241455 28.45V5.64999C0.241455 4.94999 1.54145 2.64999 2.04145 2.24999C2.54145 1.74999 5.74146 0.549988 6.34146 0.549988H28.4415C29.1415 0.549988 31.3415 1.84999 31.8415 2.34999C32.3415 2.84999 33.2415 4.94999 33.2415 5.54999V28.95C33.2415 29.65 32.2415 31.65 31.7415 32.05C31.1415 32.45 29.3415 33.45 28.6415 33.45H21.0415V24.05H25.5415L25.7415 22.95L26.6415 17.25L26.8415 15.65H25.2415V15.55Z" fill="#E9E9E9"/>
</svg>
