<svg width="121" height="89" viewBox="0 0 121 89" fill="none" xmlns="http://www.w3.org/2000/svg">
<path d="M84.6127 59.4336C101.768 47.077 110.167 40.9445 115.5 36.9575V77.7841C115.5 81.3367 112.58 84.2879 108.9 84.2879H11.9174C8.23765 84.2879 5.31796 81.3367 5.31796 77.7841V36.973C10.6598 40.9547 19.0708 47.0757 36.2267 59.4324C36.8099 59.8546 37.5274 60.4031 38.3434 61.0269C40.4399 62.6297 43.1871 64.7299 45.9817 66.4643C49.9308 68.9152 54.968 71.3242 60.4023 71.3035C65.876 71.3395 70.9754 68.8845 74.9395 66.4183C77.7433 64.6738 80.5011 62.5605 82.5614 60.9817C83.3638 60.3668 84.0604 59.833 84.6127 59.4336ZM60.4873 54.7027L60.4089 54.7014L60.3304 54.7027C59.8998 54.7101 59.0874 54.566 57.8296 54.0209C56.6152 53.4947 55.2587 52.7157 53.8199 51.7673C51.8735 50.4844 50.2144 49.2095 48.655 48.0112C47.7415 47.3093 46.8622 46.6337 45.9794 45.9981L45.9782 45.9972C17.3607 25.407 13.2591 22.2244 7.19289 17.5173C6.71234 17.1444 6.21946 16.7619 5.70109 16.3605C5.43251 16.1455 5.31796 15.8701 5.31796 15.6076V11.2159C5.31796 7.66328 8.23765 4.71212 11.9174 4.71212H108.9C112.58 4.71212 115.5 7.66328 115.5 11.2159V15.6076C115.5 15.9021 115.362 16.1719 115.147 16.3372L115.137 16.3446L115.128 16.352C114.722 16.6676 114.332 16.9714 113.951 17.2679C107.7 22.1345 103.981 25.03 74.8395 45.9972L74.8383 45.9981C73.9555 46.6337 73.0762 47.3093 72.1628 48.0112C70.6033 49.2095 68.9442 50.4844 66.9978 51.7673C65.559 52.7157 64.2025 53.4947 62.9882 54.0209C61.7303 54.566 60.9179 54.7101 60.4873 54.7027Z" stroke="#E9E9E9" stroke-width="9.18182"/>
</svg>
