<svg width="40" height="30" viewBox="0 0 40 30" fill="none" xmlns="http://www.w3.org/2000/svg">
<path d="M38.5023 10.076C38.7994 9.84193 39.2412 10.0609 39.2412 10.431V25.875C39.2412 27.8763 37.6035 29.5 35.585 29.5H3.89746C1.87891 29.5 0.241211 27.8763 0.241211 25.875V10.4385C0.241211 10.0609 0.675391 9.84948 0.980078 10.0836C2.68633 11.3977 4.94863 13.0667 12.7182 18.6628C14.3254 19.8258 17.0371 22.2727 19.7412 22.2576C22.4605 22.2802 25.2256 19.7805 26.7719 18.6628C34.5414 13.0667 36.7961 11.3901 38.5023 10.076ZM19.7412 19.8333C21.5084 19.8635 24.0525 17.6281 25.3322 16.7068C35.4402 9.43412 36.2096 8.79974 38.5404 6.98724C38.9822 6.6474 39.2412 6.11875 39.2412 5.5599V4.125C39.2412 2.1237 37.6035 0.5 35.585 0.5H3.89746C1.87891 0.5 0.241211 2.1237 0.241211 4.125V5.5599C0.241211 6.11875 0.500195 6.63984 0.941992 6.98724C3.27285 8.79219 4.04219 9.43412 14.1502 16.7068C15.4299 17.6281 17.974 19.8635 19.7412 19.8333Z" fill="#E9E9E9"/>
</svg>
